<svg xmlns="http://www.w3.org/2000/svg" width="250" height="226" viewBox="0 0 250 226">
  <g id="cloudy_1_" data-name="cloudy (1)" transform="translate(0.295 -24.027)">
    <path id="Path_14" data-name="Path 14" d="M85.7,103.748c-.329,0-.671-.01-1,0-3.491-13.57-15.679-24-30-24a30.911,30.911,0,0,0-31,31,32.909,32.909,0,0,0,0,4h0c-.438,0-1.607.867-2,1a24.151,24.151,0,0,0-15,8,24.143,24.143,0,0,0,0,34,24.153,24.153,0,0,0,15,8,10.013,10.013,0,0,0,2,0h62a31,31,0,0,0,0-62Z" transform="translate(0 -28.721)" fill="#e1dee1"/>
    <path id="Path_15" data-name="Path 15" d="M93.7,193.946h-63c-.438,0-.607.133-1,0a24.151,24.151,0,0,1-15-8,25.257,25.257,0,0,1-7-17,28.531,28.531,0,0,1,0-3c-.441.416-.587,1.55-1,2a24.143,24.143,0,0,0,0,34,24.153,24.153,0,0,0,15,8,10.015,10.015,0,0,0,2,0h62a31.921,31.921,0,0,0,31-26A31.353,31.353,0,0,1,93.7,193.946Z" transform="translate(0 -72.919)" fill="#c2bec4"/>
    <path id="Path_16" data-name="Path 16" d="M382.206,67.027a24.151,24.151,0,0,0-15-8,10.012,10.012,0,0,0-2,0h0a32.905,32.905,0,0,0,0-4,31.028,31.028,0,0,0-61-8c-.329-.01-.671,0-1,0-17.191,0-31,14.809-31,32a30.911,30.911,0,0,0,31,31h62a10.012,10.012,0,0,0,2,0,24.153,24.153,0,0,0,15-8,27.775,27.775,0,0,0,7-18A25.254,25.254,0,0,0,382.206,67.027Z" transform="translate(-139.501 0)" fill="#e1dee1"/>
    <path id="Path_17" data-name="Path 17" d="M378.206,124.579c-.393.133-.562,0-1,0h-62c-17.191,0-32-13.809-32-31a31.577,31.577,0,0,1,2-10c-8.051,5.643-13,15.444-13,26a30.911,30.911,0,0,0,31,31h62a10.013,10.013,0,0,0,2,0,24.153,24.153,0,0,0,15-8,25.812,25.812,0,0,0,6-11A26.424,26.424,0,0,1,378.206,124.579Z" transform="translate(-139.501 -30.552)" fill="#c2bec4"/>
    <path id="Path_18" data-name="Path 18" d="M194.7,194.366a48.87,48.87,0,0,0-10,1c1.842-5.319,2-11.331,2-17a49.6,49.6,0,0,0-50-50c-26.313,0-48.571,19.312-51,45-6.357-1.983-12.254-2-19-2-36.53,0-67,29.47-67,66s30.47,66,67,66h128c30.084,0,55-24.916,55-55S224.788,194.366,194.7,194.366Z" transform="translate(0 -53.339)" fill="#f0eff0"/>
    <path id="Path_19" data-name="Path 19" d="M210.7,345.215H81.7c-36.53,0-66-30.47-66-67,0-8.514,1.062-16.516,4-24a67.036,67.036,0,0,0-20,48c0,36.53,30.47,66,67,66h128a55,55,0,0,0,52-37A54.363,54.363,0,0,1,210.7,345.215Z" transform="translate(0 -118.187)" fill="#d1ced3"/>
  </g>
</svg>
