<svg xmlns="http://www.w3.org/2000/svg" width="127" height="114" viewBox="0 0 127 114">
  <g id="Group_39" data-name="Group 39" transform="translate(-730.091 -87)">
    <path id="Path_14" data-name="Path 14" d="M43.5,91.482c-.166,0-.834-.005-1,0-1.765-6.861-7.76-11-15-11-8.691,0-16,6.309-16,15a16.273,16.273,0,0,0,0,2h0c-.221,0,.2-.067,0,0a13.188,13.188,0,0,0-8,4c-2.176,2.367-3,5.783-3,9s.824,6.633,3,9a13.189,13.189,0,0,0,8,4c.2.067-.221,0,0,0h32a16,16,0,0,0,0-32Z" transform="translate(730.591 20.518)" fill="#e1dee1"/>
    <path id="Path_15" data-name="Path 15" d="M47.5,180.435h-32c-.221,0,.2.067,0,0a13.188,13.188,0,0,1-8-4c-2.176-2.367-4-5.783-4-9,0-.482.947-.526,1-1-.223.21-.791-.227-1,0-2.176,2.367-4,5.783-4,9s1.824,6.633,4,9a13.189,13.189,0,0,0,8,4c.2.067-.221,0,0,0h32c7.73,0,13.669-5.648,15-13A14.44,14.44,0,0,1,47.5,180.435Z" transform="translate(730.591 -44.435)" fill="#c2bec4"/>
    <path id="Path_16" data-name="Path 16" d="M327.512,46.274a13.188,13.188,0,0,0-8-4c-.2-.067.221-1,0-1h0a16.269,16.269,0,0,0,0-2c0-8.691-7.309-15-16-15a15.658,15.658,0,0,0-15,12c-.167-.005-.833,0-1,0-8.691,0-16,6.309-16,15a16.19,16.19,0,0,0,16,16h32c.221,0-.2.067,0,0a13.189,13.189,0,0,0,8-4c2.176-2.367,4-5.783,4-9S329.688,48.641,327.512,46.274Z" transform="translate(525.579 62.726)" fill="#e1dee1"/>
    <path id="Path_17" data-name="Path 17" d="M325.512,104.173c-.2.067.221,0,0,0h-32a16.19,16.19,0,0,1-16-16,15.618,15.618,0,0,1,1-5,15.851,15.851,0,0,0,9,29h32c.221,0-.2.067,0,0a13.189,13.189,0,0,0,8-4,14.6,14.6,0,0,0,3-6A13.869,13.869,0,0,1,325.512,104.173Z" transform="translate(525.579 17.827)" fill="#c2bec4"/>
    <path id="Path_18" data-name="Path 18" d="M98.5,161.661c-1.811,0-3.246-.345-5,0a23.076,23.076,0,0,0,1-8,26.309,26.309,0,0,0-26-26c-13.3,0-23.772,11.013-25,24a34.132,34.132,0,0,0-10-2c-18.469,0-33,15.531-33,34a32.693,32.693,0,0,0,33,33h65a28.332,28.332,0,0,0,28-28C126.5,173.451,113.709,161.661,98.5,161.661Z" transform="translate(730.591 -15.661)" fill="#f0eff0"/>
    <path id="Path_19" data-name="Path 19" d="M106.5,299.962h-65c-18.469,0-34-14.531-34-33,0-4.3,1.514-9.216,3-13-6.276,6.091-10,15.584-10,25a32.693,32.693,0,0,0,33,33h65a27.7,27.7,0,0,0,26-19A26.9,26.9,0,0,1,106.5,299.962Z" transform="translate(730.591 -110.962)" fill="#d1ced3"/>
  </g>
</svg>
