<svg xmlns="http://www.w3.org/2000/svg" width="421.387" height="295" viewBox="0 0 421.387 295">
  <g id="Group_93" data-name="Group 93" transform="translate(-1570.446 505)">
    <g id="cloudy_1_" data-name="cloudy (1)" transform="translate(1570.446 -505)">
      <path id="Path_14" data-name="Path 14" d="M85.7,103.748c-.329,0-.671-.01-1,0-3.491-13.57-15.679-24-30-24a30.911,30.911,0,0,0-31,31,32.909,32.909,0,0,0,0,4h0c-.438,0-1.607.867-2,1a24.151,24.151,0,0,0-15,8,24.143,24.143,0,0,0,0,34,24.153,24.153,0,0,0,15,8,10.013,10.013,0,0,0,2,0h62a31,31,0,0,0,0-62Z" transform="translate(7.295 -52.748)" fill="#e1dee1"/>
      <path id="Path_15" data-name="Path 15" d="M93.7,193.946h-63c-.438,0-.607.133-1,0a24.151,24.151,0,0,1-15-8,25.257,25.257,0,0,1-7-17,28.531,28.531,0,0,1,0-3c-.441.416-.587,1.55-1,2a24.143,24.143,0,0,0,0,34,24.153,24.153,0,0,0,15,8,10.015,10.015,0,0,0,2,0h62a31.921,31.921,0,0,0,31-26A31.353,31.353,0,0,1,93.7,193.946Z" transform="translate(7.295 -88.429)" fill="#c2bec4"/>
      <path id="Path_16" data-name="Path 16" d="M382.206,67.027a24.151,24.151,0,0,0-15-8,10.012,10.012,0,0,0-2,0h0a32.905,32.905,0,0,0,0-4,31.028,31.028,0,0,0-61-8c-.329-.01-.671,0-1,0-17.191,0-31,14.809-31,32a30.911,30.911,0,0,0,31,31h62a10.012,10.012,0,0,0,2,0,24.153,24.153,0,0,0,15-8,27.775,27.775,0,0,0,7-18A25.254,25.254,0,0,0,382.206,67.027Z" transform="translate(32.181 -24.027)" fill="#e1dee1"/>
      <path id="Path_17" data-name="Path 17" d="M378.206,124.579c-.393.133-.562,0-1,0h-62c-17.191,0-32-13.809-32-31a31.577,31.577,0,0,1,2-10c-8.051,5.643-13,15.444-13,26a30.911,30.911,0,0,0,31,31h62a10.013,10.013,0,0,0,2,0,24.153,24.153,0,0,0,15-8,25.812,25.812,0,0,0,6-11A26.424,26.424,0,0,1,378.206,124.579Z" transform="translate(32.181 -54.579)" fill="#c2bec4"/>
      <path id="Path_18" data-name="Path 18" d="M322.926,202.836a117.878,117.878,0,0,0-16.575,1.128c3.054-6,3.315-12.785,3.315-19.182,0-31.52-36.574-56.417-82.877-56.417-43.615,0-80.508,21.791-84.535,50.775-10.538-2.237-20.312-2.257-31.493-2.257C50.21,176.884-.3,210.136-.3,251.354s50.505,74.47,111.056,74.47H322.926c49.865,0,91.165-28.114,91.165-62.058S372.791,202.836,322.926,202.836Z" transform="translate(7.295 -77.366)" fill="#f0eff0"/>
      <path id="Path_19" data-name="Path 19" d="M351.132,345.215H136.278c-60.842,0-109.925-30.47-109.925-67,0-8.514,2.177-24.65,7.07-32.135C12.748,258.128-.3,283.59-.3,302.215c0,36.53,50.748,66,111.591,66H324.484c39.92,0,75.281-14.709,87.451-36.239C395.9,340.485,374.163,345.215,351.132,345.215Z" transform="translate(0.295 -119.757)" fill="#d1ced3"/>
    </g>
    <g id="Group_91" data-name="Group 91" transform="translate(1792.933 -324)">
      <path id="Path_14-2" data-name="Path 14" d="M43.5,91.482c-.166,0-.834-.005-1,0-1.765-6.861-7.76-11-15-11-8.691,0-16,6.309-16,15a16.273,16.273,0,0,0,0,2h0c-.221,0,.2-.067,0,0a13.188,13.188,0,0,0-8,4c-2.176,2.367-3,5.783-3,9s.824,6.633,3,9a13.189,13.189,0,0,0,8,4c.2.067-.221,0,0,0h32a16,16,0,0,0,0-32Z" transform="translate(0.5 -66.482)" fill="#e1dee1"/>
      <path id="Path_15-2" data-name="Path 15" d="M47.5,180.435h-32c-.221,0,.2.067,0,0a13.188,13.188,0,0,1-8-4c-2.176-2.367-4-5.783-4-9,0-.482.947-.526,1-1-.223.21-.791-.227-1,0-2.176,2.367-4,5.783-4,9s1.824,6.633,4,9a13.189,13.189,0,0,0,8,4c.2.067-.221,0,0,0h32c7.73,0,13.669-5.648,15-13A14.44,14.44,0,0,1,47.5,180.435Z" transform="translate(0.5 -131.435)" fill="#c2bec4"/>
      <path id="Path_16-2" data-name="Path 16" d="M327.512,46.274a13.188,13.188,0,0,0-8-4c-.2-.067.221-1,0-1h0a16.269,16.269,0,0,0,0-2c0-8.691-7.309-15-16-15a15.658,15.658,0,0,0-15,12c-.167-.005-.833,0-1,0-8.691,0-16,6.309-16,15a16.19,16.19,0,0,0,16,16h32c.221,0-.2.067,0,0a13.189,13.189,0,0,0,8-4c2.176-2.367,4-5.783,4-9S329.688,48.641,327.512,46.274Z" transform="translate(-204.512 -24.274)" fill="#e1dee1"/>
      <path id="Path_17-2" data-name="Path 17" d="M325.512,104.173c-.2.067.221,0,0,0h-32a16.19,16.19,0,0,1-16-16,15.618,15.618,0,0,1,1-5,15.851,15.851,0,0,0,9,29h32c.221,0-.2.067,0,0a13.189,13.189,0,0,0,8-4,14.6,14.6,0,0,0,3-6A13.869,13.869,0,0,1,325.512,104.173Z" transform="translate(-204.512 -69.173)" fill="#c2bec4"/>
      <path id="Path_18-2" data-name="Path 18" d="M98.5,161.661c-1.811,0-3.246-.345-5,0a23.076,23.076,0,0,0,1-8,26.309,26.309,0,0,0-26-26c-13.3,0-23.772,11.013-25,24a34.132,34.132,0,0,0-10-2c-18.469,0-33,15.531-33,34a32.693,32.693,0,0,0,33,33h65a28.332,28.332,0,0,0,28-28C126.5,173.451,113.709,161.661,98.5,161.661Z" transform="translate(0.5 -102.661)" fill="#f0eff0"/>
      <path id="Path_19-2" data-name="Path 19" d="M106.5,299.962h-65c-18.469,0-34-14.531-34-33,0-4.3,1.514-9.216,3-13-6.276,6.091-10,15.584-10,25a32.693,32.693,0,0,0,33,33h65a27.7,27.7,0,0,0,26-19A26.9,26.9,0,0,1,106.5,299.962Z" transform="translate(0.5 -197.962)" fill="#d1ced3"/>
    </g>
    <g id="Group_92" data-name="Group 92" transform="translate(1622 -347)">
      <path id="Path_14-3" data-name="Path 14" d="M43.5,91.482c-.166,0-.834-.005-1,0-1.765-6.861-7.76-11-15-11-8.691,0-16,6.309-16,15a16.273,16.273,0,0,0,0,2h0c-.221,0,.2-.067,0,0a13.188,13.188,0,0,0-8,4c-2.176,2.367-3,5.783-3,9s.824,6.633,3,9a13.189,13.189,0,0,0,8,4c.2.067-.221,0,0,0h32a16,16,0,0,0,0-32Z" transform="translate(0.5 -66.482)" fill="#e1dee1"/>
      <path id="Path_15-3" data-name="Path 15" d="M47.5,180.435h-32c-.221,0,.2.067,0,0a13.188,13.188,0,0,1-8-4c-2.176-2.367-4-5.783-4-9,0-.482.947-.526,1-1-.223.21-.791-.227-1,0-2.176,2.367-4,5.783-4,9s1.824,6.633,4,9a13.189,13.189,0,0,0,8,4c.2.067-.221,0,0,0h32c7.73,0,13.669-5.648,15-13A14.44,14.44,0,0,1,47.5,180.435Z" transform="translate(0.5 -131.435)" fill="#c2bec4"/>
      <path id="Path_16-3" data-name="Path 16" d="M327.512,46.274a13.188,13.188,0,0,0-8-4c-.2-.067.221-1,0-1h0a16.269,16.269,0,0,0,0-2c0-8.691-7.309-15-16-15a15.658,15.658,0,0,0-15,12c-.167-.005-.833,0-1,0-8.691,0-16,6.309-16,15a16.19,16.19,0,0,0,16,16h32c.221,0-.2.067,0,0a13.189,13.189,0,0,0,8-4c2.176-2.367,4-5.783,4-9S329.688,48.641,327.512,46.274Z" transform="translate(-204.512 -24.274)" fill="#e1dee1"/>
      <path id="Path_17-3" data-name="Path 17" d="M325.512,104.173c-.2.067.221,0,0,0h-32a16.19,16.19,0,0,1-16-16,15.618,15.618,0,0,1,1-5,15.851,15.851,0,0,0,9,29h32c.221,0-.2.067,0,0a13.189,13.189,0,0,0,8-4,14.6,14.6,0,0,0,3-6A13.869,13.869,0,0,1,325.512,104.173Z" transform="translate(-204.512 -69.173)" fill="#c2bec4"/>
      <path id="Path_18-3" data-name="Path 18" d="M98.5,161.661c-1.811,0-3.246-.345-5,0a23.076,23.076,0,0,0,1-8,26.309,26.309,0,0,0-26-26c-13.3,0-23.772,11.013-25,24a34.132,34.132,0,0,0-10-2c-18.469,0-33,15.531-33,34a32.693,32.693,0,0,0,33,33h65a28.332,28.332,0,0,0,28-28C126.5,173.451,113.709,161.661,98.5,161.661Z" transform="translate(0.5 -102.661)" fill="#f0eff0"/>
      <path id="Path_19-3" data-name="Path 19" d="M106.5,299.962h-65c-18.469,0-34-14.531-34-33,0-4.3,1.514-9.216,3-13-6.276,6.091-10,15.584-10,25a32.693,32.693,0,0,0,33,33h65a27.7,27.7,0,0,0,26-19A26.9,26.9,0,0,1,106.5,299.962Z" transform="translate(0.5 -197.962)" fill="#d1ced3"/>
    </g>
  </g>
</svg>
