<svg xmlns="http://www.w3.org/2000/svg" width="2154.336" height="672.5" viewBox="0 0 2154.336 672.5">
  <g id="Group_107" data-name="Group 107" transform="translate(-703.652 985.667)">
    <g id="Group_101" data-name="Group 101" transform="translate(46.155 -104)">
      <g id="Group_93" data-name="Group 93">
        <g id="cloudy_1_" data-name="cloudy (1)" transform="translate(1570.446 -505)">
          <path id="Path_14" data-name="Path 14" d="M85.7,103.748c-.329,0-.671-.01-1,0-3.491-13.57-15.679-24-30-24a30.911,30.911,0,0,0-31,31,32.909,32.909,0,0,0,0,4h0c-.438,0-1.607.867-2,1a24.151,24.151,0,0,0-15,8,24.143,24.143,0,0,0,0,34,24.153,24.153,0,0,0,15,8,10.013,10.013,0,0,0,2,0h62a31,31,0,0,0,0-62Z" transform="translate(7.295 -52.748)" fill="#e1dee1"/>
          <path id="Path_15" data-name="Path 15" d="M93.7,193.946h-63c-.438,0-.607.133-1,0a24.151,24.151,0,0,1-15-8,25.257,25.257,0,0,1-7-17,28.531,28.531,0,0,1,0-3c-.441.416-.587,1.55-1,2a24.143,24.143,0,0,0,0,34,24.153,24.153,0,0,0,15,8,10.015,10.015,0,0,0,2,0h62a31.921,31.921,0,0,0,31-26A31.353,31.353,0,0,1,93.7,193.946Z" transform="translate(7.295 -88.429)" fill="#c2bec4"/>
          <path id="Path_16" data-name="Path 16" d="M382.206,67.027a24.151,24.151,0,0,0-15-8,10.012,10.012,0,0,0-2,0h0a32.905,32.905,0,0,0,0-4,31.028,31.028,0,0,0-61-8c-.329-.01-.671,0-1,0-17.191,0-31,14.809-31,32a30.911,30.911,0,0,0,31,31h62a10.012,10.012,0,0,0,2,0,24.153,24.153,0,0,0,15-8,27.775,27.775,0,0,0,7-18A25.254,25.254,0,0,0,382.206,67.027Z" transform="translate(32.181 -24.027)" fill="#e1dee1"/>
          <path id="Path_17" data-name="Path 17" d="M378.206,124.579c-.393.133-.562,0-1,0h-62c-17.191,0-32-13.809-32-31a31.577,31.577,0,0,1,2-10c-8.051,5.643-13,15.444-13,26a30.911,30.911,0,0,0,31,31h62a10.013,10.013,0,0,0,2,0,24.153,24.153,0,0,0,15-8,25.812,25.812,0,0,0,6-11A26.424,26.424,0,0,1,378.206,124.579Z" transform="translate(32.181 -54.579)" fill="#c2bec4"/>
          <path id="Path_18" data-name="Path 18" d="M322.926,202.836a117.878,117.878,0,0,0-16.575,1.128c3.054-6,3.315-12.785,3.315-19.182,0-31.52-36.574-56.417-82.877-56.417-43.615,0-80.508,21.791-84.535,50.775-10.538-2.237-20.312-2.257-31.493-2.257C50.21,176.884-.3,210.136-.3,251.354s50.505,74.47,111.056,74.47H322.926c49.865,0,91.165-28.114,91.165-62.058S372.791,202.836,322.926,202.836Z" transform="translate(7.295 -77.366)" fill="#f0eff0"/>
          <path id="Path_19" data-name="Path 19" d="M351.132,345.215H136.278c-60.842,0-109.925-30.47-109.925-67,0-8.514,2.177-24.65,7.07-32.135C12.748,258.128-.3,283.59-.3,302.215c0,36.53,50.748,66,111.591,66H324.484c39.92,0,75.281-14.709,87.451-36.239C395.9,340.485,374.163,345.215,351.132,345.215Z" transform="translate(0.295 -119.757)" fill="#d1ced3"/>
        </g>
        <g id="Group_91" data-name="Group 91" transform="translate(1792.933 -324)">
          <path id="Path_14-2" data-name="Path 14" d="M43.5,91.482c-.166,0-.834-.005-1,0-1.765-6.861-7.76-11-15-11-8.691,0-16,6.309-16,15a16.273,16.273,0,0,0,0,2h0c-.221,0,.2-.067,0,0a13.188,13.188,0,0,0-8,4c-2.176,2.367-3,5.783-3,9s.824,6.633,3,9a13.189,13.189,0,0,0,8,4c.2.067-.221,0,0,0h32a16,16,0,0,0,0-32Z" transform="translate(0.5 -66.482)" fill="#e1dee1"/>
          <path id="Path_15-2" data-name="Path 15" d="M47.5,180.435h-32c-.221,0,.2.067,0,0a13.188,13.188,0,0,1-8-4c-2.176-2.367-4-5.783-4-9,0-.482.947-.526,1-1-.223.21-.791-.227-1,0-2.176,2.367-4,5.783-4,9s1.824,6.633,4,9a13.189,13.189,0,0,0,8,4c.2.067-.221,0,0,0h32c7.73,0,13.669-5.648,15-13A14.44,14.44,0,0,1,47.5,180.435Z" transform="translate(0.5 -131.435)" fill="#c2bec4"/>
          <path id="Path_16-2" data-name="Path 16" d="M327.512,46.274a13.188,13.188,0,0,0-8-4c-.2-.067.221-1,0-1h0a16.269,16.269,0,0,0,0-2c0-8.691-7.309-15-16-15a15.658,15.658,0,0,0-15,12c-.167-.005-.833,0-1,0-8.691,0-16,6.309-16,15a16.19,16.19,0,0,0,16,16h32c.221,0-.2.067,0,0a13.189,13.189,0,0,0,8-4c2.176-2.367,4-5.783,4-9S329.688,48.641,327.512,46.274Z" transform="translate(-204.512 -24.274)" fill="#e1dee1"/>
          <path id="Path_17-2" data-name="Path 17" d="M325.512,104.173c-.2.067.221,0,0,0h-32a16.19,16.19,0,0,1-16-16,15.618,15.618,0,0,1,1-5,15.851,15.851,0,0,0,9,29h32c.221,0-.2.067,0,0a13.189,13.189,0,0,0,8-4,14.6,14.6,0,0,0,3-6A13.869,13.869,0,0,1,325.512,104.173Z" transform="translate(-204.512 -69.173)" fill="#c2bec4"/>
          <path id="Path_18-2" data-name="Path 18" d="M98.5,161.661c-1.811,0-3.246-.345-5,0a23.076,23.076,0,0,0,1-8,26.309,26.309,0,0,0-26-26c-13.3,0-23.772,11.013-25,24a34.132,34.132,0,0,0-10-2c-18.469,0-33,15.531-33,34a32.693,32.693,0,0,0,33,33h65a28.332,28.332,0,0,0,28-28C126.5,173.451,113.709,161.661,98.5,161.661Z" transform="translate(0.5 -102.661)" fill="#f0eff0"/>
          <path id="Path_19-2" data-name="Path 19" d="M106.5,299.962h-65c-18.469,0-34-14.531-34-33,0-4.3,1.514-9.216,3-13-6.276,6.091-10,15.584-10,25a32.693,32.693,0,0,0,33,33h65a27.7,27.7,0,0,0,26-19A26.9,26.9,0,0,1,106.5,299.962Z" transform="translate(0.5 -197.962)" fill="#d1ced3"/>
        </g>
        <g id="Group_92" data-name="Group 92" transform="translate(1622 -347)">
          <path id="Path_14-3" data-name="Path 14" d="M43.5,91.482c-.166,0-.834-.005-1,0-1.765-6.861-7.76-11-15-11-8.691,0-16,6.309-16,15a16.273,16.273,0,0,0,0,2h0c-.221,0,.2-.067,0,0a13.188,13.188,0,0,0-8,4c-2.176,2.367-3,5.783-3,9s.824,6.633,3,9a13.189,13.189,0,0,0,8,4c.2.067-.221,0,0,0h32a16,16,0,0,0,0-32Z" transform="translate(0.5 -66.482)" fill="#e1dee1"/>
          <path id="Path_15-3" data-name="Path 15" d="M47.5,180.435h-32c-.221,0,.2.067,0,0a13.188,13.188,0,0,1-8-4c-2.176-2.367-4-5.783-4-9,0-.482.947-.526,1-1-.223.21-.791-.227-1,0-2.176,2.367-4,5.783-4,9s1.824,6.633,4,9a13.189,13.189,0,0,0,8,4c.2.067-.221,0,0,0h32c7.73,0,13.669-5.648,15-13A14.44,14.44,0,0,1,47.5,180.435Z" transform="translate(0.5 -131.435)" fill="#c2bec4"/>
          <path id="Path_16-3" data-name="Path 16" d="M327.512,46.274a13.188,13.188,0,0,0-8-4c-.2-.067.221-1,0-1h0a16.269,16.269,0,0,0,0-2c0-8.691-7.309-15-16-15a15.658,15.658,0,0,0-15,12c-.167-.005-.833,0-1,0-8.691,0-16,6.309-16,15a16.19,16.19,0,0,0,16,16h32c.221,0-.2.067,0,0a13.189,13.189,0,0,0,8-4c2.176-2.367,4-5.783,4-9S329.688,48.641,327.512,46.274Z" transform="translate(-204.512 -24.274)" fill="#e1dee1"/>
          <path id="Path_17-3" data-name="Path 17" d="M325.512,104.173c-.2.067.221,0,0,0h-32a16.19,16.19,0,0,1-16-16,15.618,15.618,0,0,1,1-5,15.851,15.851,0,0,0,9,29h32c.221,0-.2.067,0,0a13.189,13.189,0,0,0,8-4,14.6,14.6,0,0,0,3-6A13.869,13.869,0,0,1,325.512,104.173Z" transform="translate(-204.512 -69.173)" fill="#c2bec4"/>
          <path id="Path_18-3" data-name="Path 18" d="M98.5,161.661c-1.811,0-3.246-.345-5,0a23.076,23.076,0,0,0,1-8,26.309,26.309,0,0,0-26-26c-13.3,0-23.772,11.013-25,24a34.132,34.132,0,0,0-10-2c-18.469,0-33,15.531-33,34a32.693,32.693,0,0,0,33,33h65a28.332,28.332,0,0,0,28-28C126.5,173.451,113.709,161.661,98.5,161.661Z" transform="translate(0.5 -102.661)" fill="#f0eff0"/>
          <path id="Path_19-3" data-name="Path 19" d="M106.5,299.962h-65c-18.469,0-34-14.531-34-33,0-4.3,1.514-9.216,3-13-6.276,6.091-10,15.584-10,25a32.693,32.693,0,0,0,33,33h65a27.7,27.7,0,0,0,26-19A26.9,26.9,0,0,1,106.5,299.962Z" transform="translate(0.5 -197.962)" fill="#d1ced3"/>
        </g>
      </g>
      <g id="Group_109" data-name="Group 109" transform="translate(133.554 -368.167)">
        <g id="cloudy_1_2" data-name="cloudy (1)" transform="translate(1570.446 -505)">
          <path id="Path_14-4" data-name="Path 14" d="M85.7,103.748c-.329,0-.671-.01-1,0-3.491-13.57-15.679-24-30-24a30.911,30.911,0,0,0-31,31,32.909,32.909,0,0,0,0,4h0c-.438,0-1.607.867-2,1a24.151,24.151,0,0,0-15,8,24.143,24.143,0,0,0,0,34,24.153,24.153,0,0,0,15,8,10.013,10.013,0,0,0,2,0h62a31,31,0,0,0,0-62Z" transform="translate(7.295 -52.748)" fill="#e1dee1"/>
          <path id="Path_15-4" data-name="Path 15" d="M93.7,193.946h-63c-.438,0-.607.133-1,0a24.151,24.151,0,0,1-15-8,25.257,25.257,0,0,1-7-17,28.531,28.531,0,0,1,0-3c-.441.416-.587,1.55-1,2a24.143,24.143,0,0,0,0,34,24.153,24.153,0,0,0,15,8,10.015,10.015,0,0,0,2,0h62a31.921,31.921,0,0,0,31-26A31.353,31.353,0,0,1,93.7,193.946Z" transform="translate(7.295 -88.429)" fill="#c2bec4"/>
          <path id="Path_16-4" data-name="Path 16" d="M382.206,67.027a24.151,24.151,0,0,0-15-8,10.012,10.012,0,0,0-2,0h0a32.905,32.905,0,0,0,0-4,31.028,31.028,0,0,0-61-8c-.329-.01-.671,0-1,0-17.191,0-31,14.809-31,32a30.911,30.911,0,0,0,31,31h62a10.012,10.012,0,0,0,2,0,24.153,24.153,0,0,0,15-8,27.775,27.775,0,0,0,7-18A25.254,25.254,0,0,0,382.206,67.027Z" transform="translate(32.181 -24.027)" fill="#e1dee1"/>
          <path id="Path_17-4" data-name="Path 17" d="M378.206,124.579c-.393.133-.562,0-1,0h-62c-17.191,0-32-13.809-32-31a31.577,31.577,0,0,1,2-10c-8.051,5.643-13,15.444-13,26a30.911,30.911,0,0,0,31,31h62a10.013,10.013,0,0,0,2,0,24.153,24.153,0,0,0,15-8,25.812,25.812,0,0,0,6-11A26.424,26.424,0,0,1,378.206,124.579Z" transform="translate(32.181 -54.579)" fill="#c2bec4"/>
          <path id="Path_18-4" data-name="Path 18" d="M322.926,202.836a117.878,117.878,0,0,0-16.575,1.128c3.054-6,3.315-12.785,3.315-19.182,0-31.52-36.574-56.417-82.877-56.417-43.615,0-80.508,21.791-84.535,50.775-10.538-2.237-20.312-2.257-31.493-2.257C50.21,176.884-.3,210.136-.3,251.354s50.505,74.47,111.056,74.47H322.926c49.865,0,91.165-28.114,91.165-62.058S372.791,202.836,322.926,202.836Z" transform="translate(7.295 -77.366)" fill="#f0eff0"/>
          <path id="Path_19-4" data-name="Path 19" d="M351.132,345.215H136.278c-60.842,0-109.925-30.47-109.925-67,0-8.514,2.177-24.65,7.07-32.135C12.748,258.128-.3,283.59-.3,302.215c0,36.53,50.748,66,111.591,66H324.484c39.92,0,75.281-14.709,87.451-36.239C395.9,340.485,374.163,345.215,351.132,345.215Z" transform="translate(0.295 -119.757)" fill="#d1ced3"/>
        </g>
        <g id="Group_91-2" data-name="Group 91" transform="translate(1792.933 -324)">
          <path id="Path_14-5" data-name="Path 14" d="M43.5,91.482c-.166,0-.834-.005-1,0-1.765-6.861-7.76-11-15-11-8.691,0-16,6.309-16,15a16.273,16.273,0,0,0,0,2h0c-.221,0,.2-.067,0,0a13.188,13.188,0,0,0-8,4c-2.176,2.367-3,5.783-3,9s.824,6.633,3,9a13.189,13.189,0,0,0,8,4c.2.067-.221,0,0,0h32a16,16,0,0,0,0-32Z" transform="translate(0.5 -66.482)" fill="#e1dee1"/>
          <path id="Path_15-5" data-name="Path 15" d="M47.5,180.435h-32c-.221,0,.2.067,0,0a13.188,13.188,0,0,1-8-4c-2.176-2.367-4-5.783-4-9,0-.482.947-.526,1-1-.223.21-.791-.227-1,0-2.176,2.367-4,5.783-4,9s1.824,6.633,4,9a13.189,13.189,0,0,0,8,4c.2.067-.221,0,0,0h32c7.73,0,13.669-5.648,15-13A14.44,14.44,0,0,1,47.5,180.435Z" transform="translate(0.5 -131.435)" fill="#c2bec4"/>
          <path id="Path_16-5" data-name="Path 16" d="M327.512,46.274a13.188,13.188,0,0,0-8-4c-.2-.067.221-1,0-1h0a16.269,16.269,0,0,0,0-2c0-8.691-7.309-15-16-15a15.658,15.658,0,0,0-15,12c-.167-.005-.833,0-1,0-8.691,0-16,6.309-16,15a16.19,16.19,0,0,0,16,16h32c.221,0-.2.067,0,0a13.189,13.189,0,0,0,8-4c2.176-2.367,4-5.783,4-9S329.688,48.641,327.512,46.274Z" transform="translate(-204.512 -24.274)" fill="#e1dee1"/>
          <path id="Path_17-5" data-name="Path 17" d="M325.512,104.173c-.2.067.221,0,0,0h-32a16.19,16.19,0,0,1-16-16,15.618,15.618,0,0,1,1-5,15.851,15.851,0,0,0,9,29h32c.221,0-.2.067,0,0a13.189,13.189,0,0,0,8-4,14.6,14.6,0,0,0,3-6A13.869,13.869,0,0,1,325.512,104.173Z" transform="translate(-204.512 -69.173)" fill="#c2bec4"/>
          <path id="Path_18-5" data-name="Path 18" d="M98.5,161.661c-1.811,0-3.246-.345-5,0a23.076,23.076,0,0,0,1-8,26.309,26.309,0,0,0-26-26c-13.3,0-23.772,11.013-25,24a34.132,34.132,0,0,0-10-2c-18.469,0-33,15.531-33,34a32.693,32.693,0,0,0,33,33h65a28.332,28.332,0,0,0,28-28C126.5,173.451,113.709,161.661,98.5,161.661Z" transform="translate(0.5 -102.661)" fill="#f0eff0"/>
          <path id="Path_19-5" data-name="Path 19" d="M106.5,299.962h-65c-18.469,0-34-14.531-34-33,0-4.3,1.514-9.216,3-13-6.276,6.091-10,15.584-10,25a32.693,32.693,0,0,0,33,33h65a27.7,27.7,0,0,0,26-19A26.9,26.9,0,0,1,106.5,299.962Z" transform="translate(0.5 -197.962)" fill="#d1ced3"/>
        </g>
        <g id="Group_92-2" data-name="Group 92" transform="translate(1622 -347)">
          <path id="Path_14-6" data-name="Path 14" d="M43.5,91.482c-.166,0-.834-.005-1,0-1.765-6.861-7.76-11-15-11-8.691,0-16,6.309-16,15a16.273,16.273,0,0,0,0,2h0c-.221,0,.2-.067,0,0a13.188,13.188,0,0,0-8,4c-2.176,2.367-3,5.783-3,9s.824,6.633,3,9a13.189,13.189,0,0,0,8,4c.2.067-.221,0,0,0h32a16,16,0,0,0,0-32Z" transform="translate(0.5 -66.482)" fill="#e1dee1"/>
          <path id="Path_15-6" data-name="Path 15" d="M47.5,180.435h-32c-.221,0,.2.067,0,0a13.188,13.188,0,0,1-8-4c-2.176-2.367-4-5.783-4-9,0-.482.947-.526,1-1-.223.21-.791-.227-1,0-2.176,2.367-4,5.783-4,9s1.824,6.633,4,9a13.189,13.189,0,0,0,8,4c.2.067-.221,0,0,0h32c7.73,0,13.669-5.648,15-13A14.44,14.44,0,0,1,47.5,180.435Z" transform="translate(0.5 -131.435)" fill="#c2bec4"/>
          <path id="Path_16-6" data-name="Path 16" d="M327.512,46.274a13.188,13.188,0,0,0-8-4c-.2-.067.221-1,0-1h0a16.269,16.269,0,0,0,0-2c0-8.691-7.309-15-16-15a15.658,15.658,0,0,0-15,12c-.167-.005-.833,0-1,0-8.691,0-16,6.309-16,15a16.19,16.19,0,0,0,16,16h32c.221,0-.2.067,0,0a13.189,13.189,0,0,0,8-4c2.176-2.367,4-5.783,4-9S329.688,48.641,327.512,46.274Z" transform="translate(-204.512 -24.274)" fill="#e1dee1"/>
          <path id="Path_17-6" data-name="Path 17" d="M325.512,104.173c-.2.067.221,0,0,0h-32a16.19,16.19,0,0,1-16-16,15.618,15.618,0,0,1,1-5,15.851,15.851,0,0,0,9,29h32c.221,0-.2.067,0,0a13.189,13.189,0,0,0,8-4,14.6,14.6,0,0,0,3-6A13.869,13.869,0,0,1,325.512,104.173Z" transform="translate(-204.512 -69.173)" fill="#c2bec4"/>
          <path id="Path_18-6" data-name="Path 18" d="M98.5,161.661c-1.811,0-3.246-.345-5,0a23.076,23.076,0,0,0,1-8,26.309,26.309,0,0,0-26-26c-13.3,0-23.772,11.013-25,24a34.132,34.132,0,0,0-10-2c-18.469,0-33,15.531-33,34a32.693,32.693,0,0,0,33,33h65a28.332,28.332,0,0,0,28-28C126.5,173.451,113.709,161.661,98.5,161.661Z" transform="translate(0.5 -102.661)" fill="#f0eff0"/>
          <path id="Path_19-6" data-name="Path 19" d="M106.5,299.962h-65c-18.469,0-34-14.531-34-33,0-4.3,1.514-9.216,3-13-6.276,6.091-10,15.584-10,25a32.693,32.693,0,0,0,33,33h65a27.7,27.7,0,0,0,26-19A26.9,26.9,0,0,1,106.5,299.962Z" transform="translate(0.5 -197.962)" fill="#d1ced3"/>
        </g>
      </g>
      <g id="Group_98" data-name="Group 98" transform="translate(820 0.833)">
        <g id="cloudy_1_3" data-name="cloudy (1)" transform="translate(1570.446 -505)">
          <path id="Path_14-7" data-name="Path 14" d="M85.7,103.748c-.329,0-.671-.01-1,0-3.491-13.57-15.679-24-30-24a30.911,30.911,0,0,0-31,31,32.909,32.909,0,0,0,0,4h0c-.438,0-1.607.867-2,1a24.151,24.151,0,0,0-15,8,24.143,24.143,0,0,0,0,34,24.153,24.153,0,0,0,15,8,10.013,10.013,0,0,0,2,0h62a31,31,0,0,0,0-62Z" transform="translate(7.295 -52.748)" fill="#e1dee1"/>
          <path id="Path_15-7" data-name="Path 15" d="M93.7,193.946h-63c-.438,0-.607.133-1,0a24.151,24.151,0,0,1-15-8,25.257,25.257,0,0,1-7-17,28.531,28.531,0,0,1,0-3c-.441.416-.587,1.55-1,2a24.143,24.143,0,0,0,0,34,24.153,24.153,0,0,0,15,8,10.015,10.015,0,0,0,2,0h62a31.921,31.921,0,0,0,31-26A31.353,31.353,0,0,1,93.7,193.946Z" transform="translate(7.295 -88.429)" fill="#c2bec4"/>
          <path id="Path_16-7" data-name="Path 16" d="M382.206,67.027a24.151,24.151,0,0,0-15-8,10.012,10.012,0,0,0-2,0h0a32.905,32.905,0,0,0,0-4,31.028,31.028,0,0,0-61-8c-.329-.01-.671,0-1,0-17.191,0-31,14.809-31,32a30.911,30.911,0,0,0,31,31h62a10.012,10.012,0,0,0,2,0,24.153,24.153,0,0,0,15-8,27.775,27.775,0,0,0,7-18A25.254,25.254,0,0,0,382.206,67.027Z" transform="translate(32.181 -24.027)" fill="#e1dee1"/>
          <path id="Path_17-7" data-name="Path 17" d="M378.206,124.579c-.393.133-.562,0-1,0h-62c-17.191,0-32-13.809-32-31a31.577,31.577,0,0,1,2-10c-8.051,5.643-13,15.444-13,26a30.911,30.911,0,0,0,31,31h62a10.013,10.013,0,0,0,2,0,24.153,24.153,0,0,0,15-8,25.812,25.812,0,0,0,6-11A26.424,26.424,0,0,1,378.206,124.579Z" transform="translate(32.181 -54.579)" fill="#c2bec4"/>
          <path id="Path_18-7" data-name="Path 18" d="M322.926,202.836a117.878,117.878,0,0,0-16.575,1.128c3.054-6,3.315-12.785,3.315-19.182,0-31.52-36.574-56.417-82.877-56.417-43.615,0-80.508,21.791-84.535,50.775-10.538-2.237-20.312-2.257-31.493-2.257C50.21,176.884-.3,210.136-.3,251.354s50.505,74.47,111.056,74.47H322.926c49.865,0,91.165-28.114,91.165-62.058S372.791,202.836,322.926,202.836Z" transform="translate(7.295 -77.366)" fill="#f0eff0"/>
          <path id="Path_19-7" data-name="Path 19" d="M351.132,345.215H136.278c-60.842,0-109.925-30.47-109.925-67,0-8.514,2.177-24.65,7.07-32.135C12.748,258.128-.3,283.59-.3,302.215c0,36.53,50.748,66,111.591,66H324.484c39.92,0,75.281-14.709,87.451-36.239C395.9,340.485,374.163,345.215,351.132,345.215Z" transform="translate(0.295 -119.757)" fill="#d1ced3"/>
        </g>
        <g id="Group_91-3" data-name="Group 91" transform="translate(1792.933 -324)">
          <path id="Path_14-8" data-name="Path 14" d="M43.5,91.482c-.166,0-.834-.005-1,0-1.765-6.861-7.76-11-15-11-8.691,0-16,6.309-16,15a16.273,16.273,0,0,0,0,2h0c-.221,0,.2-.067,0,0a13.188,13.188,0,0,0-8,4c-2.176,2.367-3,5.783-3,9s.824,6.633,3,9a13.189,13.189,0,0,0,8,4c.2.067-.221,0,0,0h32a16,16,0,0,0,0-32Z" transform="translate(0.5 -66.482)" fill="#e1dee1"/>
          <path id="Path_15-8" data-name="Path 15" d="M47.5,180.435h-32c-.221,0,.2.067,0,0a13.188,13.188,0,0,1-8-4c-2.176-2.367-4-5.783-4-9,0-.482.947-.526,1-1-.223.21-.791-.227-1,0-2.176,2.367-4,5.783-4,9s1.824,6.633,4,9a13.189,13.189,0,0,0,8,4c.2.067-.221,0,0,0h32c7.73,0,13.669-5.648,15-13A14.44,14.44,0,0,1,47.5,180.435Z" transform="translate(0.5 -131.435)" fill="#c2bec4"/>
          <path id="Path_16-8" data-name="Path 16" d="M327.512,46.274a13.188,13.188,0,0,0-8-4c-.2-.067.221-1,0-1h0a16.269,16.269,0,0,0,0-2c0-8.691-7.309-15-16-15a15.658,15.658,0,0,0-15,12c-.167-.005-.833,0-1,0-8.691,0-16,6.309-16,15a16.19,16.19,0,0,0,16,16h32c.221,0-.2.067,0,0a13.189,13.189,0,0,0,8-4c2.176-2.367,4-5.783,4-9S329.688,48.641,327.512,46.274Z" transform="translate(-204.512 -24.274)" fill="#e1dee1"/>
          <path id="Path_17-8" data-name="Path 17" d="M325.512,104.173c-.2.067.221,0,0,0h-32a16.19,16.19,0,0,1-16-16,15.618,15.618,0,0,1,1-5,15.851,15.851,0,0,0,9,29h32c.221,0-.2.067,0,0a13.189,13.189,0,0,0,8-4,14.6,14.6,0,0,0,3-6A13.869,13.869,0,0,1,325.512,104.173Z" transform="translate(-204.512 -69.173)" fill="#c2bec4"/>
          <path id="Path_18-8" data-name="Path 18" d="M98.5,161.661c-1.811,0-3.246-.345-5,0a23.076,23.076,0,0,0,1-8,26.309,26.309,0,0,0-26-26c-13.3,0-23.772,11.013-25,24a34.132,34.132,0,0,0-10-2c-18.469,0-33,15.531-33,34a32.693,32.693,0,0,0,33,33h65a28.332,28.332,0,0,0,28-28C126.5,173.451,113.709,161.661,98.5,161.661Z" transform="translate(0.5 -102.661)" fill="#f0eff0"/>
          <path id="Path_19-8" data-name="Path 19" d="M106.5,299.962h-65c-18.469,0-34-14.531-34-33,0-4.3,1.514-9.216,3-13-6.276,6.091-10,15.584-10,25a32.693,32.693,0,0,0,33,33h65a27.7,27.7,0,0,0,26-19A26.9,26.9,0,0,1,106.5,299.962Z" transform="translate(0.5 -197.962)" fill="#d1ced3"/>
        </g>
        <g id="Group_92-3" data-name="Group 92" transform="translate(1622 -347)">
          <path id="Path_14-9" data-name="Path 14" d="M43.5,91.482c-.166,0-.834-.005-1,0-1.765-6.861-7.76-11-15-11-8.691,0-16,6.309-16,15a16.273,16.273,0,0,0,0,2h0c-.221,0,.2-.067,0,0a13.188,13.188,0,0,0-8,4c-2.176,2.367-3,5.783-3,9s.824,6.633,3,9a13.189,13.189,0,0,0,8,4c.2.067-.221,0,0,0h32a16,16,0,0,0,0-32Z" transform="translate(0.5 -66.482)" fill="#e1dee1"/>
          <path id="Path_15-9" data-name="Path 15" d="M47.5,180.435h-32c-.221,0,.2.067,0,0a13.188,13.188,0,0,1-8-4c-2.176-2.367-4-5.783-4-9,0-.482.947-.526,1-1-.223.21-.791-.227-1,0-2.176,2.367-4,5.783-4,9s1.824,6.633,4,9a13.189,13.189,0,0,0,8,4c.2.067-.221,0,0,0h32c7.73,0,13.669-5.648,15-13A14.44,14.44,0,0,1,47.5,180.435Z" transform="translate(0.5 -131.435)" fill="#c2bec4"/>
          <path id="Path_16-9" data-name="Path 16" d="M327.512,46.274a13.188,13.188,0,0,0-8-4c-.2-.067.221-1,0-1h0a16.269,16.269,0,0,0,0-2c0-8.691-7.309-15-16-15a15.658,15.658,0,0,0-15,12c-.167-.005-.833,0-1,0-8.691,0-16,6.309-16,15a16.19,16.19,0,0,0,16,16h32c.221,0-.2.067,0,0a13.189,13.189,0,0,0,8-4c2.176-2.367,4-5.783,4-9S329.688,48.641,327.512,46.274Z" transform="translate(-204.512 -24.274)" fill="#e1dee1"/>
          <path id="Path_17-9" data-name="Path 17" d="M325.512,104.173c-.2.067.221,0,0,0h-32a16.19,16.19,0,0,1-16-16,15.618,15.618,0,0,1,1-5,15.851,15.851,0,0,0,9,29h32c.221,0-.2.067,0,0a13.189,13.189,0,0,0,8-4,14.6,14.6,0,0,0,3-6A13.869,13.869,0,0,1,325.512,104.173Z" transform="translate(-204.512 -69.173)" fill="#c2bec4"/>
          <path id="Path_18-9" data-name="Path 18" d="M98.5,161.661c-1.811,0-3.246-.345-5,0a23.076,23.076,0,0,0,1-8,26.309,26.309,0,0,0-26-26c-13.3,0-23.772,11.013-25,24a34.132,34.132,0,0,0-10-2c-18.469,0-33,15.531-33,34a32.693,32.693,0,0,0,33,33h65a28.332,28.332,0,0,0,28-28C126.5,173.451,113.709,161.661,98.5,161.661Z" transform="translate(0.5 -102.661)" fill="#f0eff0"/>
          <path id="Path_19-9" data-name="Path 19" d="M106.5,299.962h-65c-18.469,0-34-14.531-34-33,0-4.3,1.514-9.216,3-13-6.276,6.091-10,15.584-10,25a32.693,32.693,0,0,0,33,33h65a27.7,27.7,0,0,0,26-19A26.9,26.9,0,0,1,106.5,299.962Z" transform="translate(0.5 -197.962)" fill="#d1ced3"/>
        </g>
      </g>
      <g id="cloudy_1_4" data-name="cloudy (1)" transform="translate(665.792 -580.027)">
        <path id="Path_16-10" data-name="Path 16" d="M382.206,67.027a24.151,24.151,0,0,0-15-8,10.012,10.012,0,0,0-2,0h0a32.905,32.905,0,0,0,0-4,31.028,31.028,0,0,0-61-8c-.329-.01-.671,0-1,0-17.191,0-31,14.809-31,32a30.911,30.911,0,0,0,31,31h62a10.012,10.012,0,0,0,2,0,24.153,24.153,0,0,0,15-8,27.775,27.775,0,0,0,7-18A25.254,25.254,0,0,0,382.206,67.027Z" transform="translate(84.002 0)" fill="#e1dee1"/>
        <path id="Path_17-10" data-name="Path 17" d="M378.206,124.579c-.393.133-.562,0-1,0h-62c-17.191,0-32-13.809-32-31a31.577,31.577,0,0,1,2-10c-8.051,5.643-13,15.444-13,26a30.911,30.911,0,0,0,31,31h62a10.013,10.013,0,0,0,2,0,24.153,24.153,0,0,0,15-8,25.812,25.812,0,0,0,6-11A26.424,26.424,0,0,1,378.206,124.579Z" transform="translate(84.002 -30.552)" fill="#c2bec4"/>
        <path id="Path_18-10" data-name="Path 18" d="M369.037,211.715a137.472,137.472,0,0,0-18.94,1.263c3.489-6.717,3.788-14.31,3.788-21.469,0-35.278-41.792-63.143-94.7-63.143-49.837,0-91.993,24.389-96.595,56.829-12.041-2.5-23.21-2.526-35.986-2.526-69.189,0-126.9,37.216-126.9,83.349s57.71,83.349,126.9,83.349H369.037c56.979,0,104.171-31.466,104.171-69.457S426.016,211.715,369.037,211.715Z" transform="translate(0 -53.339)" fill="#f0eff0"/>
        <path id="Path_19-10" data-name="Path 19" d="M401.632,345.215H155.9c-69.585,0-125.721-30.47-125.721-67,0-8.514-3.332-33.664,2.265-41.148C8.8,249.114-.3,283.59-.3,302.215c0,36.53,58.041,66,127.626,66H371.154c45.656,0,85.135-15.469,99.053-37C451.871,339.725,427.973,345.215,401.632,345.215Z" transform="translate(-8 -72.187)" fill="#d1ced3"/>
      </g>
      <g id="Group_94" data-name="Group 94" transform="translate(1455.042 -428)">
        <path id="Path_14-10" data-name="Path 14" d="M50.227,93.2c-.193,0-.964-.006-1.156,0C47.029,85.269,40.1,80.482,31.724,80.482c-10.051,0-18.5,7.3-18.5,17.346a18.819,18.819,0,0,0,0,2.313h0c-.256,0,.23-.078,0,0a15.251,15.251,0,0,0-9.251,4.626C1.453,107.5.5,111.454.5,115.175s.953,7.67,3.469,10.408a15.252,15.252,0,0,0,9.251,4.626c.23.078-.256,0,0,0H50.227a18.5,18.5,0,1,0,0-37.006Z" transform="translate(730.747 22.708)" fill="#e1dee1"/>
        <path id="Path_15-10" data-name="Path 15" d="M55.009,182.636H18c-.256,0,.23.078,0,0a15.251,15.251,0,0,1-9.251-4.626c-2.516-2.738-4.626-6.687-4.626-10.408,0-.557,1.095-.609,1.156-1.156-.258.243-.915-.263-1.156,0C1.61,169.184-.5,173.133-.5,176.854s2.11,7.67,4.626,10.408a15.252,15.252,0,0,0,9.251,4.626c.23.078-.256,0,0,0H50.383c8.94,0,15.807-6.531,17.346-15.034A16.7,16.7,0,0,1,55.009,182.636Z" transform="translate(730.591 -38.971)" fill="#c2bec4"/>
        <path id="Path_16-11" data-name="Path 16" d="M336.272,49.715a15.251,15.251,0,0,0-9.251-4.626c-.23-.078.256-1.156,0-1.156h0a18.817,18.817,0,0,0,0-2.313c0-10.051-8.452-17.346-18.5-17.346a18.107,18.107,0,0,0-17.346,13.877c-.193-.006-.964,0-1.156,0-10.051,0-18.5,7.3-18.5,17.346a18.723,18.723,0,0,0,18.5,18.5h37.006c.256,0-.23.078,0,0a15.252,15.252,0,0,0,9.251-4.626c2.516-2.738,4.626-6.687,4.626-10.408S338.788,52.453,336.272,49.715Z" transform="translate(536.06 62.726)" fill="#e1dee1"/>
        <path id="Path_17-11" data-name="Path 17" d="M333.959,107.458c-.23.078.256,0,0,0H296.953a18.723,18.723,0,0,1-18.5-18.5,18.061,18.061,0,0,1,1.156-5.782,18.33,18.33,0,0,0,10.408,33.537h37.006c.256,0-.23.078,0,0a15.252,15.252,0,0,0,9.251-4.626,16.883,16.883,0,0,0,3.469-6.939A16.038,16.038,0,0,1,333.959,107.458Z" transform="translate(536.06 20.017)" fill="#c2bec4"/>
        <path id="Path_18-11" data-name="Path 18" d="M113.83,166.979c-2.094,0-3.754-.4-5.782,0a26.686,26.686,0,0,0,1.156-9.251,30.424,30.424,0,0,0-30.067-30.067c-15.384,0-27.49,12.736-28.911,27.754-3.717-1.159-7.62-2.313-11.564-2.313C17.3,153.1.5,171.063.5,192.421a37.808,37.808,0,0,0,38.162,38.162H113.83a32.765,32.765,0,0,0,32.38-32.38C146.211,180.614,131.419,166.979,113.83,166.979Z" transform="translate(730.747 -11.75)" fill="#f0eff0"/>
        <path id="Path_19-11" data-name="Path 19" d="M123.082,307.158H47.914C26.556,307.158,8.6,290.354,8.6,269c0-4.978,1.751-10.658,3.469-15.034C4.806,261.006.5,271.984.5,282.873a37.808,37.808,0,0,0,38.162,38.162H113.83c14.013,0,25.8-9.384,30.067-21.972A31.11,31.11,0,0,1,123.082,307.158Z" transform="translate(730.747 -102.202)" fill="#d1ced3"/>
      </g>
      <g id="Group_105" data-name="Group 105" transform="translate(1776.042 -728.833)">
        <path id="Path_14-11" data-name="Path 14" d="M50.227,93.2c-.193,0-.964-.006-1.156,0C47.029,85.269,40.1,80.482,31.724,80.482c-10.051,0-18.5,7.3-18.5,17.346a18.819,18.819,0,0,0,0,2.313h0c-.256,0,.23-.078,0,0a15.251,15.251,0,0,0-9.251,4.626C1.453,107.5.5,111.454.5,115.175s.953,7.67,3.469,10.408a15.252,15.252,0,0,0,9.251,4.626c.23.078-.256,0,0,0H50.227a18.5,18.5,0,1,0,0-37.006Z" transform="translate(730.747 22.708)" fill="#e1dee1"/>
        <path id="Path_15-11" data-name="Path 15" d="M55.009,182.636H18c-.256,0,.23.078,0,0a15.251,15.251,0,0,1-9.251-4.626c-2.516-2.738-4.626-6.687-4.626-10.408,0-.557,1.095-.609,1.156-1.156-.258.243-.915-.263-1.156,0C1.61,169.184-.5,173.133-.5,176.854s2.11,7.67,4.626,10.408a15.252,15.252,0,0,0,9.251,4.626c.23.078-.256,0,0,0H50.383c8.94,0,15.807-6.531,17.346-15.034A16.7,16.7,0,0,1,55.009,182.636Z" transform="translate(730.591 -38.971)" fill="#c2bec4"/>
        <path id="Path_16-12" data-name="Path 16" d="M336.272,49.715a15.251,15.251,0,0,0-9.251-4.626c-.23-.078.256-1.156,0-1.156h0a18.817,18.817,0,0,0,0-2.313c0-10.051-8.452-17.346-18.5-17.346a18.107,18.107,0,0,0-17.346,13.877c-.193-.006-.964,0-1.156,0-10.051,0-18.5,7.3-18.5,17.346a18.723,18.723,0,0,0,18.5,18.5h37.006c.256,0-.23.078,0,0a15.252,15.252,0,0,0,9.251-4.626c2.516-2.738,4.626-6.687,4.626-10.408S338.788,52.453,336.272,49.715Z" transform="translate(536.06 62.726)" fill="#e1dee1"/>
        <path id="Path_17-12" data-name="Path 17" d="M333.959,107.458c-.23.078.256,0,0,0H296.953a18.723,18.723,0,0,1-18.5-18.5,18.061,18.061,0,0,1,1.156-5.782,18.33,18.33,0,0,0,10.408,33.537h37.006c.256,0-.23.078,0,0a15.252,15.252,0,0,0,9.251-4.626,16.883,16.883,0,0,0,3.469-6.939A16.038,16.038,0,0,1,333.959,107.458Z" transform="translate(536.06 20.017)" fill="#c2bec4"/>
        <path id="Path_18-12" data-name="Path 18" d="M113.83,166.979c-2.094,0-3.754-.4-5.782,0a26.686,26.686,0,0,0,1.156-9.251,30.424,30.424,0,0,0-30.067-30.067c-15.384,0-27.49,12.736-28.911,27.754-3.717-1.159-7.62-2.313-11.564-2.313C17.3,153.1.5,171.063.5,192.421a37.808,37.808,0,0,0,38.162,38.162H113.83a32.765,32.765,0,0,0,32.38-32.38C146.211,180.614,131.419,166.979,113.83,166.979Z" transform="translate(730.747 -11.75)" fill="#f0eff0"/>
        <path id="Path_19-12" data-name="Path 19" d="M123.082,307.158H47.914C26.556,307.158,8.6,290.354,8.6,269c0-4.978,1.751-10.658,3.469-15.034C4.806,261.006.5,271.984.5,282.873a37.808,37.808,0,0,0,38.162,38.162H113.83c14.013,0,25.8-9.384,30.067-21.972A31.11,31.11,0,0,1,123.082,307.158Z" transform="translate(730.747 -102.202)" fill="#d1ced3"/>
      </g>
      <g id="Group_103" data-name="Group 103" transform="translate(449.042 -672.833)">
        <path id="Path_14-12" data-name="Path 14" d="M50.227,93.2c-.193,0-.964-.006-1.156,0C47.029,85.269,40.1,80.482,31.724,80.482c-10.051,0-18.5,7.3-18.5,17.346a18.819,18.819,0,0,0,0,2.313h0c-.256,0,.23-.078,0,0a15.251,15.251,0,0,0-9.251,4.626C1.453,107.5.5,111.454.5,115.175s.953,7.67,3.469,10.408a15.252,15.252,0,0,0,9.251,4.626c.23.078-.256,0,0,0H50.227a18.5,18.5,0,1,0,0-37.006Z" transform="translate(730.747 22.708)" fill="#e1dee1"/>
        <path id="Path_15-12" data-name="Path 15" d="M55.009,182.636H18c-.256,0,.23.078,0,0a15.251,15.251,0,0,1-9.251-4.626c-2.516-2.738-4.626-6.687-4.626-10.408,0-.557,1.095-.609,1.156-1.156-.258.243-.915-.263-1.156,0C1.61,169.184-.5,173.133-.5,176.854s2.11,7.67,4.626,10.408a15.252,15.252,0,0,0,9.251,4.626c.23.078-.256,0,0,0H50.383c8.94,0,15.807-6.531,17.346-15.034A16.7,16.7,0,0,1,55.009,182.636Z" transform="translate(730.591 -38.971)" fill="#c2bec4"/>
        <path id="Path_16-13" data-name="Path 16" d="M336.272,49.715a15.251,15.251,0,0,0-9.251-4.626c-.23-.078.256-1.156,0-1.156h0a18.817,18.817,0,0,0,0-2.313c0-10.051-8.452-17.346-18.5-17.346a18.107,18.107,0,0,0-17.346,13.877c-.193-.006-.964,0-1.156,0-10.051,0-18.5,7.3-18.5,17.346a18.723,18.723,0,0,0,18.5,18.5h37.006c.256,0-.23.078,0,0a15.252,15.252,0,0,0,9.251-4.626c2.516-2.738,4.626-6.687,4.626-10.408S338.788,52.453,336.272,49.715Z" transform="translate(536.06 62.726)" fill="#e1dee1"/>
        <path id="Path_17-13" data-name="Path 17" d="M333.959,107.458c-.23.078.256,0,0,0H296.953a18.723,18.723,0,0,1-18.5-18.5,18.061,18.061,0,0,1,1.156-5.782,18.33,18.33,0,0,0,10.408,33.537h37.006c.256,0-.23.078,0,0a15.252,15.252,0,0,0,9.251-4.626,16.883,16.883,0,0,0,3.469-6.939A16.038,16.038,0,0,1,333.959,107.458Z" transform="translate(536.06 20.017)" fill="#c2bec4"/>
        <path id="Path_18-13" data-name="Path 18" d="M113.83,166.979c-2.094,0-3.754-.4-5.782,0a26.686,26.686,0,0,0,1.156-9.251,30.424,30.424,0,0,0-30.067-30.067c-15.384,0-27.49,12.736-28.911,27.754-3.717-1.159-7.62-2.313-11.564-2.313C17.3,153.1.5,171.063.5,192.421a37.808,37.808,0,0,0,38.162,38.162H113.83a32.765,32.765,0,0,0,32.38-32.38C146.211,180.614,131.419,166.979,113.83,166.979Z" transform="translate(730.747 -11.75)" fill="#f0eff0"/>
        <path id="Path_19-13" data-name="Path 19" d="M123.082,307.158H47.914C26.556,307.158,8.6,290.354,8.6,269c0-4.978,1.751-10.658,3.469-15.034C4.806,261.006.5,271.984.5,282.873a37.808,37.808,0,0,0,38.162,38.162H113.83c14.013,0,25.8-9.384,30.067-21.972A31.11,31.11,0,0,1,123.082,307.158Z" transform="translate(730.747 -102.202)" fill="#d1ced3"/>
      </g>
      <g id="Group_99" data-name="Group 99" transform="translate(40.909 -432)">
        <path id="Path_14-13" data-name="Path 14" d="M43.5,91.482c-.166,0-.834-.005-1,0-1.765-6.861-7.76-11-15-11-8.691,0-16,6.309-16,15a16.273,16.273,0,0,0,0,2h0c-.221,0,.2-.067,0,0a13.188,13.188,0,0,0-8,4c-2.176,2.367-3,5.783-3,9s.824,6.633,3,9a13.189,13.189,0,0,0,8,4c.2.067-.221,0,0,0h32a16,16,0,0,0,0-32Z" transform="translate(730.591 20.518)" fill="#e1dee1"/>
        <path id="Path_15-13" data-name="Path 15" d="M47.5,180.435h-32c-.221,0,.2.067,0,0a13.188,13.188,0,0,1-8-4c-2.176-2.367-4-5.783-4-9,0-.482.947-.526,1-1-.223.21-.791-.227-1,0-2.176,2.367-4,5.783-4,9s1.824,6.633,4,9a13.189,13.189,0,0,0,8,4c.2.067-.221,0,0,0h32c7.73,0,13.669-5.648,15-13A14.44,14.44,0,0,1,47.5,180.435Z" transform="translate(730.591 -44.435)" fill="#c2bec4"/>
        <path id="Path_16-14" data-name="Path 16" d="M327.512,46.274a13.188,13.188,0,0,0-8-4c-.2-.067.221-1,0-1h0a16.269,16.269,0,0,0,0-2c0-8.691-7.309-15-16-15a15.658,15.658,0,0,0-15,12c-.167-.005-.833,0-1,0-8.691,0-16,6.309-16,15a16.19,16.19,0,0,0,16,16h32c.221,0-.2.067,0,0a13.189,13.189,0,0,0,8-4c2.176-2.367,4-5.783,4-9S329.688,48.641,327.512,46.274Z" transform="translate(525.579 62.726)" fill="#e1dee1"/>
        <path id="Path_17-14" data-name="Path 17" d="M325.512,104.173c-.2.067.221,0,0,0h-32a16.19,16.19,0,0,1-16-16,15.618,15.618,0,0,1,1-5,15.851,15.851,0,0,0,9,29h32c.221,0-.2.067,0,0a13.189,13.189,0,0,0,8-4,14.6,14.6,0,0,0,3-6A13.869,13.869,0,0,1,325.512,104.173Z" transform="translate(525.579 17.827)" fill="#c2bec4"/>
        <path id="Path_18-14" data-name="Path 18" d="M98.5,161.661c-1.811,0-3.246-.345-5,0a23.076,23.076,0,0,0,1-8,26.309,26.309,0,0,0-26-26c-13.3,0-23.772,11.013-25,24a34.132,34.132,0,0,0-10-2c-18.469,0-33,15.531-33,34a32.693,32.693,0,0,0,33,33h65a28.332,28.332,0,0,0,28-28C126.5,173.451,113.709,161.661,98.5,161.661Z" transform="translate(730.591 -15.661)" fill="#f0eff0"/>
        <path id="Path_19-14" data-name="Path 19" d="M106.5,299.962h-65c-18.469,0-34-14.531-34-33,0-4.3,1.514-9.216,3-13-6.276,6.091-10,15.584-10,25a32.693,32.693,0,0,0,33,33h65a27.7,27.7,0,0,0,26-19A26.9,26.9,0,0,1,106.5,299.962Z" transform="translate(730.591 -110.962)" fill="#d1ced3"/>
      </g>
      <g id="Group_95" data-name="Group 95" transform="translate(1263.362 -507)">
        <path id="Path_14-14" data-name="Path 14" d="M23.936,86.593c-.092,0,.092,0,0,0A8.218,8.218,0,0,0,15.6,80.482c-4.828,0-8.889,3.5-8.889,8.333a9.041,9.041,0,0,0,0,1.111h0a2.752,2.752,0,0,0-.556,0,7.327,7.327,0,0,0-4.444,2.222,8.333,8.333,0,0,0,0,10,7.327,7.327,0,0,0,4.444,2.222,2.752,2.752,0,0,0,.556,0H23.936a8.889,8.889,0,0,0,0-17.778Z" transform="translate(730.591 14.296)" fill="#e1dee1"/>
        <path id="Path_15-14" data-name="Path 15" d="M26.159,174.183H8.936a2.75,2.75,0,0,1-.556,0,7.327,7.327,0,0,1-4.444-2.222,7.387,7.387,0,0,1-1.667-5,3.487,3.487,0,0,1,0-.556c-.124.117-.44-.126-.556,0a8.333,8.333,0,0,0,0,10,7.327,7.327,0,0,0,4.444,2.222,2.752,2.752,0,0,0,.556,0H23.936a9.093,9.093,0,0,0,8.889-7.222A9.249,9.249,0,0,1,26.159,174.183Z" transform="translate(730.591 -59.961)" fill="#c2bec4"/>
        <path id="Path_16-15" data-name="Path 16" d="M303.171,36.5a7.327,7.327,0,0,0-4.444-2.222c-.11-.037-.433-.556-.556-.556h0a9.047,9.047,0,0,0,0-1.111c0-4.828-4.06-8.333-8.889-8.333a8.7,8.7,0,0,0-8.333,6.667c-.093,0,.092,0,0,0-4.828,0-8.889,3.5-8.889,8.333a8.994,8.994,0,0,0,8.889,8.889h17.222a2.751,2.751,0,0,0,.556,0,6.69,6.69,0,0,0,6.111-7.222A6.031,6.031,0,0,0,303.171,36.5Z" transform="translate(495.801 62.726)" fill="#e1dee1"/>
        <path id="Path_17-15" data-name="Path 17" d="M302.059,94.839a2.75,2.75,0,0,1-.556,0H284.282a8.994,8.994,0,0,1-8.889-8.889,8.676,8.676,0,0,1,.556-2.778,8.806,8.806,0,0,0,5,16.111h17.222a2.75,2.75,0,0,0,.556,0,7.327,7.327,0,0,0,4.444-2.222,8.111,8.111,0,0,0,1.667-3.333A7.7,7.7,0,0,1,302.059,94.839Z" transform="translate(495.801 11.605)" fill="#c2bec4"/>
        <path id="Path_18-15" data-name="Path 18" d="M54.492,146.549a13.443,13.443,0,0,0-2.778,0,13.4,13.4,0,0,0,1.111-4.444,14.616,14.616,0,0,0-14.444-14.444,14.922,14.922,0,0,0-14.444,13.333,18.962,18.962,0,0,0-5.556-1.111c-10.26,0-18.333,8.628-18.333,18.889A18.163,18.163,0,0,0,18.381,177.1H54.492a15.74,15.74,0,0,0,15.556-15.556C70.047,153.1,62.942,146.549,54.492,146.549Z" transform="translate(730.591 -26.772)" fill="#f0eff0"/>
        <path id="Path_19-15" data-name="Path 19" d="M58.936,279.518H22.825A18.163,18.163,0,0,1,4.492,261.185,20.859,20.859,0,0,1,5.6,253.962,19.739,19.739,0,0,0,.047,267.851a18.163,18.163,0,0,0,18.333,18.333H54.492a16.11,16.11,0,0,0,15-10.556A16.4,16.4,0,0,1,58.936,279.518Z" transform="translate(730.591 -135.851)" fill="#d1ced3"/>
      </g>
      <g id="Group_96" data-name="Group 96" transform="translate(1011.362 -628.667)">
        <path id="Path_14-15" data-name="Path 14" d="M23.936,86.593c-.092,0,.092,0,0,0A8.218,8.218,0,0,0,15.6,80.482c-4.828,0-8.889,3.5-8.889,8.333a9.041,9.041,0,0,0,0,1.111h0a2.752,2.752,0,0,0-.556,0,7.327,7.327,0,0,0-4.444,2.222,8.333,8.333,0,0,0,0,10,7.327,7.327,0,0,0,4.444,2.222,2.752,2.752,0,0,0,.556,0H23.936a8.889,8.889,0,0,0,0-17.778Z" transform="translate(730.591 14.296)" fill="#e1dee1"/>
        <path id="Path_15-15" data-name="Path 15" d="M26.159,174.183H8.936a2.75,2.75,0,0,1-.556,0,7.327,7.327,0,0,1-4.444-2.222,7.387,7.387,0,0,1-1.667-5,3.487,3.487,0,0,1,0-.556c-.124.117-.44-.126-.556,0a8.333,8.333,0,0,0,0,10,7.327,7.327,0,0,0,4.444,2.222,2.752,2.752,0,0,0,.556,0H23.936a9.093,9.093,0,0,0,8.889-7.222A9.249,9.249,0,0,1,26.159,174.183Z" transform="translate(730.591 -59.961)" fill="#c2bec4"/>
        <path id="Path_16-16" data-name="Path 16" d="M303.171,36.5a7.327,7.327,0,0,0-4.444-2.222c-.11-.037-.433-.556-.556-.556h0a9.047,9.047,0,0,0,0-1.111c0-4.828-4.06-8.333-8.889-8.333a8.7,8.7,0,0,0-8.333,6.667c-.093,0,.092,0,0,0-4.828,0-8.889,3.5-8.889,8.333a8.994,8.994,0,0,0,8.889,8.889h17.222a2.751,2.751,0,0,0,.556,0,6.69,6.69,0,0,0,6.111-7.222A6.031,6.031,0,0,0,303.171,36.5Z" transform="translate(495.801 62.726)" fill="#e1dee1"/>
        <path id="Path_17-16" data-name="Path 17" d="M302.059,94.839a2.75,2.75,0,0,1-.556,0H284.282a8.994,8.994,0,0,1-8.889-8.889,8.676,8.676,0,0,1,.556-2.778,8.806,8.806,0,0,0,5,16.111h17.222a2.75,2.75,0,0,0,.556,0,7.327,7.327,0,0,0,4.444-2.222,8.111,8.111,0,0,0,1.667-3.333A7.7,7.7,0,0,1,302.059,94.839Z" transform="translate(495.801 11.605)" fill="#c2bec4"/>
        <path id="Path_18-16" data-name="Path 18" d="M54.492,146.549a13.443,13.443,0,0,0-2.778,0,13.4,13.4,0,0,0,1.111-4.444,14.616,14.616,0,0,0-14.444-14.444,14.922,14.922,0,0,0-14.444,13.333,18.962,18.962,0,0,0-5.556-1.111c-10.26,0-18.333,8.628-18.333,18.889A18.163,18.163,0,0,0,18.381,177.1H54.492a15.74,15.74,0,0,0,15.556-15.556C70.047,153.1,62.942,146.549,54.492,146.549Z" transform="translate(730.591 -26.772)" fill="#f0eff0"/>
        <path id="Path_19-16" data-name="Path 19" d="M58.936,279.518H22.825A18.163,18.163,0,0,1,4.492,261.185,20.859,20.859,0,0,1,5.6,253.962,19.739,19.739,0,0,0,.047,267.851a18.163,18.163,0,0,0,18.333,18.333H54.492a16.11,16.11,0,0,0,15-10.556A16.4,16.4,0,0,1,58.936,279.518Z" transform="translate(730.591 -135.851)" fill="#d1ced3"/>
      </g>
      <g id="cloudy_1_5" data-name="cloudy (1)" transform="translate(1388.905 -544.137)">
        <path id="Path_14-16" data-name="Path 14" d="M43.095,91.345c-.166,0,.166-.005,0,0-1.765-6.861-8.76-11-16-11-8.691,0-15,6.309-15,15a16.273,16.273,0,0,0,0,2h0a4.952,4.952,0,0,0-1,0c-3,.379-5.942,2.761-8,5a10.857,10.857,0,0,0-3,8c0,3.217.824,6.633,3,9a13.189,13.189,0,0,0,8,4,4.951,4.951,0,0,0,1,0h31a16,16,0,0,0,0-32Z" transform="translate(0 -42.208)" fill="#e1dee1"/>
        <path id="Path_15-16" data-name="Path 15" d="M47.095,180.3h-31a4.95,4.95,0,0,1-1,0,13.188,13.188,0,0,1-8-4c-2.176-2.367-3-5.783-3-9a6.276,6.276,0,0,1,0-1c-.223.21-.791.773-1,1a10.857,10.857,0,0,0-3,8c0,3.217.824,6.633,3,9a13.189,13.189,0,0,0,8,4,4.951,4.951,0,0,0,1,0h31c7.73,0,14.669-5.648,16-13A16.649,16.649,0,0,1,47.095,180.3Z" transform="translate(0 -107.162)" fill="#c2bec4"/>
        <path id="Path_16-17" data-name="Path 16" d="M328.107,46.137a13.188,13.188,0,0,0-8-4,4.951,4.951,0,0,0-1,0h0a16.269,16.269,0,0,0,0-2,16.19,16.19,0,0,0-16-16,15.658,15.658,0,0,0-15,12c-.167-.005.167,0,0,0-8.691,0-16,6.309-16,15a16.19,16.19,0,0,0,16,16h31a4.951,4.951,0,0,0,1,0,13.189,13.189,0,0,0,8-4c2.176-2.367,3-5.783,3-9A10.855,10.855,0,0,0,328.107,46.137Z" transform="translate(-205.012 0)" fill="#e1dee1"/>
        <path id="Path_17-17" data-name="Path 17" d="M326.107,104.036a4.95,4.95,0,0,1-1,0h-31c-8.691,0-16-6.309-16-15a15.618,15.618,0,0,1,1-5c-4.07,2.853-7,6.663-7,12a16.19,16.19,0,0,0,16,16h31a4.951,4.951,0,0,0,1,0,13.189,13.189,0,0,0,8-4,11.112,11.112,0,0,0,3-5C329.619,103.914,327.844,103.816,326.107,104.036Z" transform="translate(-205.012 -44.899)" fill="#c2bec4"/>
        <path id="Path_18-17" data-name="Path 18" d="M98.095,161.524c-1.811,0-3.246-.345-5,0a23.076,23.076,0,0,0,1-8c0-14.123-10.877-26-25-26-13.3,0-24.772,11.013-26,24a34.132,34.132,0,0,0-10-2c-18.469,0-33,15.531-33,34a32.693,32.693,0,0,0,33,33h65c15.209,0,28-11.79,28-27A28.332,28.332,0,0,0,98.095,161.524Z" transform="translate(0 -78.387)" fill="#f0eff0"/>
        <path id="Path_19-17" data-name="Path 19" d="M106.095,299.826h-65a32.693,32.693,0,0,1-33-33,32.091,32.091,0,0,1,2-12,33.177,33.177,0,0,0-10,24,32.693,32.693,0,0,0,33,33h65c12.118,0,23.306-8.115,27-19A29.527,29.527,0,0,1,106.095,299.826Z" transform="translate(0 -173.689)" fill="#d1ced3"/>
      </g>
      <g id="Group_97" data-name="Group 97" transform="translate(494.409 -489.226)">
        <path id="Path_14-17" data-name="Path 14" d="M70,99.37c-.267,0-.733-.008-1,0-2.832-11.009-13.382-19-25-19a24.824,24.824,0,0,0-25,25,22.822,22.822,0,0,0,0,3h0a3.1,3.1,0,0,0-1,0,22.367,22.367,0,0,0-13,7,22.1,22.1,0,0,0,0,28c3.3,3.593,8.193,5.393,13,6a3.1,3.1,0,0,0,1,0H70a25,25,0,1,0,0-50Z" transform="translate(730.591 28.857)" fill="#e1dee1"/>
        <path id="Path_15-17" data-name="Path 15" d="M76,189.491H25c-.355,0-.681-.892-1-1a18.572,18.572,0,0,1-12-6c-3.491-3.8-6-8.837-6-14a15.636,15.636,0,0,1,0-2c-.358.337-.665.635-1,1a22.1,22.1,0,0,0,0,28c3.3,3.593,8.193,5.393,13,6a3.1,3.1,0,0,0,1,0H70c12.4,0,21.864-9.2,24-21C89.377,185.487,83.327,189.491,76,189.491Z" transform="translate(730.591 -23.265)" fill="#c2bec4"/>
        <path id="Path_16-18" data-name="Path 16" d="M361.51,59.5a22.367,22.367,0,0,0-13-7,3.1,3.1,0,0,0-1,0h0a22.812,22.812,0,0,0,0-3c0-13.946-11.054-26-25-26a24.815,24.815,0,0,0-24,19c-.267-.008-.733,0-1,0-13.946,0-26,12.054-26,26s12.054,25,26,25h50a3.1,3.1,0,0,0,1,0,22.368,22.368,0,0,0,13-7,17.955,17.955,0,0,0,5-13A20.363,20.363,0,0,0,361.51,59.5Z" transform="translate(566.08 62.726)" fill="#e1dee1"/>
        <path id="Path_17-18" data-name="Path 17" d="M358.51,116.529a3.1,3.1,0,0,1-1,0h-51a24.824,24.824,0,0,1-25-25,24.619,24.619,0,0,1,1-8,25.962,25.962,0,0,0-11,21c0,13.946,12.054,25,26,25h50a3.1,3.1,0,0,0,1,0,22.368,22.368,0,0,0,13-7c2.327-2.532,4.171-4.728,5-8C364.123,115.937,361.3,116.176,358.51,116.529Z" transform="translate(566.08 26.697)" fill="#c2bec4"/>
        <path id="Path_18-18" data-name="Path 18" d="M158,181.4a48.852,48.852,0,0,0-9,1c1.495-4.315,3-8.4,3-13a41.1,41.1,0,0,0-82-4c-5.158-1.608-10.528-3-16-3a54,54,0,0,0,0,108H158a43.867,43.867,0,0,0,44-44C202,202,182.405,181.4,158,181.4Z" transform="translate(730.591 -0.175)" fill="#f0eff0"/>
        <path id="Path_19-18" data-name="Path 19" d="M171,327.875H66c-29.635,0-53-24.365-53-54,0-6.907.616-12.928,3-19a52.031,52.031,0,0,0-16,38,54.243,54.243,0,0,0,54,54H158a44.37,44.37,0,0,0,42-30A43.265,43.265,0,0,1,171,327.875Z" transform="translate(730.591 -76.649)" fill="#d1ced3"/>
      </g>
      <g id="Group_104" data-name="Group 104" transform="translate(167.409 -875.893)">
        <path id="Path_14-18" data-name="Path 14" d="M70,99.37c-.267,0-.733-.008-1,0-2.832-11.009-13.382-19-25-19a24.824,24.824,0,0,0-25,25,22.822,22.822,0,0,0,0,3h0a3.1,3.1,0,0,0-1,0,22.367,22.367,0,0,0-13,7,22.1,22.1,0,0,0,0,28c3.3,3.593,8.193,5.393,13,6a3.1,3.1,0,0,0,1,0H70a25,25,0,1,0,0-50Z" transform="translate(730.591 28.857)" fill="#e1dee1"/>
        <path id="Path_15-18" data-name="Path 15" d="M76,189.491H25c-.355,0-.681-.892-1-1a18.572,18.572,0,0,1-12-6c-3.491-3.8-6-8.837-6-14a15.636,15.636,0,0,1,0-2c-.358.337-.665.635-1,1a22.1,22.1,0,0,0,0,28c3.3,3.593,8.193,5.393,13,6a3.1,3.1,0,0,0,1,0H70c12.4,0,21.864-9.2,24-21C89.377,185.487,83.327,189.491,76,189.491Z" transform="translate(730.591 -23.265)" fill="#c2bec4"/>
        <path id="Path_16-19" data-name="Path 16" d="M361.51,59.5a22.367,22.367,0,0,0-13-7,3.1,3.1,0,0,0-1,0h0a22.812,22.812,0,0,0,0-3c0-13.946-11.054-26-25-26a24.815,24.815,0,0,0-24,19c-.267-.008-.733,0-1,0-13.946,0-26,12.054-26,26s12.054,25,26,25h50a3.1,3.1,0,0,0,1,0,22.368,22.368,0,0,0,13-7,17.955,17.955,0,0,0,5-13A20.363,20.363,0,0,0,361.51,59.5Z" transform="translate(566.08 62.726)" fill="#e1dee1"/>
        <path id="Path_17-19" data-name="Path 17" d="M358.51,116.529a3.1,3.1,0,0,1-1,0h-51a24.824,24.824,0,0,1-25-25,24.619,24.619,0,0,1,1-8,25.962,25.962,0,0,0-11,21c0,13.946,12.054,25,26,25h50a3.1,3.1,0,0,0,1,0,22.368,22.368,0,0,0,13-7c2.327-2.532,4.171-4.728,5-8C364.123,115.937,361.3,116.176,358.51,116.529Z" transform="translate(566.08 26.697)" fill="#c2bec4"/>
        <path id="Path_18-19" data-name="Path 18" d="M158,181.4a48.852,48.852,0,0,0-9,1c1.495-4.315,3-8.4,3-13a41.1,41.1,0,0,0-82-4c-5.158-1.608-10.528-3-16-3a54,54,0,0,0,0,108H158a43.867,43.867,0,0,0,44-44C202,202,182.405,181.4,158,181.4Z" transform="translate(730.591 -0.175)" fill="#f0eff0"/>
        <path id="Path_19-19" data-name="Path 19" d="M171,327.875H66c-29.635,0-53-24.365-53-54,0-6.907.616-12.928,3-19a52.031,52.031,0,0,0-16,38,54.243,54.243,0,0,0,54,54H158a44.37,44.37,0,0,0,42-30A43.265,43.265,0,0,1,171,327.875Z" transform="translate(730.591 -76.649)" fill="#d1ced3"/>
      </g>
      <g id="Group_100" data-name="Group 100" transform="translate(1355.409 -632.226)">
        <path id="Path_14-19" data-name="Path 14" d="M70,99.37c-.267,0-.733-.008-1,0-2.832-11.009-13.382-19-25-19a24.824,24.824,0,0,0-25,25,22.822,22.822,0,0,0,0,3h0a3.1,3.1,0,0,0-1,0,22.367,22.367,0,0,0-13,7,22.1,22.1,0,0,0,0,28c3.3,3.593,8.193,5.393,13,6a3.1,3.1,0,0,0,1,0H70a25,25,0,1,0,0-50Z" transform="translate(730.591 28.857)" fill="#e1dee1"/>
        <path id="Path_15-19" data-name="Path 15" d="M76,189.491H25c-.355,0-.681-.892-1-1a18.572,18.572,0,0,1-12-6c-3.491-3.8-6-8.837-6-14a15.636,15.636,0,0,1,0-2c-.358.337-.665.635-1,1a22.1,22.1,0,0,0,0,28c3.3,3.593,8.193,5.393,13,6a3.1,3.1,0,0,0,1,0H70c12.4,0,21.864-9.2,24-21C89.377,185.487,83.327,189.491,76,189.491Z" transform="translate(730.591 -23.265)" fill="#c2bec4"/>
        <path id="Path_16-20" data-name="Path 16" d="M361.51,59.5a22.367,22.367,0,0,0-13-7,3.1,3.1,0,0,0-1,0h0a22.812,22.812,0,0,0,0-3c0-13.946-11.054-26-25-26a24.815,24.815,0,0,0-24,19c-.267-.008-.733,0-1,0-13.946,0-26,12.054-26,26s12.054,25,26,25h50a3.1,3.1,0,0,0,1,0,22.368,22.368,0,0,0,13-7,17.955,17.955,0,0,0,5-13A20.363,20.363,0,0,0,361.51,59.5Z" transform="translate(566.08 62.726)" fill="#e1dee1"/>
        <path id="Path_17-20" data-name="Path 17" d="M358.51,116.529a3.1,3.1,0,0,1-1,0h-51a24.824,24.824,0,0,1-25-25,24.619,24.619,0,0,1,1-8,25.962,25.962,0,0,0-11,21c0,13.946,12.054,25,26,25h50a3.1,3.1,0,0,0,1,0,22.368,22.368,0,0,0,13-7c2.327-2.532,4.171-4.728,5-8C364.123,115.937,361.3,116.176,358.51,116.529Z" transform="translate(566.08 26.697)" fill="#c2bec4"/>
        <path id="Path_18-20" data-name="Path 18" d="M158,181.4a48.852,48.852,0,0,0-9,1c1.495-4.315,3-8.4,3-13a41.1,41.1,0,0,0-82-4c-5.158-1.608-10.528-3-16-3a54,54,0,0,0,0,108H158a43.867,43.867,0,0,0,44-44C202,202,182.405,181.4,158,181.4Z" transform="translate(730.591 -0.175)" fill="#f0eff0"/>
        <path id="Path_19-20" data-name="Path 19" d="M171,327.875H66c-29.635,0-53-24.365-53-54,0-6.907.616-12.928,3-19a52.031,52.031,0,0,0-16,38,54.243,54.243,0,0,0,54,54H158a44.37,44.37,0,0,0,42-30A43.265,43.265,0,0,1,171,327.875Z" transform="translate(730.591 -76.649)" fill="#d1ced3"/>
      </g>
      <g id="Group_106" data-name="Group 106" transform="translate(1848.976 -967.893)">
        <path id="Path_14-20" data-name="Path 14" d="M70,99.37c-.267,0-.733-.008-1,0-2.832-11.009-13.382-19-25-19a24.824,24.824,0,0,0-25,25,22.822,22.822,0,0,0,0,3h0a3.1,3.1,0,0,0-1,0,22.367,22.367,0,0,0-13,7,22.1,22.1,0,0,0,0,28c3.3,3.593,8.193,5.393,13,6a3.1,3.1,0,0,0,1,0H70a25,25,0,1,0,0-50Z" transform="translate(730.591 28.857)" fill="#e1dee1"/>
        <path id="Path_15-20" data-name="Path 15" d="M76,189.491H25c-.355,0-.681-.892-1-1a18.572,18.572,0,0,1-12-6c-3.491-3.8-6-8.837-6-14a15.636,15.636,0,0,1,0-2c-.358.337-.665.635-1,1a22.1,22.1,0,0,0,0,28c3.3,3.593,8.193,5.393,13,6a3.1,3.1,0,0,0,1,0H70c12.4,0,21.864-9.2,24-21C89.377,185.487,83.327,189.491,76,189.491Z" transform="translate(730.591 -23.265)" fill="#c2bec4"/>
        <path id="Path_16-21" data-name="Path 16" d="M361.51,59.5a22.367,22.367,0,0,0-13-7,3.1,3.1,0,0,0-1,0h0a22.812,22.812,0,0,0,0-3c0-13.946-11.054-26-25-26a24.815,24.815,0,0,0-24,19c-.267-.008-.733,0-1,0-13.946,0-26,12.054-26,26s12.054,25,26,25h50a3.1,3.1,0,0,0,1,0,22.368,22.368,0,0,0,13-7,17.955,17.955,0,0,0,5-13A20.363,20.363,0,0,0,361.51,59.5Z" transform="translate(566.08 62.726)" fill="#e1dee1"/>
        <path id="Path_17-21" data-name="Path 17" d="M358.51,116.529a3.1,3.1,0,0,1-1,0h-51a24.824,24.824,0,0,1-25-25,24.619,24.619,0,0,1,1-8,25.962,25.962,0,0,0-11,21c0,13.946,12.054,25,26,25h50a3.1,3.1,0,0,0,1,0,22.368,22.368,0,0,0,13-7c2.327-2.532,4.171-4.728,5-8C364.123,115.937,361.3,116.176,358.51,116.529Z" transform="translate(566.08 26.697)" fill="#c2bec4"/>
        <path id="Path_18-21" data-name="Path 18" d="M158,181.4a48.852,48.852,0,0,0-9,1c1.495-4.315,3-8.4,3-13a41.1,41.1,0,0,0-82-4c-5.158-1.608-10.528-3-16-3a54,54,0,0,0,0,108H158a43.867,43.867,0,0,0,44-44C202,202,182.405,181.4,158,181.4Z" transform="translate(730.591 -0.175)" fill="#f0eff0"/>
        <path id="Path_19-21" data-name="Path 19" d="M171,327.875H66c-29.635,0-53-24.365-53-54,0-6.907.616-12.928,3-19a52.031,52.031,0,0,0-16,38,54.243,54.243,0,0,0,54,54H158a44.37,44.37,0,0,0,42-30A43.265,43.265,0,0,1,171,327.875Z" transform="translate(730.591 -76.649)" fill="#d1ced3"/>
      </g>
      <g id="Group_108" data-name="Group 108" transform="translate(1454.543 -837.226)">
        <path id="Path_14-21" data-name="Path 14" d="M70,99.37c-.267,0-.733-.008-1,0-2.832-11.009-13.382-19-25-19a24.824,24.824,0,0,0-25,25,22.822,22.822,0,0,0,0,3h0a3.1,3.1,0,0,0-1,0,22.367,22.367,0,0,0-13,7,22.1,22.1,0,0,0,0,28c3.3,3.593,8.193,5.393,13,6a3.1,3.1,0,0,0,1,0H70a25,25,0,1,0,0-50Z" transform="translate(730.591 28.857)" fill="#e1dee1"/>
        <path id="Path_15-21" data-name="Path 15" d="M76,189.491H25c-.355,0-.681-.892-1-1a18.572,18.572,0,0,1-12-6c-3.491-3.8-6-8.837-6-14a15.636,15.636,0,0,1,0-2c-.358.337-.665.635-1,1a22.1,22.1,0,0,0,0,28c3.3,3.593,8.193,5.393,13,6a3.1,3.1,0,0,0,1,0H70c12.4,0,21.864-9.2,24-21C89.377,185.487,83.327,189.491,76,189.491Z" transform="translate(730.591 -23.265)" fill="#c2bec4"/>
        <path id="Path_16-22" data-name="Path 16" d="M361.51,59.5a22.367,22.367,0,0,0-13-7,3.1,3.1,0,0,0-1,0h0a22.812,22.812,0,0,0,0-3c0-13.946-11.054-26-25-26a24.815,24.815,0,0,0-24,19c-.267-.008-.733,0-1,0-13.946,0-26,12.054-26,26s12.054,25,26,25h50a3.1,3.1,0,0,0,1,0,22.368,22.368,0,0,0,13-7,17.955,17.955,0,0,0,5-13A20.363,20.363,0,0,0,361.51,59.5Z" transform="translate(566.08 62.726)" fill="#e1dee1"/>
        <path id="Path_17-22" data-name="Path 17" d="M358.51,116.529a3.1,3.1,0,0,1-1,0h-51a24.824,24.824,0,0,1-25-25,24.619,24.619,0,0,1,1-8,25.962,25.962,0,0,0-11,21c0,13.946,12.054,25,26,25h50a3.1,3.1,0,0,0,1,0,22.368,22.368,0,0,0,13-7c2.327-2.532,4.171-4.728,5-8C364.123,115.937,361.3,116.176,358.51,116.529Z" transform="translate(566.08 26.697)" fill="#c2bec4"/>
        <path id="Path_18-22" data-name="Path 18" d="M158,181.4a48.852,48.852,0,0,0-9,1c1.495-4.315,3-8.4,3-13a41.1,41.1,0,0,0-82-4c-5.158-1.608-10.528-3-16-3a54,54,0,0,0,0,108H158a43.867,43.867,0,0,0,44-44C202,202,182.405,181.4,158,181.4Z" transform="translate(730.591 -0.175)" fill="#f0eff0"/>
        <path id="Path_19-22" data-name="Path 19" d="M171,327.875H66c-29.635,0-53-24.365-53-54,0-6.907.616-12.928,3-19a52.031,52.031,0,0,0-16,38,54.243,54.243,0,0,0,54,54H158a44.37,44.37,0,0,0,42-30A43.265,43.265,0,0,1,171,327.875Z" transform="translate(730.591 -76.649)" fill="#d1ced3"/>
      </g>
      <g id="Group_102" data-name="Group 102" transform="translate(683.41 -811.893)">
        <path id="Path_14-22" data-name="Path 14" d="M70,99.37c-.267,0-.733-.008-1,0-2.832-11.009-13.382-19-25-19a24.824,24.824,0,0,0-25,25,22.822,22.822,0,0,0,0,3h0a3.1,3.1,0,0,0-1,0,22.367,22.367,0,0,0-13,7,22.1,22.1,0,0,0,0,28c3.3,3.593,8.193,5.393,13,6a3.1,3.1,0,0,0,1,0H70a25,25,0,1,0,0-50Z" transform="translate(730.591 28.857)" fill="#e1dee1"/>
        <path id="Path_15-22" data-name="Path 15" d="M76,189.491H25c-.355,0-.681-.892-1-1a18.572,18.572,0,0,1-12-6c-3.491-3.8-6-8.837-6-14a15.636,15.636,0,0,1,0-2c-.358.337-.665.635-1,1a22.1,22.1,0,0,0,0,28c3.3,3.593,8.193,5.393,13,6a3.1,3.1,0,0,0,1,0H70c12.4,0,21.864-9.2,24-21C89.377,185.487,83.327,189.491,76,189.491Z" transform="translate(730.591 -23.265)" fill="#c2bec4"/>
        <path id="Path_16-23" data-name="Path 16" d="M361.51,59.5a22.367,22.367,0,0,0-13-7,3.1,3.1,0,0,0-1,0h0a22.812,22.812,0,0,0,0-3c0-13.946-11.054-26-25-26a24.815,24.815,0,0,0-24,19c-.267-.008-.733,0-1,0-13.946,0-26,12.054-26,26s12.054,25,26,25h50a3.1,3.1,0,0,0,1,0,22.368,22.368,0,0,0,13-7,17.955,17.955,0,0,0,5-13A20.363,20.363,0,0,0,361.51,59.5Z" transform="translate(566.08 62.726)" fill="#e1dee1"/>
        <path id="Path_17-23" data-name="Path 17" d="M358.51,116.529a3.1,3.1,0,0,1-1,0h-51a24.824,24.824,0,0,1-25-25,24.619,24.619,0,0,1,1-8,25.962,25.962,0,0,0-11,21c0,13.946,12.054,25,26,25h50a3.1,3.1,0,0,0,1,0,22.368,22.368,0,0,0,13-7c2.327-2.532,4.171-4.728,5-8C364.123,115.937,361.3,116.176,358.51,116.529Z" transform="translate(566.08 26.697)" fill="#c2bec4"/>
        <path id="Path_18-23" data-name="Path 18" d="M158,181.4a48.852,48.852,0,0,0-9,1c1.495-4.315,3-8.4,3-13a41.1,41.1,0,0,0-82-4c-5.158-1.608-10.528-3-16-3a54,54,0,0,0,0,108H158a43.867,43.867,0,0,0,44-44C202,202,182.405,181.4,158,181.4Z" transform="translate(730.591 -0.175)" fill="#f0eff0"/>
        <path id="Path_19-23" data-name="Path 19" d="M171,327.875H66c-29.635,0-53-24.365-53-54,0-6.907.616-12.928,3-19a52.031,52.031,0,0,0-16,38,54.243,54.243,0,0,0,54,54H158a44.37,44.37,0,0,0,42-30A43.265,43.265,0,0,1,171,327.875Z" transform="translate(730.591 -76.649)" fill="#d1ced3"/>
      </g>
    </g>
  </g>
</svg>
