<svg xmlns="http://www.w3.org/2000/svg" width="70" height="63.333" viewBox="0 0 70 63.333">
  <g id="Group_21" data-name="Group 21" transform="translate(-730.638 -87)">
    <path id="Path_14" data-name="Path 14" d="M23.936,86.593c-.092,0,.092,0,0,0A8.218,8.218,0,0,0,15.6,80.482c-4.828,0-8.889,3.5-8.889,8.333a9.041,9.041,0,0,0,0,1.111h0a2.752,2.752,0,0,0-.556,0,7.327,7.327,0,0,0-4.444,2.222,8.333,8.333,0,0,0,0,10,7.327,7.327,0,0,0,4.444,2.222,2.752,2.752,0,0,0,.556,0H23.936a8.889,8.889,0,0,0,0-17.778Z" transform="translate(730.591 14.296)" fill="#e1dee1"/>
    <path id="Path_15" data-name="Path 15" d="M26.159,174.183H8.936a2.75,2.75,0,0,1-.556,0,7.327,7.327,0,0,1-4.444-2.222,7.387,7.387,0,0,1-1.667-5,3.487,3.487,0,0,1,0-.556c-.124.117-.44-.126-.556,0a8.333,8.333,0,0,0,0,10,7.327,7.327,0,0,0,4.444,2.222,2.752,2.752,0,0,0,.556,0H23.936a9.093,9.093,0,0,0,8.889-7.222A9.249,9.249,0,0,1,26.159,174.183Z" transform="translate(730.591 -59.961)" fill="#c2bec4"/>
    <path id="Path_16" data-name="Path 16" d="M303.171,36.5a7.327,7.327,0,0,0-4.444-2.222c-.11-.037-.433-.556-.556-.556h0a9.047,9.047,0,0,0,0-1.111c0-4.828-4.06-8.333-8.889-8.333a8.7,8.7,0,0,0-8.333,6.667c-.093,0,.092,0,0,0-4.828,0-8.889,3.5-8.889,8.333a8.994,8.994,0,0,0,8.889,8.889h17.222a2.751,2.751,0,0,0,.556,0,6.69,6.69,0,0,0,6.111-7.222A6.031,6.031,0,0,0,303.171,36.5Z" transform="translate(495.801 62.726)" fill="#e1dee1"/>
    <path id="Path_17" data-name="Path 17" d="M302.059,94.839a2.75,2.75,0,0,1-.556,0H284.282a8.994,8.994,0,0,1-8.889-8.889,8.676,8.676,0,0,1,.556-2.778,8.806,8.806,0,0,0,5,16.111h17.222a2.75,2.75,0,0,0,.556,0,7.327,7.327,0,0,0,4.444-2.222,8.111,8.111,0,0,0,1.667-3.333A7.7,7.7,0,0,1,302.059,94.839Z" transform="translate(495.801 11.605)" fill="#c2bec4"/>
    <path id="Path_18" data-name="Path 18" d="M54.492,146.549a13.443,13.443,0,0,0-2.778,0,13.4,13.4,0,0,0,1.111-4.444,14.616,14.616,0,0,0-14.444-14.444,14.922,14.922,0,0,0-14.444,13.333,18.962,18.962,0,0,0-5.556-1.111c-10.26,0-18.333,8.628-18.333,18.889A18.163,18.163,0,0,0,18.381,177.1H54.492a15.74,15.74,0,0,0,15.556-15.556C70.047,153.1,62.942,146.549,54.492,146.549Z" transform="translate(730.591 -26.772)" fill="#f0eff0"/>
    <path id="Path_19" data-name="Path 19" d="M58.936,279.518H22.825A18.163,18.163,0,0,1,4.492,261.185,20.859,20.859,0,0,1,5.6,253.962,19.739,19.739,0,0,0,.047,267.851a18.163,18.163,0,0,0,18.333,18.333H54.492a16.11,16.11,0,0,0,15-10.556A16.4,16.4,0,0,1,58.936,279.518Z" transform="translate(730.591 -135.851)" fill="#d1ced3"/>
  </g>
</svg>
