<svg xmlns="http://www.w3.org/2000/svg" width="74" height="64" viewBox="0 0 74 64">
  <g id="Group_87" data-name="Group 87" transform="translate(-946 -955)">
    <path id="Path_108" data-name="Path 108" d="M13,0H61A13,13,0,0,1,74,13V51A13,13,0,0,1,61,64H13A13,13,0,0,1,0,51V13A13,13,0,0,1,13,0Z" transform="translate(946 955)" fill="#6e5caa"/>
    <g id="visibility" transform="translate(960 896.333)">
      <g id="Group_61" data-name="Group 61" transform="translate(0 74.667)">
        <g id="Group_60" data-name="Group 60" transform="translate(0 0)">
          <path id="Path_111" data-name="Path 111" d="M176.736,171.143a6,6,0,0,0,0,12c3.5,0,7-2.5,7-6S180.238,171.143,176.736,171.143Z" transform="translate(-153.736 -161.143)" fill="#fff"/>
          <path id="Path_112" data-name="Path 112" d="M23,74.667a24.767,24.767,0,0,0-23,16,24.767,24.767,0,0,0,23,16c10.593,0,20.339-6.709,24-16C43.339,81.376,33.593,74.667,23,74.667Zm0,26a9.619,9.619,0,0,1-10-10c0-5.841,4.159-11,10-11a11.314,11.314,0,0,1,11,11C34,96.508,28.841,100.667,23,100.667Z" transform="translate(0 -74.667)" fill="#fff"/>
        </g>
      </g>
    </g>
  </g>
</svg>
