<svg xmlns="http://www.w3.org/2000/svg" width="74" height="64" viewBox="0 0 74 64">
  <g id="Group_84" data-name="Group 84" transform="translate(-677 -742)">
    <path id="Path_98" data-name="Path 98" d="M13,0H61A13,13,0,0,1,74,13V51A13,13,0,0,1,61,64H13A13,13,0,0,1,0,51V13A13,13,0,0,1,13,0Z" transform="translate(677 742)" fill="#5bd9dd"/>
    <g id="Group_82" data-name="Group 82">
      <path id="Path_81" data-name="Path 81" d="M22.352,39.093s13-3.537,13-16v-12l-13-5-14,5v12C8.352,35.556,22.352,39.093,22.352,39.093Z" transform="translate(691.648 752.907)" fill="rgba(239,239,239,0.12)"/>
      <path id="Path_82" data-name="Path 82" d="M23.352,38.093a1.54,1.54,0,0,0-1,1s-14-3.538-14-16v-12l14-5,1,1-12,4v12C11.352,33.054,19.9,36.793,23.352,38.093Z" transform="translate(691.648 752.907)" fill="#d5dbe1"/>
      <path id="Path_83" data-name="Path 83" d="M22.662,40.4c-.09,0-.912.023-1,0-.143-.037-14-3.871-14-17v-12c0-.444.585-.846,1-1l13-5a1.966,1.966,0,0,1,1,0l13,5c.415.154,1,.556,1,1v12c0,13.129-13.857,16.963-14,17C22.574,40.425,22.752,40.4,22.662,40.4Zm-13-28v11c0,10.679,11.118,14.432,13,15,1.882-.568,12-4.321,12-15v-11l-12-4Z" transform="translate(691.338 752.597)" fill="#fff"/>
      <path id="Path_84" data-name="Path 84" d="M22.2,23.763c-.468,0-.864-.552-1-1l-3-8h2l2,5,1-5h2l-2,8C23.06,23.209,22.663,23.763,22.2,23.763Z" transform="translate(695.804 756.237)" fill="#fff"/>
      <path id="Path_85" data-name="Path 85" d="M16.6,23.687h-1c-1.363,0-3-.637-3-2v-7h2v7c0,.195.805,0,1,0h1c.195,0,0,.195,0,0v-7h3v7C19.6,23.05,17.961,23.687,16.6,23.687Z" transform="translate(693.403 756.313)" fill="#fff"/>
    </g>
  </g>
</svg>
