<svg xmlns="http://www.w3.org/2000/svg" width="51.034" height="44.138" viewBox="0 0 51.034 44.138">
  <g id="Group_174" data-name="Group 174" transform="translate(-211.79 -838)">
    <path id="Path_121" data-name="Path 121" d="M8.966,0h33.1a8.966,8.966,0,0,1,8.966,8.966V35.172a8.966,8.966,0,0,1-8.966,8.966H8.966A8.966,8.966,0,0,1,0,35.172V8.966A8.966,8.966,0,0,1,8.966,0Z" transform="translate(211.79 838)" fill="#6e5caa"/>
    <path id="airQuality" d="M26.351,14.217,23.3,7.682l1.317.378a.545.545,0,0,0,.3-1.047L15.76,4.384c0-.039,0-.078,0-.118A2.388,2.388,0,0,0,11.29,3.1L2.131.474a.545.545,0,1,0-.3,1.047l1.807.519L.365,9.051A.545.545,0,0,0,0,9.565a4.368,4.368,0,0,0,7.464,3.084,4.318,4.318,0,0,0,1.3-3.084.545.545,0,0,0-.4-.524L5.328,2.525l5.66,1.624c0,.039,0,.078,0,.118a2.392,2.392,0,0,0,1.844,2.325V17.384h-1.5a2.189,2.189,0,0,0-2.2,2.166v.316A2.2,2.2,0,0,0,7.381,22v.763a.575.575,0,0,0,.567.558H18.8a.575.575,0,0,0,.567-.558V22a2.2,2.2,0,0,0-1.744-2.136v-.316a2.189,2.189,0,0,0-2.2-2.166h-1.5V6.592a2.4,2.4,0,0,0,1.539-1.16L21.625,7.2l-3.28,7.026a.545.545,0,0,0-.365.514,4.369,4.369,0,0,0,7.464,3.084,4.319,4.319,0,0,0,1.3-3.084.545.545,0,0,0-.4-.524ZM4.37,3.022,7.158,8.994H1.582Zm0,9.8a3.258,3.258,0,0,1-3.235-2.735H7.63a3.305,3.305,0,0,1-3.26,2.735ZM18.278,22v.231H8.47V22a1.1,1.1,0,0,1,1.111-1.077h7.585A1.1,1.1,0,0,1,18.278,22Zm-1.744-2.452v.286h-6.32v-.286a1.1,1.1,0,0,1,1.111-1.077h4.1a1.1,1.1,0,0,1,1.111,1.077ZM13.374,5.565a1.3,1.3,0,1,1,1.263-.995.548.548,0,0,0-.031.106,1.3,1.3,0,0,1-1.232.888Zm11.764,8.6H19.563L22.35,8.2ZM22.35,17.995a3.258,3.258,0,0,1-3.235-2.735H25.61a3.305,3.305,0,0,1-3.26,2.735Zm0,0" transform="translate(223.29 849.048)" fill="#fff" stroke="#fff" stroke-width="0.6"/>
  </g>
</svg>
