<svg xmlns="http://www.w3.org/2000/svg" width="74" height="64" viewBox="0 0 74 64">
  <g id="Group_86" data-name="Group 86" transform="translate(-679 -955)">
    <path id="Path_97" data-name="Path 97" d="M13,0H61A13,13,0,0,1,74,13V51A13,13,0,0,1,61,64H13A13,13,0,0,1,0,51V13A13,13,0,0,1,13,0Z" transform="translate(679 955)" fill="#5b8fdd"/>
    <path id="dew-point" d="M19,16H16a2.394,2.394,0,0,1-2-2c0-.872,1.128-1,2-1h3c.872,0,2,.128,2,1A2.394,2.394,0,0,1,19,16ZM17,38c1.864-1.839,2-4.382,2-7a8.871,8.871,0,0,0-1-5c-.226-.362,0-1.557,0-2V22h1c.872,0,2-.128,2-1a2.394,2.394,0,0,0-2-2H18c-1.741,0-4,1.259-4,3v2a5.991,5.991,0,0,0,1,3,8.523,8.523,0,0,1,1,4c0,1.767-.742,2.759-2,4-1.236,1.219-2.266,2-4,2h0c-3.5-.048-6.936-2.5-7-6a8.007,8.007,0,0,1,1-4,5.991,5.991,0,0,0,1-3V8a5.283,5.283,0,0,1,5-5h0c2.245,0,3.553,1.8,4,4,.3,1.466,1.506,2,3,2h2c.872,0,2-.128,2-1a2.394,2.394,0,0,0-2-2H17c-.746-3.666-3.259-6-7-6h0C7.913.015,5.489.474,4,2A8.726,8.726,0,0,0,2,8V24a7.026,7.026,0,0,1-1,2,8.341,8.341,0,0,0-1,5,10.527,10.527,0,0,0,3,7c1.8,1.793,4.476,1.965,7,2h0C12.569,40,15.169,39.806,17,38ZM39,10c0-.6-.344-2.359-4-7a3.855,3.855,0,0,0-3-1,2,2,0,0,0-2,1c-3.656,4.641-4,6.4-4,7,0,3.487,2.518,7,6,7A7.553,7.553,0,0,0,39,10ZM32,5c2.351,2.985,3,4.505,3,5,0,1.746-1.259,4-3,4s-3-2.254-3-4c0-.495.649-2.015,3-5,.045-.058-.073,0,0,0S31.955,4.942,32,5Zm8,26a8.316,8.316,0,0,0-1-5c-.807-1.357-2.7-3.355-4-5h0c-.784-.993-1.734-1-3-1s-2.216.007-3,1a41.417,41.417,0,0,0-3,5c-1.218,2.048-2,3.708-2,5a8,8,0,0,0,16,0Zm-7-8c3.174,4.022,4,7,4,8a5,5,0,0,1-10,0c0-1,.826-3.978,4-8,.248-.314.828,0,1,0S32.752,22.686,33,23ZM8,31a2,2,0,1,1,2,2A2.019,2.019,0,0,1,8,31Zm3-7V14c0-.872-.128-1-1-1s-2,.128-2,1V24a2.394,2.394,0,0,0,2,2C10.872,26,11,24.872,11,24Z" transform="translate(696 967)" fill="#fff"/>
  </g>
</svg>
