<svg xmlns="http://www.w3.org/2000/svg" width="74" height="64" viewBox="0 0 74 64">
  <g id="Group_89" data-name="Group 89" transform="translate(-944 -742)">
    <path id="Path_99" data-name="Path 99" d="M13,0H61A13,13,0,0,1,74,13V51A13,13,0,0,1,61,64H13A13,13,0,0,1,0,51V13A13,13,0,0,1,13,0Z" transform="translate(944 742)" fill="#754d7d"/>
    <g id="gauge" transform="translate(963 756)">
      <g id="Group_26" data-name="Group 26">
        <g id="Group_25" data-name="Group 25">
          <path id="Path_71" data-name="Path 71" d="M18,0A17.7,17.7,0,0,0,0,18C0,28.186,7.814,37,18,37A19.408,19.408,0,0,0,37,18C37,7.814,28.186,0,18,0Zm0,35A16.339,16.339,0,0,1,2,23H13a5.846,5.846,0,0,0,5,3,7.562,7.562,0,0,0,6-3H35C32.985,30.1,25.737,35,18,35Zm5-13c-.273,0,.138-.236,0,0a6.636,6.636,0,0,1-5,3c-1.666,0-3.01-1.31-4-3-.138-.236.273,0,0,0H2a28.449,28.449,0,0,1,0-4C2,8.662,8.662,2,18,2S35,8.662,35,18a28.459,28.459,0,0,1,0,4Z" fill="#fff"/>
          <path id="Path_72" data-name="Path 72" d="M221.938,149.678l-4,5a14.333,14.333,0,0,0-2-1,2.946,2.946,0,0,0-3,3c0,1.7,1.3,4,3,4s3.991-1.308,4-3a6.4,6.4,0,0,0-1-3l4-4a.667.667,0,0,0,0-1A.686.686,0,0,0,221.938,149.678Zm-6,9c-.85,0-1-1.15-1-2s.15-1,1-1,2,.15,2,1A2.443,2.443,0,0,1,215.938,158.678Z" transform="translate(-197.938 -138.678)" fill="#fff"/>
          <path id="Path_73" data-name="Path 73" d="M245.629,36.691a1.222,1.222,0,0,0,1-1v-3a1.222,1.222,0,0,0-1-1c-.425,0,0,.575,0,1v3C245.629,36.116,245.2,36.691,245.629,36.691Z" transform="translate(-227.629 -29.691)" fill="#fff"/>
          <path id="Path_74" data-name="Path 74" d="M419.979,245.629h-3c-.425,0-1-.425-1,0a1.222,1.222,0,0,0,1,1h3a1.222,1.222,0,0,0,1-1C420.979,245.2,420.4,245.629,419.979,245.629Z" transform="translate(-385.979 -227.629)" fill="#fff"/>
          <path id="Path_75" data-name="Path 75" d="M35.691,245.629h-3c-.425,0-1-.425-1,0a1.222,1.222,0,0,0,1,1h3a1.222,1.222,0,0,0,1-1C36.691,245.2,36.116,245.629,35.691,245.629Z" transform="translate(-29.691 -227.629)" fill="#fff"/>
          <path id="Path_76" data-name="Path 76" d="M143.74,66.753l-1-2c-.215-.367-.633-.215-1,0s-1.208.634-1,1l2,2c.21.37.63.21,1,0s.21-.63,0-1Z" transform="translate(-130.74 -59.753)" fill="#fff"/>
          <path id="Path_77" data-name="Path 77" d="M398.363,141.674c-.21-.37-.63-1.21-1-1h0l-2,2c-.368.213-.213.632,0,1,.137.238-.275,0,0,0a4.947,4.947,0,0,0,1,0l2-1C398.732,142.464,398.573,142.044,398.363,141.674Z" transform="translate(-366.363 -130.674)" fill="#fff"/>
          <path id="Path_78" data-name="Path 78" d="M67.64,142.646h0l-2-2c-.367-.215-.785.633-1,1s-.367.785,0,1h0l2,1c.367.215.785.367,1,0S68.007,142.861,67.64,142.646Z" transform="translate(-59.64 -130.646)" fill="#fff"/>
          <path id="Path_79" data-name="Path 79" d="M333.723,64.763c-.366-.208-.787-.363-1,0l-1,2c-.213.368-.368.787,0,1s.787.368,1,0l2-2C334.933,65.393,334.093,64.973,333.723,64.763Z" transform="translate(-307.723 -59.763)" fill="#fff"/>
        </g>
      </g>
    </g>
  </g>
</svg>
