<svg id="Group_38" data-name="Group 38" xmlns="http://www.w3.org/2000/svg" width="78.309" height="62.988" viewBox="0 0 78.309 62.988">
  <path id="Rectangle_12" data-name="Rectangle 12" d="M13.221,0H65.088a13.27,13.27,0,0,1,5.137,1.025A13.074,13.074,0,0,1,74.4,3.817a12.824,12.824,0,0,1,2.785,4.132,12.659,12.659,0,0,1,.98,5.046l-.42,37.4a12.354,12.354,0,0,1-1.077,4.915,12.784,12.784,0,0,1-2.826,4A13.2,13.2,0,0,1,69.692,62a13.359,13.359,0,0,1-5.055.986H13.77A13.37,13.37,0,0,1,8.713,62,13.223,13.223,0,0,1,4.56,59.309a12.812,12.812,0,0,1-2.832-4A12.366,12.366,0,0,1,.644,50.391l-.478-37.4a12.648,12.648,0,0,1,.972-5.046A12.8,12.8,0,0,1,3.917,3.817,13.046,13.046,0,0,1,8.085,1.025,13.258,13.258,0,0,1,13.221,0Z" transform="translate(0 0)" fill="#cc5bdd"/>
  <g id="wind_1_" data-name="wind (1)" transform="translate(15.074 12)">
    <g id="Group_33" data-name="Group 33" transform="translate(0 2.001)">
      <g id="Group_32" data-name="Group 32">
        <path id="Path_91" data-name="Path 91" d="M39.173,0a10.841,10.841,0,0,0-3.786.684,10.4,10.4,0,0,0-3.2,1.891A9.05,9.05,0,0,0,29.984,5.43a8.151,8.151,0,0,0-.825,3.576,1.07,1.07,0,0,0,.074.4.936.936,0,0,0,.523.527,1.107,1.107,0,0,0,.806,0,.94.94,0,0,0,.524-.527,1.071,1.071,0,0,0,.075-.4,6.093,6.093,0,0,1,.678-2.782A7.191,7.191,0,0,1,33.632,4a8.56,8.56,0,0,1,2.562-1.47A8.706,8.706,0,0,1,39.171,2a7.488,7.488,0,0,1,2.822.532,6.551,6.551,0,0,1,3.664,3.691,7.4,7.4,0,0,1,.507,2.782,7.533,7.533,0,0,1-.534,2.782,6.705,6.705,0,0,1-1.455,2.22,6.62,6.62,0,0,1-2.213,1.47,7.424,7.424,0,0,1-2.809.532H1.141a1.067,1.067,0,0,0-.4.076.944.944,0,0,0-.526.528,1.041,1.041,0,0,0-.073.4,1.084,1.084,0,0,0,.076.4.961.961,0,0,0,.207.317.941.941,0,0,0,.315.211,1.054,1.054,0,0,0,.4.076H39.15a9.536,9.536,0,0,0,3.61-.684A8.513,8.513,0,0,0,45.6,15.436a8.631,8.631,0,0,0,1.871-2.854,9.693,9.693,0,0,0,.688-3.576,9.512,9.512,0,0,0-.649-3.576A8.415,8.415,0,0,0,42.8.684,9.638,9.638,0,0,0,39.173,0Z" transform="translate(0 0)" fill="#fff"/>
      </g>
    </g>
    <g id="Group_35" data-name="Group 35" transform="translate(0.041)">
      <g id="Group_34" data-name="Group 34">
        <path id="Path_92" data-name="Path 92" d="M19.129,0a8.761,8.761,0,0,0-2.983.53A8.566,8.566,0,0,0,13.579,2a7.136,7.136,0,0,0-1.794,2.22A6.039,6.039,0,0,0,11.118,7a1.086,1.086,0,0,0,.075.4.95.95,0,0,0,.206.317.937.937,0,0,0,.315.21,1.109,1.109,0,0,0,.805,0,.938.938,0,0,0,.525-.527,1.059,1.059,0,0,0,.073-.4,4.044,4.044,0,0,1,.522-1.99,5.31,5.31,0,0,1,1.38-1.586A6.756,6.756,0,0,1,16.952,2.38,6.627,6.627,0,0,1,19.127,2a5.341,5.341,0,0,1,2.014.379,4.674,4.674,0,0,1,2.611,2.634A5.381,5.381,0,0,1,24.122,7a5.319,5.319,0,0,1-.372,1.99,4.7,4.7,0,0,1-2.624,2.634,5.343,5.343,0,0,1-2.012.379H1.108a1.072,1.072,0,0,0-.4.076.94.94,0,0,0-.526.527,1.046,1.046,0,0,0-.072.4,1.089,1.089,0,0,0,.076.4.957.957,0,0,0,.207.317.938.938,0,0,0,.315.21,1.059,1.059,0,0,0,.4.076H19.111a7.473,7.473,0,0,0,2.815-.531A6.59,6.59,0,0,0,25.6,9.79,7.453,7.453,0,0,0,26.122,7a7.529,7.529,0,0,0-.516-2.786A6.538,6.538,0,0,0,21.95.53,7.486,7.486,0,0,0,19.129,0Z" fill="#fff"/>
      </g>
    </g>
    <g id="Group_37" data-name="Group 37" transform="translate(0.123 24.015)">
      <g id="Group_36" data-name="Group 36">
        <path id="Path_93" data-name="Path 93" d="M37.021,0H1.01a1.063,1.063,0,0,0-.4.077A.948.948,0,0,0,.081.605,1.037,1.037,0,0,0,.008,1a2.783,2.783,0,0,0,.076.552,4.243,4.243,0,0,0,.207.661,2.149,2.149,0,0,0,.315.555.547.547,0,0,0,.4.233H37.017a5.261,5.261,0,0,1,2.007.385,4.752,4.752,0,0,1,2.622,2.647A5.218,5.218,0,0,1,42.012,8a5.289,5.289,0,0,1-.382,1.971,4.846,4.846,0,0,1-1.043,1.588A4.784,4.784,0,0,1,39,12.623a5.231,5.231,0,0,1-2,.385,6.464,6.464,0,0,1-2.157-.385,6.82,6.82,0,0,1-1.926-1.059,5.419,5.419,0,0,1-1.384-1.588A4,4,0,0,1,31.009,8a1.053,1.053,0,0,0-.074-.394.949.949,0,0,0-.524-.529,1.086,1.086,0,0,0-.8,0,.953.953,0,0,0-.525.529A1.054,1.054,0,0,0,29.008,8a5.984,5.984,0,0,0,.68,2.76,7.3,7.3,0,0,0,1.8,2.223,8.656,8.656,0,0,0,2.558,1.482A8.524,8.524,0,0,0,37,15.009a7.314,7.314,0,0,0,2.8-.539,6.7,6.7,0,0,0,2.215-1.482,6.792,6.792,0,0,0,1.462-2.223A7.409,7.409,0,0,0,44.012,8,8.513,8.513,0,0,0,43.5,5.089,8.659,8.659,0,0,0,42.05,2.523,7.226,7.226,0,0,0,39.832.7,6.039,6.039,0,0,0,37.021,0Z" transform="translate(0 0)" fill="#fff"/>
      </g>
    </g>
  </g>
</svg>
