<svg xmlns="http://www.w3.org/2000/svg" width="74" height="64" viewBox="0 0 74 64">
  <g id="Group_85" data-name="Group 85" transform="translate(-679 -852)">
    <path id="Path_96" data-name="Path 96" d="M13,0H61A13,13,0,0,1,74,13V51A13,13,0,0,1,61,64H13A13,13,0,0,1,0,51V13A13,13,0,0,1,13,0Z" transform="translate(679 852)" fill="#5f5bdd"/>
    <g id="Group_83" data-name="Group 83">
      <path id="Path_89" data-name="Path 89" d="M191.9,91.267v-26c0-.223.158-.842,0-1s.225-.016,0,0h-4a1.139,1.139,0,0,0-1,1v26c-2.934,1.39-3.389,5.066-2,8a5.476,5.476,0,0,0,4,3,3.96,3.96,0,0,0,1,0,6.088,6.088,0,0,0,6-6C195.9,94,193.95,92.242,191.9,91.267Zm2,7a4.081,4.081,0,0,1-1,2h0a5.336,5.336,0,0,1-4,1,4.071,4.071,0,0,1-3-5,4.552,4.552,0,0,1,3-3c.337-.117,0-.643,0-1v-27h2v27c0,.357-.337.882,0,1C193.084,94.039,194.672,96.085,193.9,98.267Z" transform="translate(526.099 801.733)" fill="#fff"/>
      <path id="Path_90" data-name="Path 90" d="M155.967,34c-.853-1.335-1.665-3.147-3-4V25h2a1.139,1.139,0,0,0,1-1c0-.464-.536,0-1,0h-2V22h2a1.139,1.139,0,0,0,1-1,1.139,1.139,0,0,0-1-1h-2V18h2c.464,0,1,.464,1,0a1.139,1.139,0,0,0-1-1h-2V15h2a1.139,1.139,0,0,0,1-1,1.139,1.139,0,0,0-1-1h-2V12h2a1.139,1.139,0,0,0,1-1,1.139,1.139,0,0,0-1-1h-2V6a6,6,0,0,0-12,0V30a10.748,10.748,0,0,0-3,15c3.246,5.08,9.92,7.246,15,4A10.748,10.748,0,0,0,155.967,34Zm-9,15c-5.1.006-8.994-4.9-9-10,0-3.309,1.132-6.35,4-8,.26-.15,1,.3,1,0V6a4,4,0,0,1,8,0V31c0,.3.74-.15,1,0,4.422,2.545,5.545,8.578,3,13A9.572,9.572,0,0,1,146.967,49Z" transform="translate(569.033 859)" fill="#fff"/>
    </g>
  </g>
</svg>
