<svg xmlns="http://www.w3.org/2000/svg" width="74" height="64" viewBox="0 0 74 64">
  <g id="Group_90" data-name="Group 90" transform="translate(-946 -642)">
    <path id="Path_109" data-name="Path 109" d="M13,0H61A13,13,0,0,1,74,13V51A13,13,0,0,1,61,64H13A13,13,0,0,1,0,51V13A13,13,0,0,1,13,0Z" transform="translate(946 642)" fill="#5bdd6c"/>
    <g id="XMLID_1059_" transform="translate(961 651.996)">
      <g id="XMLID_1464_" transform="translate(0 0.004)">
        <g id="XMLID_1518_" transform="translate(0 0)">
          <path id="XMLID_163_" d="M40,15c.024-.221,0,.22,0,0a5.94,5.94,0,0,0-6-6,14.507,14.507,0,0,0-5-6,14.175,14.175,0,0,0-8-3,11.618,11.618,0,0,0-8,3,14.083,14.083,0,0,0-5,7c-4.4.129-8,4.571-8,9a7.883,7.883,0,0,0,8,8H18a1,1,0,0,0,0-2H8a5.694,5.694,0,0,1-6-6c0-3.575,2.423-7,6-7,1.592,0,2.812.944,4,2,.162.144.8,0,1,0,.234,0,.832.189,1,0a2.139,2.139,0,0,0,0-2c-1.126-1-2.537-.732-4-1,1.483-5.16,5.554-9,11-9,5.09,0,10.245,3.224,12,8,.134.365.614.04,1,0,.162-.017-.15,0,0,0a5.494,5.494,0,0,1,5,5c0,.323-.928.68-1,1-.091.4.615.844,1,1a4.518,4.518,0,0,1,3,4c0,2.429-2.569,4-5,4H26a1,1,0,0,0,0,2H37a5.935,5.935,0,0,0,6-6C43,18.739,41.958,16.063,40,15Z" transform="translate(0 -0.004)" fill="#fff"/>
        </g>
      </g>
      <g id="XMLID_868_" transform="translate(5.656 28.806)">
        <path id="XMLID_570_" d="M68.011,345.7a1.13,1.13,0,0,1-1-1v-4a1.13,1.13,0,0,1,1-1c.468,0,0,.532,0,1v4C68.011,345.165,68.479,345.7,68.011,345.7Z" transform="translate(-66.667 -339.499)" fill="#fff"/>
      </g>
      <g id="XMLID_870_" transform="translate(11.764 28.806)">
        <path id="XMLID_569_" d="M139.9,347.7a1.13,1.13,0,0,1-1-1v-6a1.13,1.13,0,0,1,1-1c.468,0,0,.531,0,1v6C139.9,347.165,140.371,347.7,139.9,347.7Z" transform="translate(-138.667 -339.499)" fill="#fff"/>
      </g>
      <g id="XMLID_872_" transform="translate(17.873 28.806)">
        <path id="XMLID_568_" d="M211.794,342.7a1.13,1.13,0,0,1-1-1v-1a1,1,0,0,1,2,0v1A1.13,1.13,0,0,1,211.794,342.7Z" transform="translate(-210.667 -339.499)" fill="#fff"/>
      </g>
      <g id="XMLID_873_" transform="translate(23.981 28.806)">
        <path id="XMLID_567_" d="M283.686,346.7a1.131,1.131,0,0,1-1-1v-5a1,1,0,0,1,2,0v5A1.13,1.13,0,0,1,283.686,346.7Z" transform="translate(-282.667 -339.499)" fill="#fff"/>
      </g>
      <g id="XMLID_912_" transform="translate(30.09 28.806)">
        <path id="XMLID_566_" d="M355.577,345.7a1.13,1.13,0,0,1-1-1v-4a1,1,0,1,1,2,0v4A1.13,1.13,0,0,1,355.577,345.7Z" transform="translate(-354.667 -339.499)" fill="#fff"/>
      </g>
      <g id="XMLID_917_" transform="translate(30.09 37.008)">
        <path id="XMLID_565_" d="M355.577,442.161c-.469,0-1,.469-1,0v-5a1,1,0,0,1,2,0v5C356.577,442.63,356.046,442.161,355.577,442.161Z" transform="translate(-354.667 -436.165)" fill="#fff"/>
      </g>
      <g id="XMLID_922_" transform="translate(11.764 39.111)">
        <path id="XMLID_564_" d="M139.9,464.853c-.468,0-1,.468-1,0v-3a1.13,1.13,0,0,1,1-1c.468,0,0,.532,0,1v3C139.9,465.322,140.371,464.853,139.9,464.853Z" transform="translate(-138.667 -460.96)" fill="#fff"/>
      </g>
      <g id="XMLID_920_" transform="translate(17.873 34.272)">
        <path id="XMLID_563_" d="M211.794,408.65a1.13,1.13,0,0,1-1-1v-3a1,1,0,1,1,2,0v3A1.13,1.13,0,0,1,211.794,408.65Z" transform="translate(-210.667 -403.918)" fill="#fff"/>
      </g>
      <g id="XMLID_919_" transform="translate(23.981 38.351)">
        <path id="XMLID_562_" d="M283.686,454.656c-.468,0-1,.468-1,0v-2a1,1,0,1,1,2,0v2C284.686,455.124,284.154,454.656,283.686,454.656Z" transform="translate(-282.667 -452.003)" fill="#fff"/>
      </g>
      <g id="XMLID_913_" transform="translate(36.198 28.806)">
        <path id="XMLID_561_" d="M427.469,345.7a1.13,1.13,0,0,1-1-1v-4a1,1,0,1,1,2,0v4A1.13,1.13,0,0,1,427.469,345.7Z" transform="translate(-426.667 -339.499)" fill="#fff"/>
      </g>
      <g id="XMLID_1056_" transform="translate(20.871 25.045)">
        <g id="XMLID_1058_">
          <path id="XMLID_560_" d="M247.132,297.126c-.223,0-.842-.842-1-1s0,.223,0,0-.158-.842,0-1,.777,0,1,0-.158-.158,0,0,1,.777,1,1-.842-.159-1,0S247.355,297.126,247.132,297.126Z" transform="translate(-246.003 -295.167)" fill="#fff"/>
        </g>
      </g>
    </g>
  </g>
</svg>
