<?xml version="1.0" encoding="utf-8"?>
<svg xmlns="http://www.w3.org/2000/svg" xmlns:xlink="http://www.w3.org/1999/xlink" style="margin: auto; background: none; display: block; shape-rendering: auto;" width="350px" height="350px" viewBox="0 0 100 100" preserveAspectRatio="xMidYMid">
<g transform="rotate(0 50 50)">
  <rect x="46" y="24" rx="4" ry="6" width="8" height="12" fill="#ebeae4">
    <animate attributeName="opacity" values="1;0" keyTimes="0;1" dur="0.6134969325153374s" begin="-0.5623721881390592s" repeatCount="indefinite"></animate>
  </rect>
</g><g transform="rotate(30 50 50)">
  <rect x="46" y="24" rx="4" ry="6" width="8" height="12" fill="#ebeae4">
    <animate attributeName="opacity" values="1;0" keyTimes="0;1" dur="0.6134969325153374s" begin="-0.5112474437627811s" repeatCount="indefinite"></animate>
  </rect>
</g><g transform="rotate(60 50 50)">
  <rect x="46" y="24" rx="4" ry="6" width="8" height="12" fill="#ebeae4">
    <animate attributeName="opacity" values="1;0" keyTimes="0;1" dur="0.6134969325153374s" begin="-0.460122699386503s" repeatCount="indefinite"></animate>
  </rect>
</g><g transform="rotate(90 50 50)">
  <rect x="46" y="24" rx="4" ry="6" width="8" height="12" fill="#ebeae4">
    <animate attributeName="opacity" values="1;0" keyTimes="0;1" dur="0.6134969325153374s" begin="-0.4089979550102249s" repeatCount="indefinite"></animate>
  </rect>
</g><g transform="rotate(120 50 50)">
  <rect x="46" y="24" rx="4" ry="6" width="8" height="12" fill="#ebeae4">
    <animate attributeName="opacity" values="1;0" keyTimes="0;1" dur="0.6134969325153374s" begin="-0.3578732106339468s" repeatCount="indefinite"></animate>
  </rect>
</g><g transform="rotate(150 50 50)">
  <rect x="46" y="24" rx="4" ry="6" width="8" height="12" fill="#ebeae4">
    <animate attributeName="opacity" values="1;0" keyTimes="0;1" dur="0.6134969325153374s" begin="-0.30674846625766866s" repeatCount="indefinite"></animate>
  </rect>
</g><g transform="rotate(180 50 50)">
  <rect x="46" y="24" rx="4" ry="6" width="8" height="12" fill="#ebeae4">
    <animate attributeName="opacity" values="1;0" keyTimes="0;1" dur="0.6134969325153374s" begin="-0.25562372188139054s" repeatCount="indefinite"></animate>
  </rect>
</g><g transform="rotate(210 50 50)">
  <rect x="46" y="24" rx="4" ry="6" width="8" height="12" fill="#ebeae4">
    <animate attributeName="opacity" values="1;0" keyTimes="0;1" dur="0.6134969325153374s" begin="-0.20449897750511245s" repeatCount="indefinite"></animate>
  </rect>
</g><g transform="rotate(240 50 50)">
  <rect x="46" y="24" rx="4" ry="6" width="8" height="12" fill="#ebeae4">
    <animate attributeName="opacity" values="1;0" keyTimes="0;1" dur="0.6134969325153374s" begin="-0.15337423312883433s" repeatCount="indefinite"></animate>
  </rect>
</g><g transform="rotate(270 50 50)">
  <rect x="46" y="24" rx="4" ry="6" width="8" height="12" fill="#ebeae4">
    <animate attributeName="opacity" values="1;0" keyTimes="0;1" dur="0.6134969325153374s" begin="-0.10224948875255623s" repeatCount="indefinite"></animate>
  </rect>
</g><g transform="rotate(300 50 50)">
  <rect x="46" y="24" rx="4" ry="6" width="8" height="12" fill="#ebeae4">
    <animate attributeName="opacity" values="1;0" keyTimes="0;1" dur="0.6134969325153374s" begin="-0.05112474437627811s" repeatCount="indefinite"></animate>
  </rect>
</g><g transform="rotate(330 50 50)">
  <rect x="46" y="24" rx="4" ry="6" width="8" height="12" fill="#ebeae4">
    <animate attributeName="opacity" values="1;0" keyTimes="0;1" dur="0.6134969325153374s" begin="0s" repeatCount="indefinite"></animate>
  </rect>
</g>
<!-- [ldio] generated by https://loading.io/ --></svg>