<svg id="_02d" data-name="02d" xmlns="http://www.w3.org/2000/svg" width="30.567" height="25" viewBox="0 0 30.567 25">
  <g id="Group_142" data-name="Group 142" transform="translate(0 0)">
    <path id="Path_184" data-name="Path 184" d="M87.466,80.491a6.975,6.975,0,1,1-6.975-6.975A6.975,6.975,0,0,1,87.466,80.491Zm0,0" transform="translate(-69.127 -69.127)" fill="#f6cb43"/>
    <path id="Path_185" data-name="Path 185" d="M89.625,82.65a6.975,6.975,0,0,1-13.812,1.383,6.98,6.98,0,0,0,8.22-8.22,6.977,6.977,0,0,1,5.592,6.837Zm0,0" transform="translate(-71.287 -71.287)" fill="#fab03c"/>
    <g id="Group_124" data-name="Group 124" transform="translate(0)">
      <path id="Path_186" data-name="Path 186" d="M183.189,2.411a.454.454,0,0,1-.454-.455V.454a.454.454,0,0,1,.909,0v1.5A.454.454,0,0,1,183.189,2.411Zm0,0" transform="translate(-171.825 0)" fill="#f8e98e"/>
      <path id="Path_187" data-name="Path 187" d="M92.571,26.691a.454.454,0,0,1-.394-.227l-.751-1.3a.454.454,0,0,1,.787-.454l.751,1.3a.454.454,0,0,1-.393.682Zm0,0" transform="translate(-85.911 -23.02)" fill="#f8e98e"/>
      <path id="Path_188" data-name="Path 188" d="M26.235,93.026a.453.453,0,0,1-.227-.061l-1.3-.751a.454.454,0,0,1,.455-.787l1.3.751a.454.454,0,0,1-.228.848Zm0,0" transform="translate(-23.018 -85.911)" fill="#f8e98e"/>
      <path id="Path_189" data-name="Path 189" d="M1.957,183.643H.454a.454.454,0,0,1,0-.909h1.5a.454.454,0,1,1,0,.909Zm0,0" transform="translate(0 -171.825)" fill="#f8e98e"/>
      <path id="Path_190" data-name="Path 190" d="M319.647,93.026a.454.454,0,0,1-.228-.848l1.3-.751a.454.454,0,0,1,.454.787l-1.3.751a.453.453,0,0,1-.227.061Zm0,0" transform="translate(-300.136 -85.911)" fill="#f8e98e"/>
      <path id="Path_191" data-name="Path 191" d="M24.934,263.176a.454.454,0,0,1-.228-.848l1.3-.751a.454.454,0,1,1,.455.787l-1.3.751a.453.453,0,0,1-.227.061Zm0,0" transform="translate(-23.018 -245.903)" fill="#f8e98e"/>
      <path id="Path_192" data-name="Path 192" d="M261.972,26.691a.454.454,0,0,1-.393-.682l.751-1.3a.454.454,0,0,1,.787.454l-.751,1.3A.454.454,0,0,1,261.972,26.691Zm0,0" transform="translate(-245.905 -23.02)" fill="#f8e98e"/>
    </g>
    <path id="Path_193" data-name="Path 193" d="M136.16,171.836a7.584,7.584,0,0,0-14.671-2.2,5.122,5.122,0,0,0,.063,10.244h14.467a4.025,4.025,0,0,0,.141-8.048Zm0,0" transform="translate(-109.478 -154.884)" fill="#f9f5f3"/>
    <path id="Path_194" data-name="Path 194" d="M245.521,175.862a4.026,4.026,0,0,1-4.026,4.026h-.312A4.026,4.026,0,0,0,237.755,174a7.589,7.589,0,0,0-9.153-6.952,7.582,7.582,0,0,1,13.034,4.791A4.024,4.024,0,0,1,245.521,175.862Zm0,0" transform="translate(-214.954 -154.888)" fill="#e3e1e1"/>
    <path id="Path_195" data-name="Path 195" d="M401.28,247.973a.455.455,0,0,1-.441-.348,5.2,5.2,0,0,0-.284-.851.454.454,0,1,1,.834-.361,6.134,6.134,0,0,1,.334,1,.455.455,0,0,1-.442.561Zm0,0" transform="translate(-376.606 -231.444)" fill="rgba(139,139,139,0.48)"/>
    <path id="Path_196" data-name="Path 196" d="M317.119,190.98a.453.453,0,0,1-.328-.14,5.225,5.225,0,0,0-3.8-1.623.454.454,0,1,1,0-.909,6.126,6.126,0,0,1,4.456,1.9.455.455,0,0,1-.328.769Zm0,0" transform="translate(-293.877 -177.066)" fill="rgba(139,139,139,0.48)"/>
    <path id="Path_197" data-name="Path 197" d="M54.2,242.225a5.422,5.422,0,0,1,10.488-1.57,3.662,3.662,0,0,1-.045,7.323H54.3a2.878,2.878,0,0,1-.1-5.753Zm0,0" transform="translate(-48.356 -222.979)" fill="#f0f5f7"/>
    <path id="Path_198" data-name="Path 198" d="M142.854,244.321a3.662,3.662,0,0,1-3.612,3.661,3.661,3.661,0,0,0-2.653-6.138,5.426,5.426,0,0,0-5.886-3.459,5.421,5.421,0,0,1,8.533,2.274,3.661,3.661,0,0,1,3.618,3.661Zm0,0" transform="translate(-122.9 -222.983)" fill="#dde9ed"/>
  </g>
</svg>
