<svg xmlns="http://www.w3.org/2000/svg" width="33.488" height="25" viewBox="0 0 33.488 25">
  <g id="_02n" data-name="02n" transform="translate(0 -2.717)">
    <g id="Group_129" data-name="Group 129" transform="translate(3.431 2.717)">
      <g id="Group_152" data-name="Group 152" transform="translate(0)">
        <g id="crescent-moon">
          <path id="Path_229" data-name="Path 229" d="M39.259,16.862A11.014,11.014,0,1,1,28.568,0a.133.133,0,0,1,.122.212A10.406,10.406,0,0,0,39.12,16.661.133.133,0,0,1,39.259,16.862Z" transform="translate(-18.968 0)" fill="#faeb7e"/>
          <path id="Path_230" data-name="Path 230" d="M39.124,115.346a.133.133,0,0,1,.14.2A11.014,11.014,0,1,1,21.1,103.1a11.016,11.016,0,0,0,16.555,12.439A10.326,10.326,0,0,0,39.124,115.346Z" transform="translate(-18.972 -98.685)" fill="#ffda74"/>
        </g>
      </g>
    </g>
    <g id="Group_155" data-name="Group 155" transform="translate(0 9.246)">
      <path id="Path_199" data-name="Path 199" d="M95.651,8.669A9.236,9.236,0,0,0,77.783,5.995,6.238,6.238,0,0,0,77.86,18.47H95.479a4.9,4.9,0,0,0,.171-9.8Zm0,0" transform="translate(-66.895)" fill="#6d6d6d"/>
      <path id="Path_200" data-name="Path 200" d="M215.816,13.571a4.9,4.9,0,0,1-4.9,4.9h-.38a4.9,4.9,0,0,0-4.175-7.17,9.243,9.243,0,0,0-11.147-8.467,9.235,9.235,0,0,1,15.874,5.835,4.9,4.9,0,0,1,4.732,4.9Zm0,0" transform="translate(-182.328 -0.004)" fill="#565656"/>
      <path id="Path_201" data-name="Path 201" d="M386.174,92.513a.51.51,0,0,1-.5-.391,6.4,6.4,0,0,0-.348-1.044.51.51,0,1,1,.936-.4,7.412,7.412,0,0,1,.4,1.21.51.51,0,0,1-.5.629Zm0,0" transform="translate(-359.862 -84.403)" fill="#6d6d6d"/>
      <path id="Path_202" data-name="Path 202" d="M293.89,29.819a.508.508,0,0,1-.368-.157,6.406,6.406,0,0,0-4.66-1.99.51.51,0,1,1,0-1.02,7.417,7.417,0,0,1,5.4,2.3.51.51,0,0,1-.368.863Zm0,0" transform="translate(-269.323 -24.893)" fill="#6d6d6d"/>
      <path id="Path_203" data-name="Path 203" d="M3.383,85.99a6.6,6.6,0,0,1,12.774-1.912A4.46,4.46,0,0,1,16.1,93H3.505a3.5,3.5,0,0,1-.122-7.007Zm0,0" transform="translate(0 -74.527)" fill="#a09d9c"/>
      <path id="Path_204" data-name="Path 204" d="M102.146,88.542A4.46,4.46,0,0,1,97.747,93a4.459,4.459,0,0,0-3.23-7.475,6.609,6.609,0,0,0-7.169-4.213,6.6,6.6,0,0,1,10.392,2.77,4.459,4.459,0,0,1,4.406,4.459Zm0,0" transform="translate(-81.583 -74.531)" fill="#82807f"/>
    </g>
  </g>
</svg>
