<svg xmlns="http://www.w3.org/2000/svg" width="27.446" height="25" viewBox="0 0 27.446 25">
  <g id="_04" data-name="04" transform="translate(0)">
    <g id="Group_146" data-name="Group 146" transform="translate(0)">
      <path id="Path_14" data-name="Path 14" d="M9.511,82.951c-.036,0-.1,0-.136,0a3.53,3.53,0,0,0-3.4-2.582,3.373,3.373,0,0,0-3.4,3.4,3.1,3.1,0,0,0,0,.408h0a.421.421,0,0,0-.136,0,3.039,3.039,0,0,0-1.766.951,3,3,0,0,0,0,3.8,2.864,2.864,0,0,0,1.766.815.421.421,0,0,0,.136,0H9.511a3.4,3.4,0,1,0,0-6.793Z" transform="translate(0 -77.245)" fill="#e1dee1"/>
      <path id="Path_15" data-name="Path 15" d="M10.326,169.616H3.4c-.048,0-.093-.121-.136-.136a2.523,2.523,0,0,1-1.63-.815,2.9,2.9,0,0,1-.815-1.9,2.125,2.125,0,0,1,0-.272c-.049.046-.09.086-.136.136a3,3,0,0,0,0,3.8,2.864,2.864,0,0,0,1.766.815.421.421,0,0,0,.136,0H9.511a3.343,3.343,0,0,0,3.261-2.853A3.375,3.375,0,0,1,10.326,169.616Z" transform="translate(0 -158.747)" fill="#c2bec4"/>
      <path id="Path_16" data-name="Path 16" d="M283.739,28.391a3.039,3.039,0,0,0-1.766-.951.421.421,0,0,0-.136,0h0a3.1,3.1,0,0,0,0-.408,3.49,3.49,0,0,0-3.4-3.533,3.372,3.372,0,0,0-3.261,2.582c-.036,0-.1,0-.136,0a3.607,3.607,0,0,0-3.533,3.533,3.49,3.49,0,0,0,3.533,3.4h6.793a.421.421,0,0,0,.136,0,3.039,3.039,0,0,0,1.766-.951,2.44,2.44,0,0,0,.679-1.766A2.767,2.767,0,0,0,283.739,28.391Z" transform="translate(-256.972 -23.5)" fill="#e1dee1"/>
      <path id="Path_17" data-name="Path 17" d="M283.331,88.013a.42.42,0,0,1-.136,0h-6.929A3.512,3.512,0,0,1,273,83.529a3.527,3.527,0,0,0-1.495,2.853,3.49,3.49,0,0,0,3.533,3.4h6.793a.421.421,0,0,0,.136,0,3.039,3.039,0,0,0,1.766-.951,2.466,2.466,0,0,0,.679-1.087A2.774,2.774,0,0,1,283.331,88.013Z" transform="translate(-256.972 -80.268)" fill="#c2bec4"/>
      <path id="Path_18" data-name="Path 18" d="M21.467,135.6a6.638,6.638,0,0,0-1.223.136,5.342,5.342,0,0,0,.408-1.766,5.585,5.585,0,0,0-11.141-.543,7.364,7.364,0,0,0-2.174-.408,7.337,7.337,0,1,0,0,14.674h14.13a5.96,5.96,0,0,0,5.978-5.978A6.077,6.077,0,0,0,21.467,135.6Z" transform="translate(0 -122.695)" fill="#f0eff0"/>
      <path id="Path_19" data-name="Path 19" d="M23.234,264.794H8.967a7.254,7.254,0,0,1-7.2-7.337,6.8,6.8,0,0,1,.408-2.582A7.069,7.069,0,0,0,0,260.038a7.37,7.37,0,0,0,7.337,7.337h14.13a6.028,6.028,0,0,0,5.707-4.076A5.878,5.878,0,0,1,23.234,264.794Z" transform="translate(0 -242.375)" fill="#d1ced3"/>
    </g>
  </g>
</svg>
