<svg xmlns="http://www.w3.org/2000/svg" width="24.627" height="25" viewBox="0 0 24.627 25">
  <g id="_10d" data-name="10d" transform="translate(-158.149 -93.565)">
    <path id="Path_28" data-name="Path 28" d="M417.892,289.54a.365.365,0,0,1-.259-.107l-1.144-1.144a.366.366,0,1,1,.518-.518l1.144,1.144a.366.366,0,0,1-.259.625Z" transform="translate(-238.088 -180.053)" fill="#ffbd61"/>
    <path id="Path_29" data-name="Path 29" d="M462.037,182.965h-1.618a.366.366,0,0,1,0-.732h1.618a.366.366,0,0,1,0,.732Z" transform="translate(-279.626 -79.77)" fill="#ffbd61"/>
    <path id="Path_30" data-name="Path 30" d="M416.748,55.252a.366.366,0,0,1-.259-.625l1.144-1.144a.366.366,0,1,1,.518.518l-1.144,1.144A.365.365,0,0,1,416.748,55.252Z" transform="translate(-238.088 42.795)" fill="#ffbd61"/>
    <g id="Group_139" data-name="Group 139" transform="translate(165.866 116.215)">
      <g id="Group_11" data-name="Group 11" transform="translate(4.045)">
        <g id="Group_10" data-name="Group 10">
          <path id="Path_33" data-name="Path 33" d="M245.051,466.214a.366.366,0,0,1-.327-.53l.809-1.618a.366.366,0,1,1,.655.328l-.809,1.618A.366.366,0,0,1,245.051,466.214Z" transform="translate(-244.685 -463.863)" fill="#a0c8ff"/>
        </g>
      </g>
      <g id="Group_13" data-name="Group 13">
        <g id="Group_12" data-name="Group 12">
          <path id="Path_34" data-name="Path 34" d="M162.218,466.214a.366.366,0,0,1-.327-.53l.809-1.618a.366.366,0,0,1,.655.328l-.809,1.618A.366.366,0,0,1,162.218,466.214Z" transform="translate(-161.852 -463.863)" fill="#a0c8ff"/>
        </g>
      </g>
    </g>
    <g id="Group_138" data-name="Group 138" transform="translate(164.248 112.979)">
      <g id="Group_8" data-name="Group 8">
        <path id="Path_31" data-name="Path 31" d="M129.084,399.946a.366.366,0,0,1-.327-.53l.809-1.618a.366.366,0,0,1,.655.328l-.809,1.618A.366.366,0,0,1,129.084,399.946Z" transform="translate(-128.718 -397.596)" fill="#a0c8ff"/>
      </g>
      <g id="Group_9" data-name="Group 9" transform="translate(4.045 0)">
        <path id="Path_32" data-name="Path 32" d="M211.917,399.948a.366.366,0,0,1-.327-.53l.809-1.618a.366.366,0,0,1,.655.328l-.809,1.618A.366.366,0,0,1,211.917,399.948Z" transform="translate(-211.551 -397.598)" fill="#a0c8ff"/>
      </g>
      <g id="Group_14" data-name="Group 14" transform="translate(8.089)">
        <path id="Path_35" data-name="Path 35" d="M294.751,399.946a.366.366,0,0,1-.327-.53l.809-1.618a.366.366,0,0,1,.655.328l-.809,1.618A.366.366,0,0,1,294.751,399.946Z" transform="translate(-294.385 -397.596)" fill="#a0c8ff"/>
      </g>
    </g>
    <path id="Path_20" data-name="Path 20" d="M214.88,77.057a5.657,5.657,0,1,1,8.144,7.29H214.88Z" transform="translate(-46.425 23.22)" fill="#ffce69"/>
    <path id="Path_21" data-name="Path 21" d="M214.88,77.057a5.657,5.657,0,1,1,8.144,7.29H214.88Z" transform="translate(-46.425 23.22)" fill="#ffce69"/>
    <path id="Path_22" data-name="Path 22" d="M306.984,73.955a5.718,5.718,0,0,0-.579.03,5.657,5.657,0,0,1,2.514,10.361h1.162a5.657,5.657,0,0,0-3.1-10.391Z" transform="translate(-133.481 23.221)" fill="#ffbd61"/>
    <path id="Path_23" data-name="Path 23" d="M7.856,127.645a4.041,4.041,0,1,1,8.081.051,1.565,1.565,0,0,0,1.565,1.565h1.619a3.232,3.232,0,1,1,.048,6.465H7.907a4.041,4.041,0,1,1-.051-8.081Z" transform="translate(154.334 -24.004)" fill="#efefef"/>
    <g id="Group_2" data-name="Group 2" transform="translate(165.65 99.601)">
      <path id="Path_24" data-name="Path 24" d="M160.895,127.7a1.565,1.565,0,0,0,1.565,1.565h1.162a1.565,1.565,0,0,1-1.565-1.565,4.036,4.036,0,0,0-4.62-4.049A4.082,4.082,0,0,1,160.895,127.7Z" transform="translate(-157.436 -123.606)" fill="#d8d8d8"/>
      <path id="Path_25" data-name="Path 25" d="M294.641,239.451h-1.162a3.232,3.232,0,1,1,.048,6.465h1.162a3.232,3.232,0,1,0-.048-6.465Z" transform="translate(-286.836 -233.795)" fill="#d8d8d8"/>
    </g>
    <g id="Group_4" data-name="Group 4" transform="translate(166.854 96.171)">
      <path id="Path_27" data-name="Path 27" d="M183.6,55.252a.365.365,0,0,1-.259-.107L182.2,54a.366.366,0,1,1,.518-.518l1.144,1.144a.366.366,0,0,1-.259.625Z" transform="translate(-182.094 -53.376)" fill="#ffbd61"/>
    </g>
    <g id="Group_3" data-name="Group 3" transform="translate(173.146 93.565)">
      <path id="Path_26" data-name="Path 26" d="M311.319,2.35a.366.366,0,0,1-.366-.366V.366a.366.366,0,0,1,.732,0V1.984A.366.366,0,0,1,311.319,2.35Z" transform="translate(-310.953)" fill="#ffbd61"/>
    </g>
  </g>
</svg>
