<svg xmlns="http://www.w3.org/2000/svg" width="26.731" height="25" viewBox="0 0 26.731 25">
  <g id="_10n" data-name="10n" transform="translate(-222.188 -240.22)">
    <g id="Group_128" data-name="Group 128" transform="translate(227.096 240.22)">
      <g id="crescent-moon" transform="translate(8.891 0)">
        <path id="Path_229" data-name="Path 229" d="M31.886,10.734A7.012,7.012,0,1,1,25.079,0a.085.085,0,0,1,.078.135,6.625,6.625,0,0,0,6.64,10.47A.085.085,0,0,1,31.886,10.734Z" transform="translate(-18.968 0)" fill="#faeb7e"/>
        <path id="Path_230" data-name="Path 230" d="M31.8,110.9a.084.084,0,0,1,.089.128A7.012,7.012,0,1,1,20.326,103.1a7.013,7.013,0,0,0,10.539,7.919A6.573,6.573,0,0,0,31.8,110.9Z" transform="translate(-18.972 -100.291)" fill="#ffda74"/>
      </g>
      <path id="Path_31" data-name="Path 31" d="M129.169,400.491a.451.451,0,0,1-.4-.653l1-1.993a.451.451,0,0,1,.807.4l-1,1.993A.451.451,0,0,1,129.169,400.491Z" transform="translate(-128.718 -379.481)" fill="#a0c8ff"/>
      <path id="Path_32" data-name="Path 32" d="M212,400.493a.451.451,0,0,1-.4-.653l1-1.993a.451.451,0,0,1,.807.4l-1,1.993A.451.451,0,0,1,212,400.493Z" transform="translate(-206.565 -379.483)" fill="#a0c8ff"/>
      <g id="Group_10" data-name="Group 10" transform="translate(6.981 22.105)">
        <path id="Path_33" data-name="Path 33" d="M245.136,466.758a.451.451,0,0,1-.4-.653l1-1.993a.451.451,0,0,1,.807.4l-1,1.993A.451.451,0,0,1,245.136,466.758Z" transform="translate(-244.685 -463.863)" fill="#a0c8ff"/>
      </g>
      <g id="Group_12" data-name="Group 12" transform="translate(1.993 22.105)">
        <path id="Path_34" data-name="Path 34" d="M162.3,466.758a.451.451,0,0,1-.4-.653l1-1.993a.451.451,0,0,1,.807.4l-1,1.993A.451.451,0,0,1,162.3,466.758Z" transform="translate(-161.852 -463.863)" fill="#a0c8ff"/>
      </g>
      <path id="Path_35" data-name="Path 35" d="M294.836,400.491a.451.451,0,0,1-.4-.653l1-1.993a.451.451,0,0,1,.807.4l-1,1.993A.451.451,0,0,1,294.836,400.491Z" transform="translate(-284.412 -379.481)" fill="#a0c8ff"/>
    </g>
    <g id="Group_157" data-name="Group 157" transform="translate(222.188 243.891)">
      <path id="Path_199" data-name="Path 199" d="M87.887,5.868a6.252,6.252,0,0,0-12.095-1.81,4.223,4.223,0,0,0,.052,8.445H87.771a3.319,3.319,0,0,0,.116-6.635Zm0,0" transform="translate(-68.422 0)" fill="#6d6d6d"/>
      <path id="Path_200" data-name="Path 200" d="M209.159,9.188a3.319,3.319,0,0,1-3.319,3.319h-.257a3.319,3.319,0,0,0-2.826-4.853,6.257,6.257,0,0,0-7.546-5.731,6.251,6.251,0,0,1,10.746,3.95A3.318,3.318,0,0,1,209.159,9.188Zm0,0" transform="translate(-186.49 -0.004)" fill="#565656"/>
      <path id="Path_201" data-name="Path 201" d="M385.888,91.82a.345.345,0,0,1-.335-.265,4.318,4.318,0,0,0-.236-.707.345.345,0,1,1,.633-.274,5.018,5.018,0,0,1,.273.819.345.345,0,0,1-.336.426Zm0,0" transform="translate(-368.077 -86.33)" fill="#6d6d6d"/>
      <path id="Path_202" data-name="Path 202" d="M292.1,28.8a.344.344,0,0,1-.249-.106,4.336,4.336,0,0,0-3.155-1.347.345.345,0,0,1,0-.69,5.02,5.02,0,0,1,3.653,1.56.345.345,0,0,1-.249.584Zm0,0" transform="translate(-275.471 -25.462)" fill="#6d6d6d"/>
      <path id="Path_203" data-name="Path 203" d="M2.29,83.988a4.47,4.47,0,0,1,8.647-1.294,3.019,3.019,0,0,1-.037,6.038H2.373a2.372,2.372,0,0,1-.083-4.744Zm0,0" transform="translate(0 -76.228)" fill="#a09d9c"/>
      <path id="Path_204" data-name="Path 204" d="M97.365,85.716a3.019,3.019,0,0,1-2.978,3.018,3.018,3.018,0,0,0-2.187-5.06,4.474,4.474,0,0,0-4.853-2.852A4.47,4.47,0,0,1,94.382,82.7a3.018,3.018,0,0,1,2.982,3.018Zm0,0" transform="translate(-83.446 -76.233)" fill="#82807f"/>
    </g>
  </g>
</svg>
