<svg xmlns="http://www.w3.org/2000/svg" width="29.024" height="25" viewBox="0 0 29.024 25">
  <g id="_11" data-name="11" transform="translate(0)">
    <g id="Group_136" data-name="Group 136" transform="translate(0 0)">
      <g id="Group_15" data-name="Group 15" transform="translate(0 12.752)">
        <path id="Path_36" data-name="Path 36" d="M.433,233.925a.432.432,0,0,1-.305-.737l7.609-7.609a.431.431,0,0,1,.61.61L.737,233.8a.43.43,0,0,1-.3.126Zm0,0" transform="translate(-0.001 -225.453)" fill="#a0ecff"/>
        <path id="Path_37" data-name="Path 37" d="M16.879,294.4a.431.431,0,0,1-.3-.737l.973-.973a.432.432,0,1,1,.61.61l-.973.973a.43.43,0,0,1-.305.126Zm0,0" transform="translate(-15.515 -288.762)" fill="#a0ecff"/>
        <path id="Path_38" data-name="Path 38" d="M50.511,371.661a.431.431,0,0,1-.305-.737l.973-.973a.431.431,0,0,1,.61.61l-.973.973a.431.431,0,0,1-.305.126Zm0,0" transform="translate(-47.24 -361.641)" fill="#a0ecff"/>
        <path id="Path_39" data-name="Path 39" d="M344.721,233.925a.432.432,0,0,1-.305-.737l7.609-7.609a.431.431,0,0,1,.61.61l-7.609,7.609A.431.431,0,0,1,344.721,233.925Zm0,0" transform="translate(-324.772 -225.453)" fill="#a0ecff"/>
      </g>
      <path id="Path_40" data-name="Path 40" d="M88.95,249.82l-9.205,6.16a.514.514,0,0,1-.649-.79l4.534-4.534H80.615a.514.514,0,0,1-.363-.877l4.85-4.85h4.332l-3.95,3.95h3.181A.514.514,0,0,1,88.95,249.82Zm0,0" transform="translate(-74.464 -231.073)" fill="#f6cb43"/>
      <path id="Path_41" data-name="Path 41" d="M90.9,249.817l-9.205,6.16a.5.5,0,0,1-.688-.107l7.615-6.086h-3.02a.514.514,0,0,1-.363-.877l3.98-3.981h2.166l-3.95,3.95h3.181a.514.514,0,0,1,.286.941Zm0,0" transform="translate(-76.419 -231.07)" fill="#fab03c"/>
      <path id="Path_42" data-name="Path 42" d="M300.585,288.126a.431.431,0,0,1-.305-.737l3.368-3.368a.432.432,0,0,1,.61.61L300.89,288A.43.43,0,0,1,300.585,288.126Zm0,0" transform="translate(-283.138 -267.83)" fill="#a0ecff"/>
      <path id="Path_43" data-name="Path 43" d="M255.979,370.833a.432.432,0,0,1-.305-.737l1.079-1.078a.431.431,0,1,1,.61.61l-1.078,1.078A.43.43,0,0,1,255.979,370.833Zm0,0" transform="translate(-241.061 -348.008)" fill="#a0ecff"/>
      <path id="Path_44" data-name="Path 44" d="M277.046,238.088a.432.432,0,0,1-.305-.737l3.326-3.326a.431.431,0,0,1,.61.61l-3.326,3.326a.431.431,0,0,1-.305.126Zm0,0" transform="translate(-260.934 -220.668)" fill="#a0ecff"/>
      <path id="Path_45" data-name="Path 45" d="M122.814,7.48a7.437,7.437,0,0,0-14.387-2.153,5.023,5.023,0,0,0,.062,10.046h14.188a3.947,3.947,0,0,0,.138-7.892Zm0,0" transform="translate(-97.599 -0.5)" fill="#6d6d6d"/>
      <path id="Path_46" data-name="Path 46" d="M235.9,11.428a3.949,3.949,0,0,1-3.948,3.948h-.306A3.948,3.948,0,0,0,228.288,9.6a7.442,7.442,0,0,0-8.976-6.817,7.436,7.436,0,0,1,12.782,4.7A3.947,3.947,0,0,1,235.9,11.428Zm0,0" transform="translate(-206.88 -0.504)" fill="#565656"/>
      <path id="Path_47" data-name="Path 47" d="M397.847,86.607a.432.432,0,0,1-.419-.331,5.138,5.138,0,0,0-.279-.837.431.431,0,1,1,.792-.343,5.989,5.989,0,0,1,.326.978.432.432,0,0,1-.42.533Zm0,0" transform="translate(-374.602 -80.055)" fill="#6d6d6d"/>
      <path id="Path_48" data-name="Path 48" d="M310.73,27.705a.43.43,0,0,1-.311-.133,5.137,5.137,0,0,0-3.737-1.6.431.431,0,0,1,0-.863,5.993,5.993,0,0,1,4.36,1.862.431.431,0,0,1-.311.73Zm0,0" transform="translate(-288.889 -23.718)" fill="#6d6d6d"/>
      <path id="Path_49" data-name="Path 49" d="M39.052,80.283a5.317,5.317,0,0,1,10.286-1.539,3.591,3.591,0,0,1-.044,7.182H39.15a2.822,2.822,0,0,1-.1-5.642Zm0,0" transform="translate(-34.269 -71.053)" fill="#a09d9c"/>
      <path id="Path_50" data-name="Path 50" d="M130.118,82.338a3.592,3.592,0,0,1-3.542,3.59,3.59,3.59,0,0,0-2.6-6.019A5.318,5.318,0,0,0,119,76.459a5.382,5.382,0,0,0-.793.059,5.317,5.317,0,0,1,8.368,2.23,3.591,3.591,0,0,1,3.548,3.59Zm0,0" transform="translate(-111.502 -71.057)" fill="#82807f"/>
      <path id="Path_51" data-name="Path 51" d="M321.172,388.778h-.008a.432.432,0,0,1,0-.863h.008a.432.432,0,0,1,0,.863Zm0,0" transform="translate(-302.552 -365.952)" fill="#a0ecff"/>
      <path id="Path_52" data-name="Path 52" d="M411.785,337.187h-.008a.431.431,0,0,1,0-.863h.008a.431.431,0,0,1,0,.863Zm0,0" transform="translate(-388.029 -317.287)" fill="#a0ecff"/>
      <path id="Path_53" data-name="Path 53" d="M31.961,406.578h-.006a.431.431,0,1,1,0-.863h.006a.431.431,0,0,1,0,.863Zm0,0" transform="translate(-29.736 -382.744)" fill="#a0ecff"/>
    </g>
  </g>
</svg>
