<svg xmlns="http://www.w3.org/2000/svg" width="25.579" height="25" viewBox="0 0 25.579 25">
  <g id="_13" data-name="13" transform="translate(0.394)">
    <g id="Group_145" data-name="Group 145" transform="translate(23.267 8.935)">
      <rect id="Rectangle_23" data-name="Rectangle 23" width="1.918" height="1.279" transform="translate(0 0)" fill="#76e2f8"/>
      <rect id="Rectangle_30" data-name="Rectangle 30" width="1.918" height="1.279" transform="translate(0 5.755)" fill="#76e2f8"/>
    </g>
    <g id="Group_144" data-name="Group 144" transform="translate(1.491)">
      <g id="Group_110" data-name="Group 110" transform="translate(0 3.122)">
        <path id="Path_134" data-name="Path 134" d="M54.753,73.364,47.3,71.389,49.29,64l-5.414,5.4L38.462,64l1.99,7.39L33,73.364l7.453,1.975-1.99,7.39,5.414-5.4,5.414,5.4L47.3,75.34Z" transform="translate(-32.999 -63.999)" fill="#76e2f8"/>
      </g>
      <path id="Path_135" data-name="Path 135" d="M259.424,75.34l1.99,7.39L256,77.33V69.4l5.414-5.4-1.99,7.39,7.453,1.975Z" transform="translate(-245.123 -60.877)" fill="#28cbf7"/>
      <path id="Path_136" data-name="Path 136" d="M126.764,113.316,132,116.345l-.732,1.258-5.239-3.014v6.043h-1.463V114.59l-5.239,3.014-.732-1.258,5.239-3.029-5.239-3.029.732-1.258,5.239,3.014V106h1.463v6.043l5.239-3.014.732,1.258Z" transform="translate(-114.424 -100.83)" fill="#9bfcff"/>
      <path id="Path_137" data-name="Path 137" d="M257.463,113.316l5.239,3.029-.732,1.258-5.239-3.014v6.043H256V106h.732v6.043l5.239-3.014.732,1.258Z" transform="translate(-245.123 -100.83)" fill="#76e2f8"/>
      <g id="Group_111" data-name="Group 111" transform="translate(8.477)">
        <path id="Path_138" data-name="Path 138" d="M209.2,0l-2.4,3.795,2.4,2.414,2.4-2.414Z" transform="translate(-206.8)" fill="#9bfcff"/>
      </g>
      <g id="Group_112" data-name="Group 112" transform="translate(8.477 18.764)">
        <path id="Path_139" data-name="Path 139" d="M209.2,384.7l-2.4,2.414,2.4,3.795,2.4-3.795Z" transform="translate(-206.8 -384.699)" fill="#9bfcff"/>
      </g>
      <g id="Group_113" data-name="Group 113" transform="translate(0.182 6.061)">
        <path id="Path_140" data-name="Path 140" d="M38.707,128.417l-1.969-3.886,4.374-.279.88,3.285Z" transform="translate(-36.738 -124.251)" fill="#9bfcff"/>
      </g>
      <g id="Group_114" data-name="Group 114" transform="translate(16.317 14.747)">
        <path id="Path_141" data-name="Path 141" d="M368.413,306.513l-.88-3.285,3.285-.88,1.921,3.886Z" transform="translate(-367.533 -302.347)" fill="#76e2f8"/>
      </g>
      <g id="Group_115" data-name="Group 115" transform="translate(0.182 14.747)">
        <path id="Path_142" data-name="Path 142" d="M41.112,306.513l-4.374-.279,1.969-3.886,3.285.88Z" transform="translate(-36.738 -302.347)" fill="#9bfcff"/>
      </g>
      <g id="Group_116" data-name="Group 116" transform="translate(16.317 6.061)">
        <path id="Path_143" data-name="Path 143" d="M370.818,128.417l-3.285-.88.88-3.285,4.326.279Z" transform="translate(-367.533 -124.251)" fill="#76e2f8"/>
      </g>
      <rect id="Rectangle_20" data-name="Rectangle 20" width="1.474" height="1.474" transform="translate(18.909 2.948)" fill="#76e2f8"/>
      <rect id="Rectangle_21" data-name="Rectangle 21" width="1.474" height="1.474" transform="translate(13.072)" fill="#76e2f8"/>
      <rect id="Rectangle_22" data-name="Rectangle 22" width="1.474" height="1.474" transform="translate(7.235)" fill="#9bfcff"/>
      <rect id="Rectangle_24" data-name="Rectangle 24" width="1.474" height="1.474" transform="translate(1.339 2.948)" fill="#9bfcff"/>
      <rect id="Rectangle_27" data-name="Rectangle 27" width="1.474" height="1.474" transform="translate(2.813 20.519)" fill="#9bfcff"/>
      <rect id="Rectangle_28" data-name="Rectangle 28" width="1.474" height="1.474" transform="translate(7.235 23.526)" fill="#efe2dd"/>
      <rect id="Rectangle_29" data-name="Rectangle 29" width="1.474" height="1.474" transform="translate(13.072 23.526)" fill="#76e2f8"/>
      <rect id="Rectangle_31" data-name="Rectangle 31" width="1.474" height="1.474" transform="translate(17.435 20.519)" fill="#76e2f8"/>
      <path id="Path_144" data-name="Path 144" d="M256,384.7l2.4,2.414-2.4,3.795Z" transform="translate(-245.123 -365.935)" fill="#76e2f8"/>
      <path id="Path_145" data-name="Path 145" d="M258.4,3.795,256,6.209V0Z" transform="translate(-245.123)" fill="#76e2f8"/>
    </g>
    <g id="Group_143" data-name="Group 143" transform="translate(-0.394 8.935)">
      <rect id="Rectangle_25" data-name="Rectangle 25" width="1.279" height="1.279" transform="translate(0 0)" fill="#9bfcff"/>
      <rect id="Rectangle_26" data-name="Rectangle 26" width="1.279" height="1.279" transform="translate(0 5.755)" fill="#9bfcff"/>
    </g>
  </g>
</svg>
