<svg xmlns="http://www.w3.org/2000/svg" width="22.942" height="25" viewBox="0 0 22.942 25">
  <g id="_50" data-name="50" transform="translate(-287.786 -137.962)">
    <path id="Path_253" data-name="Path 253" d="M7.54,127.329a3.724,3.724,0,1,1,7.448.047,1.443,1.443,0,0,0,1.443,1.443h1.492a2.979,2.979,0,1,1,.044,5.959H7.586a3.724,3.724,0,1,1-.047-7.448Z" transform="translate(285.612 14.357)" fill="#efefef"/>
    <path id="Path_248" data-name="Path 248" d="M49.139,290.373a2.662,2.662,0,0,1-1.983-.9,1.867,1.867,0,0,0-2.892,0,2.641,2.641,0,0,1-3.964,0,1.866,1.866,0,0,0-2.891,0,2.64,2.64,0,0,1-3.964,0A1.9,1.9,0,0,0,32,288.79V288a2.66,2.66,0,0,1,1.982.9,1.864,1.864,0,0,0,2.89,0,2.641,2.641,0,0,1,3.964,0,1.866,1.866,0,0,0,2.891,0,2.642,2.642,0,0,1,3.965,0,1.868,1.868,0,0,0,2.893,0,2.663,2.663,0,0,1,1.983-.9v.791a1.9,1.9,0,0,0-1.446.686A2.663,2.663,0,0,1,49.139,290.373Z" transform="translate(256.973 -134.531)" fill="#6e9ae0"/>
    <path id="Path_249" data-name="Path 249" d="M49.139,362.373a2.663,2.663,0,0,1-1.983-.9,1.867,1.867,0,0,0-2.892,0,2.641,2.641,0,0,1-3.964,0,1.866,1.866,0,0,0-2.891,0,2.64,2.64,0,0,1-3.964,0A1.9,1.9,0,0,0,32,360.79V360a2.66,2.66,0,0,1,1.982.9,1.864,1.864,0,0,0,2.89,0,2.641,2.641,0,0,1,3.964,0,1.866,1.866,0,0,0,2.891,0,2.642,2.642,0,0,1,3.965,0,1.868,1.868,0,0,0,2.893,0,2.662,2.662,0,0,1,1.983-.9v.791a1.9,1.9,0,0,0-1.446.686A2.663,2.663,0,0,1,49.139,362.373Z" transform="translate(256.973 -202.971)" fill="#6e9ae0"/>
    <path id="Path_250" data-name="Path 250" d="M49.139,434.373a2.662,2.662,0,0,1-1.983-.9,1.867,1.867,0,0,0-2.892,0,2.641,2.641,0,0,1-3.964,0,1.866,1.866,0,0,0-2.891,0,2.64,2.64,0,0,1-3.964,0A1.9,1.9,0,0,0,32,432.79V432a2.66,2.66,0,0,1,1.982.9,1.864,1.864,0,0,0,2.89,0,2.641,2.641,0,0,1,3.964,0,1.866,1.866,0,0,0,2.891,0,2.642,2.642,0,0,1,3.965,0,1.868,1.868,0,0,0,2.893,0,2.663,2.663,0,0,1,1.983-.9v.791a1.9,1.9,0,0,0-1.446.686A2.663,2.663,0,0,1,49.139,434.373Z" transform="translate(256.973 -271.411)" fill="#6e9ae0"/>
    <path id="Path_251" data-name="Path 251" d="M26.591,3.56C26.049,1.507,23.7,0,21.053,0a5.142,5.142,0,0,0-5.142,3.56c-1.605.021-3.118.764-3.56,1.978-.121-.009-.272,0-.4,0A3.761,3.761,0,0,0,8,9.1a3.761,3.761,0,0,0,3.956,3.56H25.8c2.834-.1,5.142-2.285,5.142-4.747C30.942,5.661,29.079,3.94,26.591,3.56Z" transform="translate(279.786 139.228)" fill="#dcdcda"/>
    <path id="Path_252" data-name="Path 252" d="M33.834,133.751a4.549,4.549,0,0,1-4.523,4.067H13.488a4.525,4.525,0,0,1-2.211-.575,3.9,3.9,0,0,0,3.794,2.553H28.915c2.834-.1,5.142-2.285,5.142-4.747A3.882,3.882,0,0,0,33.834,133.751Z" transform="translate(276.671 12.09)" fill="#bcbcbc"/>
  </g>
</svg>
