<svg xmlns="http://www.w3.org/2000/svg" width="24.587" height="25" viewBox="0 0 24.587 25">
  <g id="snow" transform="translate(0)">
    <g id="Group_121" data-name="Group 121" transform="translate(1.365 14.632)">
      <g id="Group_119" data-name="Group 119" transform="translate(0)">
        <path id="Path_152" data-name="Path 152" d="M19.8,298.234h-.85l.331-.413a.364.364,0,0,0-.568-.454l-.694.868H16.947v-1.068l.868-.694a.364.364,0,1,0-.454-.568l-.413.331v-.85a.364.364,0,1,0-.727,0v.85l-.413-.331a.364.364,0,1,0-.454.568l.868.694v1.068H15.151l-.694-.868a.364.364,0,0,0-.568.454l.331.413h-.85a.364.364,0,1,0,0,.727h.85l-.331.413a.364.364,0,0,0,.568.454l.694-.868H16.22v1.068l-.868.694a.364.364,0,0,0,.454.568l.413-.331v.85a.364.364,0,0,0,.727,0v-.85l.413.331a.364.364,0,1,0,.454-.568l-.868-.694v-1.068h1.068l.694.868a.364.364,0,0,0,.568-.454l-.331-.413h.85a.364.364,0,1,0,0-.727Z" transform="translate(-13.006 -295.02)" fill="#bed8fb"/>
        <path id="Path_153" data-name="Path 153" d="M356.058,298.234h-.85l.331-.413a.364.364,0,0,0-.568-.454l-.694.868h-1.068v-1.068l.868-.694a.364.364,0,0,0-.454-.568l-.413.331v-.85a.364.364,0,1,0-.727,0v.85l-.413-.331a.364.364,0,1,0-.454.568l.868.694v1.068h-1.068l-.694-.868a.364.364,0,0,0-.568.454l.331.413h-.85a.364.364,0,0,0,0,.727h.85l-.331.413a.364.364,0,0,0,.568.454l.694-.868h1.068v1.068l-.868.694a.364.364,0,0,0,.454.568l.413-.331v.85a.364.364,0,1,0,.727,0v-.85l.413.331a.364.364,0,1,0,.454-.568l-.868-.694v-1.068h1.068l.694.868a.364.364,0,1,0,.568-.454l-.331-.413h.85a.364.364,0,1,0,0-.727Z" transform="translate(-333.199 -295.02)" fill="#bed8fb"/>
        <path id="Path_154" data-name="Path 154" d="M203.134,398.308h-.448l.13-.162a.364.364,0,0,0-.568-.454l-.493.617h-.667v-.667l.617-.493a.364.364,0,1,0-.454-.568l-.162.13v-.448a.364.364,0,1,0-.727,0v.448l-.162-.13a.364.364,0,1,0-.454.568l.617.493v.667h-.667l-.493-.617a.364.364,0,0,0-.568.454l.13.162h-.448a.364.364,0,0,0,0,.727h.448l-.13.162a.364.364,0,0,0,.568.454l.493-.617h.667v.667l-.617.493a.364.364,0,1,0,.454.568l.162-.13v.448a.364.364,0,1,0,.727,0v-.448l.162.13a.364.364,0,1,0,.454-.568l-.617-.493v-.667h.667l.493.617a.364.364,0,0,0,.568-.454l-.13-.162h.448a.364.364,0,1,0,0-.727Z" transform="translate(-189.113 -391.078)" fill="#bed8fb"/>
      </g>
      <g id="Group_120" data-name="Group 120" transform="translate(0.235 1.842)">
        <path id="Path_155" data-name="Path 155" d="M195.088,335.33l.311-.311.311.311a.364.364,0,0,0,.514-.514l-.311-.311.311-.311a.364.364,0,0,0-.514-.514l-.311.311-.311-.311a.364.364,0,0,0-.514.514l.311.311-.311.311a.364.364,0,1,0,.514.514Z" transform="translate(-186.032 -333.573)" fill="#a4ccff"/>
        <path id="Path_156" data-name="Path 156" d="M120.565,451.37a.364.364,0,0,0-.514,0l-.311.311-.311-.311a.364.364,0,1,0-.514.514l.311.311-.311.311a.364.364,0,1,0,.514.514l.311-.311.311.311a.364.364,0,1,0,.514-.514l-.311-.311.311-.311A.364.364,0,0,0,120.565,451.37Z" transform="translate(-113.988 -445.64)" fill="#a4ccff"/>
        <path id="Path_157" data-name="Path 157" d="M355.947,451.37a.364.364,0,0,0-.514,0l-.311.311-.311-.311a.364.364,0,1,0-.514.514l.311.311-.311.311a.364.364,0,1,0,.514.514l.311-.311.311.311a.364.364,0,0,0,.514-.514l-.311-.311.311-.311A.364.364,0,0,0,355.947,451.37Z" transform="translate(-338.123 -445.64)" fill="#a4ccff"/>
        <path id="Path_158" data-name="Path 158" d="M456.825,451.37a.364.364,0,0,0-.514,0l-.311.311-.311-.311a.364.364,0,1,0-.514.514l.311.311-.311.311a.364.364,0,1,0,.514.514l.311-.311.311.311a.364.364,0,0,0,.514-.514l-.311-.311.311-.311A.364.364,0,0,0,456.825,451.37Z" transform="translate(-434.18 -445.64)" fill="#a4ccff"/>
        <path id="Path_159" data-name="Path 159" d="M280.289,333.679a.364.364,0,0,0-.514,0l-.311.311-.311-.311a.364.364,0,0,0-.514.514l.311.311-.311.311a.364.364,0,1,0,.514.514l.311-.311.311.311a.364.364,0,0,0,.514-.514l-.311-.311.311-.311A.364.364,0,0,0,280.289,333.679Z" transform="translate(-266.08 -333.573)" fill="#a4ccff"/>
        <path id="Path_160" data-name="Path 160" d="M19.688,451.37a.364.364,0,0,0-.514,0l-.311.311-.311-.311a.364.364,0,0,0-.514.514l.311.311-.311.311a.364.364,0,1,0,.514.514l.311-.311.311.311a.364.364,0,0,0,.514-.514l-.311-.311.311-.311A.364.364,0,0,0,19.688,451.37Z" transform="translate(-17.931 -445.64)" fill="#a4ccff"/>
      </g>
    </g>
    <g id="Group_127" data-name="Group 127" transform="translate(0 0)">
      <path id="Path_146" data-name="Path 146" d="M24.693,6.427h0a.132.132,0,0,1-.127-.1,3.214,3.214,0,0,0-4.6-1.935.389.389,0,0,1-.508-.121A2.412,2.412,0,0,0,16.9,3.28a.388.388,0,0,1-.462-.25A4.419,4.419,0,0,0,7.822,4.419c0,.055,0,.11,0,.165a.229.229,0,0,1-.049.15l0,0a.235.235,0,0,1-.173.089,4.016,4.016,0,0,0,.272,8.026H24.645a3.214,3.214,0,1,0,.048-6.427Z" transform="translate(-3.806 0)" fill="#ecf4ff"/>
      <path id="Path_147" data-name="Path 147" d="M24.693,6.427h0a.132.132,0,0,1-.127-.1,3.214,3.214,0,0,0-4.6-1.935.389.389,0,0,1-.508-.121A2.412,2.412,0,0,0,16.9,3.28a.388.388,0,0,1-.462-.25A4.419,4.419,0,0,0,7.822,4.419c0,.055,0,.11,0,.165a.229.229,0,0,1-.049.15l0,0a.235.235,0,0,1-.173.089,4.016,4.016,0,0,0,.272,8.026H24.645a3.214,3.214,0,1,0,.048-6.427Z" transform="translate(-3.806 0)" fill="#efefef"/>
      <path id="Path_148" data-name="Path 148" d="M365.8,86.475h0a.132.132,0,0,1-.127-.1,3.214,3.214,0,0,0-3.643-2.265,3.218,3.218,0,0,1,2.528,2.265.132.132,0,0,0,.127.1h0a3.214,3.214,0,1,1-.048,6.427h1.115a3.214,3.214,0,1,0,.048-6.427Z" transform="translate(-344.91 -80.048)" fill="#cdcdcd"/>
      <path id="Path_149" data-name="Path 149" d="M85.188,90.952a.364.364,0,1,0,.727,0,4.736,4.736,0,0,0-4.37-4.717c-.007.1-.01.2-.01.3,0,.055,0,.11,0,.165a.229.229,0,0,1-.049.15l0,0a.235.235,0,0,1-.173.089l-.1.008A4.007,4.007,0,0,1,85.188,90.952Z" transform="translate(-77.518 -82.114)" fill="#cdcdcd"/>
      <g id="Group_117" data-name="Group 117" transform="translate(10.201 2.705)">
        <path id="Path_150" data-name="Path 150" d="M220.135,57.194a.386.386,0,0,1-.422-.257q-.055-.166-.122-.325a3.462,3.462,0,0,0-2.309,3.26.364.364,0,1,0,.727,0,2.753,2.753,0,0,1,2.125-2.676v0Z" transform="translate(-217.282 -56.612)" fill="#cdcdcd"/>
      </g>
      <path id="Path_151" data-name="Path 151" d="M366.805,198.314a.364.364,0,0,0-.727,0,3.756,3.756,0,0,0,1.54,3.032h1.989l.116,0A3.035,3.035,0,0,1,366.805,198.314Z" transform="translate(-348.767 -188.491)" fill="#cdcdcd"/>
    </g>
  </g>
</svg>
