<svg xmlns="http://www.w3.org/2000/svg" width="47.442" height="48.24" viewBox="0 0 47.442 48.24">
  <defs>
    <style>
      .cls-1 {
        fill: #bed8fb;
      }

      .cls-2 {
        fill: #a4ccff;
      }

      .cls-3 {
        fill: #ecf4ff;
      }

      .cls-4 {
        fill: #efefef;
      }

      .cls-5 {
        fill: #cdcdcd;
      }
    </style>
  </defs>
  <g id="Group_135" data-name="Group 135" transform="translate(0)">
    <g id="Group_121" data-name="Group 121" transform="translate(2.633 28.233)">
      <g id="Group_119" data-name="Group 119" transform="translate(0)">
        <path id="Path_152" data-name="Path 152" class="cls-1" d="M26.109,301.221h-1.64l.638-.8a.7.7,0,0,0-1.1-.877l-1.34,1.674H20.61v-2.061l1.674-1.339a.7.7,0,1,0-.877-1.1l-.8.638v-1.64a.7.7,0,1,0-1.4,0v1.64l-.8-.638a.7.7,0,1,0-.877,1.1l1.674,1.339v2.061H17.146l-1.34-1.674a.7.7,0,1,0-1.1.877l.638.8h-1.64a.7.7,0,1,0,0,1.4h1.64l-.638.8a.7.7,0,0,0,1.1.877l1.339-1.674h2.061v2.061l-1.674,1.34a.7.7,0,0,0,.877,1.1l.8-.638v1.64a.7.7,0,0,0,1.4,0v-1.64l.8.638a.7.7,0,1,0,.877-1.1l-1.674-1.339v-2.061h2.061l1.34,1.674a.7.7,0,0,0,1.1-.877l-.638-.8h1.64a.7.7,0,1,0,0-1.4Z" transform="translate(-13.006 -295.02)"/>
        <path id="Path_153" data-name="Path 153" class="cls-1" d="M362.37,301.221h-1.64l.638-.8a.7.7,0,1,0-1.1-.877l-1.339,1.674h-2.061v-2.061l1.674-1.339a.7.7,0,1,0-.877-1.1l-.8.638v-1.64a.7.7,0,1,0-1.4,0v1.64l-.8-.638a.7.7,0,1,0-.877,1.1l1.674,1.339v2.061h-2.061l-1.34-1.674a.7.7,0,1,0-1.1.877l.638.8h-1.64a.7.7,0,1,0,0,1.4h1.64l-.638.8a.7.7,0,1,0,1.1.877l1.339-1.674h2.061v2.061l-1.674,1.339a.7.7,0,1,0,.877,1.1l.8-.638v1.64a.7.7,0,0,0,1.4,0v-1.64l.8.638a.7.7,0,1,0,.877-1.1l-1.674-1.339v-2.061h2.061l1.34,1.674a.7.7,0,1,0,1.1-.877l-.638-.8h1.64a.7.7,0,0,0,0-1.4Z" transform="translate(-318.263 -295.02)"/>
        <path id="Path_154" data-name="Path 154" class="cls-1" d="M207.953,400.549h-.865l.25-.313a.7.7,0,0,0-1.1-.877l-.952,1.19H204v-1.286l1.19-.952a.7.7,0,1,0-.877-1.1l-.313.25V396.6a.7.7,0,1,0-1.4,0v.865l-.313-.25a.7.7,0,1,0-.877,1.1l1.19.952v1.286h-1.286l-.952-1.19a.7.7,0,0,0-1.1.877l.25.313h-.865a.7.7,0,0,0,0,1.4h.865l-.25.313a.7.7,0,0,0,1.1.877l.952-1.19H202.6v1.286l-1.19.952a.7.7,0,1,0,.877,1.1l.313-.25v.865a.7.7,0,1,0,1.4,0v-.865l.313.25a.7.7,0,1,0,.877-1.1l-1.19-.952v-1.286h1.286l.952,1.19a.7.7,0,0,0,1.1-.877l-.25-.313h.865a.7.7,0,1,0,0-1.4Z" transform="translate(-180.898 -386.597)"/>
      </g>
      <g id="Group_120" data-name="Group 120" transform="translate(0.454 3.555)">
        <path id="Path_155" data-name="Path 155" class="cls-2" d="M195.665,336.963l.6-.6.6.6a.7.7,0,1,0,.992-.993l-.6-.6.6-.6a.7.7,0,0,0-.992-.993l-.6.6-.6-.6a.7.7,0,0,0-.992.993l.6.6-.6.6a.7.7,0,0,0,.992.993Z" transform="translate(-178.19 -333.573)"/>
        <path id="Path_156" data-name="Path 156" class="cls-2" d="M122.2,451.469a.7.7,0,0,0-.992,0l-.6.6-.6-.6a.7.7,0,0,0-.992.993l.6.6-.6.6a.7.7,0,0,0,.992.993l.6-.6.6.6a.7.7,0,1,0,.992-.993l-.6-.6.6-.6A.7.7,0,0,0,122.2,451.469Z" transform="translate(-109.507 -440.412)"/>
        <path id="Path_157" data-name="Path 157" class="cls-2" d="M357.581,451.469a.7.7,0,0,0-.992,0l-.6.6-.6-.6a.7.7,0,1,0-.992.993l.6.6-.6.6a.7.7,0,0,0,.992.993l.6-.6.6.6a.7.7,0,0,0,.992-.993l-.6-.6.6-.6A.7.7,0,0,0,357.581,451.469Z" transform="translate(-323.186 -440.412)"/>
        <path id="Path_158" data-name="Path 158" class="cls-2" d="M458.459,451.469a.7.7,0,0,0-.992,0l-.6.6-.6-.6a.7.7,0,1,0-.992.993l.6.6-.6.6a.7.7,0,0,0,.992.993l.6-.6.6.6a.7.7,0,0,0,.992-.993l-.6-.6.6-.6A.7.7,0,0,0,458.459,451.469Z" transform="translate(-414.763 -440.412)"/>
        <path id="Path_159" data-name="Path 159" class="cls-2" d="M281.923,333.778a.7.7,0,0,0-.992,0l-.6.6-.6-.6a.7.7,0,1,0-.992.993l.6.6-.6.6a.7.7,0,1,0,.992.993l.6-.6.6.6a.7.7,0,1,0,.992-.993l-.6-.6.6-.6A.7.7,0,0,0,281.923,333.778Z" transform="translate(-254.504 -333.573)"/>
        <path id="Path_160" data-name="Path 160" class="cls-2" d="M21.322,451.469a.7.7,0,0,0-.992,0l-.6.6-.6-.6a.7.7,0,0,0-.992.993l.6.6-.6.6a.7.7,0,0,0,.992.993l.6-.6.6.6a.7.7,0,0,0,.992-.993l-.6-.6.6-.6A.7.7,0,0,0,21.322,451.469Z" transform="translate(-17.931 -440.412)"/>
      </g>
    </g>
    <g id="Group_127" data-name="Group 127" transform="translate(0 0)">
      <path id="Path_146" data-name="Path 146" class="cls-3" d="M44.11,12.4h0a.256.256,0,0,1-.245-.187A6.2,6.2,0,0,0,34.992,8.48a.751.751,0,0,1-.98-.233A4.655,4.655,0,0,0,29.07,6.329a.748.748,0,0,1-.891-.482A8.527,8.527,0,0,0,11.556,8.526c0,.107,0,.213.007.319a.442.442,0,0,1-.094.29l-.007.009a.453.453,0,0,1-.334.172A7.75,7.75,0,0,0,11.654,24.8H44.018a6.2,6.2,0,1,0,.092-12.4Z" transform="translate(-3.806 0)"/>
      <path id="Path_147" data-name="Path 147" class="cls-4" d="M44.11,12.4h0a.256.256,0,0,1-.245-.187A6.2,6.2,0,0,0,34.992,8.48a.751.751,0,0,1-.98-.233A4.655,4.655,0,0,0,29.07,6.329a.748.748,0,0,1-.891-.482A8.527,8.527,0,0,0,11.556,8.526c0,.107,0,.213.007.319a.442.442,0,0,1-.094.29l-.007.009a.453.453,0,0,1-.334.172A7.75,7.75,0,0,0,11.654,24.8H44.018a6.2,6.2,0,1,0,.092-12.4Z" transform="translate(-3.806 0)"/>
      <path id="Path_148" data-name="Path 148" class="cls-5" d="M369.3,88.716h0a.256.256,0,0,1-.245-.187,6.2,6.2,0,0,0-7.029-4.37,6.209,6.209,0,0,1,4.877,4.37.256.256,0,0,0,.244.187h0a6.2,6.2,0,1,1-.092,12.4h2.152a6.2,6.2,0,1,0,.093-12.4Z" transform="translate(-328.998 -76.314)"/>
      <path id="Path_149" data-name="Path 149" class="cls-5" d="M88.88,95.336a.7.7,0,1,0,1.4,0,9.139,9.139,0,0,0-8.433-9.1c-.013.19-.02.382-.02.575,0,.107,0,.213.007.319a.442.442,0,0,1-.094.29l-.007.009a.453.453,0,0,1-.334.172c-.062,0-.124.01-.185.015A7.732,7.732,0,0,1,88.88,95.336Z" transform="translate(-74.079 -78.284)"/>
      <g id="Group_117" data-name="Group 117" transform="translate(19.683 5.22)">
        <path id="Path_150" data-name="Path 150" class="cls-5" d="M222.786,57.736a.745.745,0,0,1-.814-.5q-.106-.32-.236-.628a6.681,6.681,0,0,0-4.455,6.29.7.7,0,1,0,1.4,0,5.311,5.311,0,0,1,4.1-5.163v0Z" transform="translate(-217.282 -56.612)"/>
      </g>
      <path id="Path_151" data-name="Path 151" class="cls-5" d="M367.482,198.652a.7.7,0,0,0-1.4,0,7.247,7.247,0,0,0,2.972,5.85h3.839c.075,0,.15,0,.224-.006A5.856,5.856,0,0,1,367.482,198.652Z" transform="translate(-332.676 -179.699)"/>
    </g>
  </g>
</svg>
