<svg xmlns="http://www.w3.org/2000/svg" width="202" height="184" viewBox="0 0 202 184">
  <g id="Group_23" data-name="Group 23" transform="translate(-730.591 -86.226)">
    <path id="Path_14" data-name="Path 14" d="M70,99.37c-.267,0-.733-.008-1,0-2.832-11.009-13.382-19-25-19a24.824,24.824,0,0,0-25,25,22.822,22.822,0,0,0,0,3h0a3.1,3.1,0,0,0-1,0,22.367,22.367,0,0,0-13,7,22.1,22.1,0,0,0,0,28c3.3,3.593,8.193,5.393,13,6a3.1,3.1,0,0,0,1,0H70a25,25,0,1,0,0-50Z" transform="translate(730.591 28.857)" fill="#e1dee1"/>
    <path id="Path_15" data-name="Path 15" d="M76,189.491H25c-.355,0-.681-.892-1-1a18.572,18.572,0,0,1-12-6c-3.491-3.8-6-8.837-6-14a15.636,15.636,0,0,1,0-2c-.358.337-.665.635-1,1a22.1,22.1,0,0,0,0,28c3.3,3.593,8.193,5.393,13,6a3.1,3.1,0,0,0,1,0H70c12.4,0,21.864-9.2,24-21C89.377,185.487,83.327,189.491,76,189.491Z" transform="translate(730.591 -23.265)" fill="#c2bec4"/>
    <path id="Path_16" data-name="Path 16" d="M361.51,59.5a22.367,22.367,0,0,0-13-7,3.1,3.1,0,0,0-1,0h0a22.812,22.812,0,0,0,0-3c0-13.946-11.054-26-25-26a24.815,24.815,0,0,0-24,19c-.267-.008-.733,0-1,0-13.946,0-26,12.054-26,26s12.054,25,26,25h50a3.1,3.1,0,0,0,1,0,22.368,22.368,0,0,0,13-7,17.955,17.955,0,0,0,5-13A20.363,20.363,0,0,0,361.51,59.5Z" transform="translate(566.08 62.726)" fill="#e1dee1"/>
    <path id="Path_17" data-name="Path 17" d="M358.51,116.529a3.1,3.1,0,0,1-1,0h-51a24.824,24.824,0,0,1-25-25,24.619,24.619,0,0,1,1-8,25.962,25.962,0,0,0-11,21c0,13.946,12.054,25,26,25h50a3.1,3.1,0,0,0,1,0,22.368,22.368,0,0,0,13-7c2.327-2.532,4.171-4.728,5-8C364.123,115.937,361.3,116.176,358.51,116.529Z" transform="translate(566.08 26.697)" fill="#c2bec4"/>
    <path id="Path_18" data-name="Path 18" d="M158,181.4a48.852,48.852,0,0,0-9,1c1.495-4.315,3-8.4,3-13a41.1,41.1,0,0,0-82-4c-5.158-1.608-10.528-3-16-3a54,54,0,0,0,0,108H158a43.867,43.867,0,0,0,44-44C202,202,182.405,181.4,158,181.4Z" transform="translate(730.591 -0.175)" fill="#f0eff0"/>
    <path id="Path_19" data-name="Path 19" d="M171,327.875H66c-29.635,0-53-24.365-53-54,0-6.907.616-12.928,3-19a52.031,52.031,0,0,0-16,38,54.243,54.243,0,0,0,54,54H158a44.37,44.37,0,0,0,42-30A43.265,43.265,0,0,1,171,327.875Z" transform="translate(730.591 -76.649)" fill="#d1ced3"/>
  </g>
</svg>
