<svg xmlns="http://www.w3.org/2000/svg" width="24.742" height="25" viewBox="0 0 24.742 25">
  <g id="_09" data-name="09" transform="translate(-99.165 -242.745)">
    <g id="Group_150" data-name="Group 150" transform="translate(102.381 265)">
      <path id="Path_213" data-name="Path 213" d="M68.027,457.435a1.029,1.029,0,1,1-2.058,0,4.228,4.228,0,0,1,.748-1.564.337.337,0,0,1,.562,0A4.226,4.226,0,0,1,68.027,457.435Zm0,0" transform="translate(-65.969 -455.72)" fill="#a0ecff"/>
      <path id="Path_214" data-name="Path 214" d="M80.267,457.434a1.03,1.03,0,0,1-1.431.948,1.029,1.029,0,0,0,.628-.948,3.631,3.631,0,0,0-.627-1.379c.041-.065.082-.127.12-.184a.337.337,0,0,1,.563,0A4.226,4.226,0,0,1,80.267,457.434Zm0,0" transform="translate(-78.209 -455.719)" fill="#60daff"/>
      <path id="Path_215" data-name="Path 215" d="M163.257,457.435a1.029,1.029,0,0,1-2.058,0,4.228,4.228,0,0,1,.748-1.564.337.337,0,0,1,.562,0A4.226,4.226,0,0,1,163.257,457.435Zm0,0" transform="translate(-156.556 -455.72)" fill="#a0ecff"/>
      <path id="Path_216" data-name="Path 216" d="M175.5,457.434a1.03,1.03,0,0,1-1.431.948,1.029,1.029,0,0,0,.628-.948,3.631,3.631,0,0,0-.627-1.379c.041-.065.082-.127.12-.184a.337.337,0,0,1,.563,0A4.226,4.226,0,0,1,175.5,457.434Zm0,0" transform="translate(-168.796 -455.719)" fill="#60daff"/>
      <path id="Path_217" data-name="Path 217" d="M258.488,457.435a1.029,1.029,0,0,1-2.058,0,4.225,4.225,0,0,1,.748-1.564.337.337,0,0,1,.562,0A4.222,4.222,0,0,1,258.488,457.435Zm0,0" transform="translate(-247.144 -455.72)" fill="#a0ecff"/>
      <path id="Path_218" data-name="Path 218" d="M270.728,457.434a1.03,1.03,0,0,1-1.431.948,1.029,1.029,0,0,0,.628-.948,3.631,3.631,0,0,0-.627-1.379c.041-.065.081-.127.12-.184a.338.338,0,0,1,.563,0A4.23,4.23,0,0,1,270.728,457.434Zm0,0" transform="translate(-259.383 -455.719)" fill="#60daff"/>
      <path id="Path_219" data-name="Path 219" d="M353.718,457.435a1.029,1.029,0,0,1-2.058,0,4.226,4.226,0,0,1,.748-1.564.337.337,0,0,1,.562,0A4.222,4.222,0,0,1,353.718,457.435Zm0,0" transform="translate(-337.73 -455.72)" fill="#a0ecff"/>
      <path id="Path_220" data-name="Path 220" d="M365.958,457.434a1.03,1.03,0,0,1-1.431.948,1.029,1.029,0,0,0,.628-.948,3.631,3.631,0,0,0-.627-1.379c.041-.065.082-.127.12-.184a.337.337,0,0,1,.563,0A4.229,4.229,0,0,1,365.958,457.434Zm0,0" transform="translate(-349.97 -455.719)" fill="#60daff"/>
    </g>
    <g id="Group_149" data-name="Group 149" transform="translate(104.703 261.525)">
      <path id="Path_221" data-name="Path 221" d="M115.644,386.5a1.029,1.029,0,0,1-2.058,0,4.228,4.228,0,0,1,.748-1.564.338.338,0,0,1,.562,0,4.226,4.226,0,0,1,.748,1.564Zm0,0" transform="translate(-113.586 -384.785)" fill="#a0ecff"/>
      <path id="Path_222" data-name="Path 222" d="M127.88,386.5a1.029,1.029,0,0,1-1.431.948,1.028,1.028,0,0,0,.628-.948,3.629,3.629,0,0,0-.627-1.379c.041-.065.082-.127.12-.184a.338.338,0,0,1,.563,0A4.227,4.227,0,0,1,127.88,386.5Zm0,0" transform="translate(-125.822 -384.785)" fill="#60daff"/>
      <path id="Path_223" data-name="Path 223" d="M210.874,386.5a1.029,1.029,0,0,1-2.058,0,4.228,4.228,0,0,1,.748-1.564.338.338,0,0,1,.562,0A4.226,4.226,0,0,1,210.874,386.5Zm0,0" transform="translate(-204.173 -384.785)" fill="#a0ecff"/>
      <path id="Path_224" data-name="Path 224" d="M223.11,386.5a1.029,1.029,0,0,1-1.431.948,1.028,1.028,0,0,0,.628-.948,3.629,3.629,0,0,0-.627-1.379c.041-.065.082-.127.12-.184a.338.338,0,0,1,.563,0A4.227,4.227,0,0,1,223.11,386.5Zm0,0" transform="translate(-216.409 -384.785)" fill="#60daff"/>
      <path id="Path_225" data-name="Path 225" d="M306.105,386.5a1.029,1.029,0,0,1-2.058,0,4.228,4.228,0,0,1,.748-1.564.338.338,0,0,1,.562,0A4.226,4.226,0,0,1,306.105,386.5Zm0,0" transform="translate(-294.761 -384.785)" fill="#a0ecff"/>
      <path id="Path_226" data-name="Path 226" d="M318.341,386.5a1.029,1.029,0,0,1-1.431.948,1.028,1.028,0,0,0,.628-.948,3.628,3.628,0,0,0-.627-1.379c.041-.065.082-.127.12-.184a.338.338,0,0,1,.563,0A4.227,4.227,0,0,1,318.341,386.5Zm0,0" transform="translate(-306.997 -384.785)" fill="#60daff"/>
      <path id="Path_227" data-name="Path 227" d="M401.335,386.5a1.029,1.029,0,0,1-2.058,0,4.228,4.228,0,0,1,.748-1.564.338.338,0,0,1,.562,0,4.227,4.227,0,0,1,.748,1.564Zm0,0" transform="translate(-385.347 -384.785)" fill="#a0ecff"/>
      <path id="Path_228" data-name="Path 228" d="M413.575,386.5a1.029,1.029,0,0,1-1.431.948,1.029,1.029,0,0,0,.628-.948,3.63,3.63,0,0,0-.627-1.379c.041-.065.082-.127.12-.184a.338.338,0,0,1,.563,0A4.224,4.224,0,0,1,413.575,386.5Zm0,0" transform="translate(-397.587 -384.785)" fill="#60daff"/>
    </g>
    <g id="Group_148" data-name="Group 148" transform="translate(102.381 258.147)">
      <path id="Path_205" data-name="Path 205" d="M68.027,317.191a1.029,1.029,0,1,1-2.058,0,4.229,4.229,0,0,1,.748-1.564.338.338,0,0,1,.562,0A4.226,4.226,0,0,1,68.027,317.191Zm0,0" transform="translate(-65.969 -315.476)" fill="#a0ecff"/>
      <path id="Path_206" data-name="Path 206" d="M80.267,317.191a1.029,1.029,0,0,1-1.431.948,1.029,1.029,0,0,0,.628-.948,3.631,3.631,0,0,0-.627-1.379c.041-.065.082-.127.12-.184a.338.338,0,0,1,.563,0A4.225,4.225,0,0,1,80.267,317.191Zm0,0" transform="translate(-78.209 -315.476)" fill="#60daff"/>
      <path id="Path_207" data-name="Path 207" d="M163.257,317.191a1.029,1.029,0,0,1-2.058,0,4.228,4.228,0,0,1,.748-1.564.338.338,0,0,1,.562,0A4.226,4.226,0,0,1,163.257,317.191Zm0,0" transform="translate(-156.556 -315.476)" fill="#a0ecff"/>
      <path id="Path_208" data-name="Path 208" d="M175.5,317.191a1.029,1.029,0,0,1-1.431.948,1.029,1.029,0,0,0,.628-.948,3.631,3.631,0,0,0-.627-1.379c.041-.065.082-.127.12-.184a.338.338,0,0,1,.563,0A4.226,4.226,0,0,1,175.5,317.191Zm0,0" transform="translate(-168.796 -315.476)" fill="#60daff"/>
      <path id="Path_209" data-name="Path 209" d="M258.488,317.191a1.029,1.029,0,0,1-2.058,0,4.226,4.226,0,0,1,.748-1.564.337.337,0,0,1,.562,0A4.223,4.223,0,0,1,258.488,317.191Zm0,0" transform="translate(-247.144 -315.476)" fill="#a0ecff"/>
      <path id="Path_210" data-name="Path 210" d="M270.728,317.191a1.029,1.029,0,0,1-1.431.948,1.029,1.029,0,0,0,.628-.948,3.632,3.632,0,0,0-.627-1.379c.041-.065.081-.127.12-.184a.338.338,0,0,1,.563,0A4.229,4.229,0,0,1,270.728,317.191Zm0,0" transform="translate(-259.383 -315.476)" fill="#60daff"/>
      <path id="Path_211" data-name="Path 211" d="M353.718,317.191a1.029,1.029,0,0,1-2.058,0,4.227,4.227,0,0,1,.748-1.564.337.337,0,0,1,.562,0A4.223,4.223,0,0,1,353.718,317.191Zm0,0" transform="translate(-337.73 -315.476)" fill="#a0ecff"/>
      <path id="Path_212" data-name="Path 212" d="M365.958,317.191a1.029,1.029,0,0,1-1.431.948,1.028,1.028,0,0,0,.628-.948,3.631,3.631,0,0,0-.627-1.379c.041-.065.082-.127.12-.184a.338.338,0,0,1,.563,0A4.228,4.228,0,0,1,365.958,317.191Zm0,0" transform="translate(-349.97 -315.476)" fill="#60daff"/>
    </g>
    <g id="Group_147" data-name="Group 147" transform="translate(99.165 242.745)">
      <path id="Path_199" data-name="Path 199" d="M89.375,6.4a6.824,6.824,0,0,0-13.2-1.976,4.609,4.609,0,0,0,.057,9.218H89.249A3.622,3.622,0,0,0,89.375,6.4Zm0,0" transform="translate(-68.129)" fill="#6d6d6d"/>
      <path id="Path_200" data-name="Path 200" d="M210.435,10.028a3.623,3.623,0,0,1-3.623,3.623h-.281a3.623,3.623,0,0,0-3.085-5.3A6.829,6.829,0,0,0,195.211,2.1a6.823,6.823,0,0,1,11.728,4.311,3.621,3.621,0,0,1,3.5,3.619Zm0,0" transform="translate(-185.693 -0.004)" fill="#565656"/>
      <path id="Path_201" data-name="Path 201" d="M385.943,91.953a.377.377,0,0,1-.366-.289,4.72,4.72,0,0,0-.257-.771.377.377,0,1,1,.691-.3,5.481,5.481,0,0,1,.3.894.377.377,0,0,1-.366.465Zm0,0" transform="translate(-366.502 -85.96)" fill="#6d6d6d"/>
      <path id="Path_202" data-name="Path 202" d="M292.444,28.992a.376.376,0,0,1-.272-.116,4.733,4.733,0,0,0-3.443-1.471.377.377,0,0,1,0-.753,5.48,5.48,0,0,1,3.987,1.7.377.377,0,0,1-.272.638Zm0,0" transform="translate(-274.293 -25.353)" fill="#6d6d6d"/>
      <path id="Path_203" data-name="Path 203" d="M2.5,84.372a4.879,4.879,0,0,1,9.438-1.412,3.3,3.3,0,0,1-.04,6.59H2.59a2.59,2.59,0,0,1-.09-5.177Zm0,0" transform="translate(0 -75.902)" fill="#a09d9c"/>
      <path id="Path_204" data-name="Path 204" d="M98.281,86.258a3.3,3.3,0,0,1-3.25,3.295,3.294,3.294,0,0,0-2.387-5.523,4.883,4.883,0,0,0-5.3-3.112,4.878,4.878,0,0,1,7.678,2.046,3.3,3.3,0,0,1,3.255,3.294Zm0,0" transform="translate(-83.089 -75.906)" fill="#82807f"/>
    </g>
  </g>
</svg>
